<svg width="194" height="172" viewBox="0 0 194 172" fill="none" xmlns="http://www.w3.org/2000/svg">
<g clip-path="url(#clip0_1546_11)">
<g filter="url(#filter0_f_1546_11)">
<path d="M50.8579 27.9967C35.504 28.5861 28.9942 39.2601 26.5018 54.6677C22.0937 81.965 11.6036 123.694 16.0954 135.906C19.6014 145.438 27.3109 139.295 44.4132 139.986C62.3617 140.713 73.568 143.605 89.08 147.169C97.8962 149.195 134.327 163.429 142.111 159.229C148.937 155.545 146.644 138.727 147.937 130.789C156.353 79.0859 160.075 67.5436 167.533 57.0539C185.938 31.2025 126.512 8.57368 96.1757 16.6689C86.848 19.1555 60.8273 27.6191 50.8579 27.9967Z" fill="#CD9077" fill-opacity="0.64"/>
</g>
</g>
<defs>
<filter id="filter0_f_1546_11" x="0" y="0" width="186" height="175" filterUnits="userSpaceOnUse" color-interpolation-filters="sRGB">
<feFlood flood-opacity="0" result="BackgroundImageFix"/>
<feBlend mode="normal" in="SourceGraphic" in2="BackgroundImageFix" result="shape"/>
<feGaussianBlur stdDeviation="7.5" result="effect1_foregroundBlur_1546_11"/>
</filter>
<clipPath id="clip0_1546_11">
<rect width="194" height="172" fill="white"/>
</clipPath>
</defs>
</svg>
