<svg width="177" height="157" viewBox="0 0 177 157" fill="none" xmlns="http://www.w3.org/2000/svg">
<g clip-path="url(#clip0_1546_11)">
<path d="M39.06 14.7002C22.55 15.3402 15.55 26.9302 12.87 43.6602C8.13004 73.3002 -3.14996 118.61 1.68004 131.87C5.45004 142.22 13.74 135.55 32.13 136.3C51.43 137.09 63.48 140.23 80.16 144.1C89.64 146.3 122.14 159.67 130.51 155.11C137.85 151.11 139.29 134.8 140.68 126.18C149.73 70.0402 164.5 56.0902 172.52 44.7002C192.31 16.6302 120.41 -6.38977 87.79 2.40023C77.76 5.10023 49.78 14.2902 39.06 14.7002Z" stroke="black" stroke-linecap="round" stroke-linejoin="round"/>
<path d="M49.3901 28.11C28.7101 30.7 22.6701 31.76 20.2401 46.9C18.6101 57.06 25.8901 70.2 23.2201 82.68C18.8501 103.13 5.46009 121.78 13.3501 122.6C31.2001 124.45 67.6501 135.38 97.1301 142.23C113.23 145.97 133.21 138.31 135.9 121.6C144.09 70.79 157.46 58.16 164.72 47.86C182.65 22.44 116.32 6.30001 86.5101 13.13C77.5101 15.19 61.4701 26.59 49.3901 28.1V28.11Z" fill="#CD9077" fill-opacity="0.8" stroke="black" stroke-width="0.75" stroke-linecap="round" stroke-linejoin="round"/>
<path d="M52.8001 32.9803C39.5301 34.7503 29.7901 36.5803 27.6201 50.1303C26.3701 57.9403 31.0701 74.6503 29.8501 82.6303C27.3301 99.2103 19.8901 105.92 24.9501 111.74C31.5301 119.31 70.0601 129.33 96.4501 135.46C110.86 138.81 128.75 131.95 131.16 116.99C138.49 71.5103 150.46 60.2003 156.96 50.9803C172.99 28.2303 114.07 16.2903 86.9401 19.9103L52.8001 32.9803Z" stroke="black" stroke-width="1.25" stroke-linecap="round" stroke-linejoin="round"/>
<path d="M62.29 36.8703C52.13 38.2203 44.03 46.2403 42.36 56.6203C39.42 75.0103 34.57 97.1903 40.32 103.8C45.36 109.6 74.86 117.27 95.07 121.96C106.1 124.52 119.8 119.27 121.65 107.82C127.26 72.9903 136.43 64.3403 141.4 57.2703C153.68 39.8503 108.55 30.7103 87.78 33.4803L62.28 36.8703H62.29Z" stroke="black" stroke-width="0.75" stroke-linecap="round" stroke-linejoin="round"/>
<path d="M66.6201 43.1301C46.93 49.6001 60.01 66.7801 58.6 75.5601C56.11 91.1301 43.15 94.2201 48.02 99.8201C52.29 104.73 77.28 111.23 94.39 115.2C103.74 117.37 115.34 112.92 116.9 103.22C121.65 73.7201 129.42 66.3901 133.63 60.4001C144.03 45.6501 105.81 37.9001 88.21 40.2501L66.61 43.1301H66.6201Z" stroke="black" stroke-width="0.75" stroke-linecap="round" stroke-linejoin="round"/>
<path d="M70.94 49.3905C64.36 52.1005 68.32 69.1205 67.17 76.3205C65.13 89.0805 75.03 89.8905 79.02 94.4705C82.52 98.4905 79.67 105.19 93.7 108.45C101.36 110.23 110.87 106.58 112.15 98.6305C116.04 74.4605 122.4 68.4505 125.86 63.5505C134.38 51.4605 103.06 45.1205 88.65 47.0305C88.65 47.0305 77.48 46.6905 70.95 49.3905H70.94Z" stroke="black" stroke-width="1.25" stroke-linecap="round" stroke-linejoin="round"/>
<path d="M89.1301 64.8804C85.8001 65.3204 83.1501 67.9504 82.6101 71.3504C81.6501 77.3704 80.0601 84.6304 81.9401 86.8004C83.5901 88.7004 93.2501 91.2104 99.8601 92.7504C103.47 93.5904 107.96 91.8704 108.56 88.1204C110.4 76.7204 113.4 73.8804 115.03 71.5704C119.05 65.8704 104.28 62.8704 97.4801 63.7804L89.1301 64.8904V64.8804Z" stroke="black" stroke-linecap="round" stroke-linejoin="round"/>
</g>
<defs>
<clipPath id="clip0_1546_11">
<rect width="176.41" height="156.56" fill="white"/>
</clipPath>
</defs>
</svg>
