<svg width="129" height="96" viewBox="0 0 129 96" fill="none" xmlns="http://www.w3.org/2000/svg">
<g clip-path="url(#clip0_1546_2)">
<path d="M51.4999 12.0002C21.4999 12.4002 10.3332 22.8335 8.4999 28.0002C1.9999 35.2271 4.9999 68 10.9999 82C16.9999 96 31.4999 94.5 48.4999 82C62.0999 72 74.8332 72.5 79.4999 74C84.1666 78.8333 97.0999 88.7 111.5 89.5C129.5 90.5 123.5 83.5 115 74C106.5 64.5 116 40.5002 119.5 22.0002C122.3 7.20021 110.333 4.83354 104 5.50021C97 5.50021 81.4999 11.6002 51.4999 12.0002Z" fill="#D4AA7D" fill-opacity="0.8"/>
<path d="M2.1901 61.3902C5.9001 83.5602 6.6201 114.41 58.7601 79.5502C75.7901 68.1702 105.84 93.9602 118.25 91.5602C128.21 89.6302 130.73 79.5002 122.47 74.7302C110.71 67.9302 117.34 54.4702 120.2 41.1502C126.11 13.5802 132.3 -5.02978 89.9301 2.20022C47.5601 9.43022 -9.5699 -8.88978 2.1901 61.3902Z" stroke="black" stroke-width="1.25" stroke-linecap="round" stroke-linejoin="round"/>
<path d="M109.99 20.6001C104.18 8.56014 95.86 12.8201 70.99 16.6301C43.06 20.9001 9.22999 13.6701 16.98 60.0101C19.75 76.5401 21.33 94.4101 60.95 69.4701C72.14 62.4201 107.72 87.0601 114.15 80.8201C117.61 77.4601 107.34 76.8101 101.85 57.6001C99.43 49.1401 113.37 27.6101 109.99 20.6001Z" stroke="black" stroke-width="0.75" stroke-linecap="round" stroke-linejoin="round"/>
<path d="M31.7701 58.0904C33.5901 68.8004 32.4401 74.7004 61.4701 63.2504C72.9101 58.7404 100.16 73.9504 85.7801 46.9804C79.2601 34.7604 103.95 23.1304 74.9201 29.5004C54.3301 34.0204 26.0001 24.1504 31.7801 58.0904H31.7701Z" stroke="black" stroke-width="0.75" stroke-linecap="round" stroke-linejoin="round"/>
<path d="M58.1701 51.7804C70.5401 57.6304 84.8101 60.4604 77.5901 46.4204C74.3201 40.0604 86.7101 34.0004 72.1401 37.3204C61.8001 39.6704 41.4101 43.8604 58.1801 51.7804H58.1701Z" stroke="black" stroke-linecap="round" stroke-linejoin="round"/>
</g>
<defs>
<clipPath id="clip0_1546_2">
<rect width="128.05" height="95.89" fill="white"/>
</clipPath>
</defs>
</svg>
