<svg width="207" height="244" viewBox="0 0 207 244" fill="none" xmlns="http://www.w3.org/2000/svg">
<g clip-path="url(#clip0_1546_20)">
<g filter="url(#filter0_f_1546_20)">
<path d="M37.2576 42.4015C40.4444 33.2581 49.1212 27.0119 59.1423 26.5886C67.9884 26.2124 84.9096 15.8461 114.663 19.9663C150.31 24.8954 181.802 35.4122 180.984 52.0528C180.392 64.2534 165.746 70.6406 159.729 87.8174C150.498 114.175 150.028 151.802 137.14 174.501C112.924 217.18 90.5123 235.73 80.4254 225.034C70.8743 214.903 70.912 187.445 63.4196 174.106C52.0824 153.919 33.7041 147.635 19.5843 136.629C-0.786957 120.741 25.5067 101.561 32.9709 78.9939C36.4303 68.5335 34.5408 50.1432 37.2388 42.4015H37.2576Z" fill="#D88878" fill-opacity="0.64"/>
</g>
</g>
<defs>
<filter id="filter0_f_1546_20" x="-3" y="4" width="199" height="239" filterUnits="userSpaceOnUse" color-interpolation-filters="sRGB">
<feFlood flood-opacity="0" result="BackgroundImageFix"/>
<feBlend mode="normal" in="SourceGraphic" in2="BackgroundImageFix" result="shape"/>
<feGaussianBlur stdDeviation="7.5" result="effect1_foregroundBlur_1546_20"/>
</filter>
<clipPath id="clip0_1546_20">
<rect width="207" height="244" fill="white"/>
</clipPath>
</defs>
</svg>
