<svg width="181" height="224" viewBox="0 0 181 224" fill="none" xmlns="http://www.w3.org/2000/svg">
<g clip-path="url(#clip0_1546_20)">
<path d="M27.35 25.3699C30.74 15.6499 39.97 9.00987 50.63 8.55987C60.04 8.15987 78.04 -2.86013 109.69 1.51987C147.61 6.75987 181.11 17.9399 180.24 35.6299C179.61 48.5999 164.03 55.3899 157.63 73.6499C147.81 101.67 147.31 141.67 133.6 165.8C107.84 211.17 84 230.89 73.27 219.52C63.11 208.75 63.15 179.56 55.18 165.38C43.12 143.92 23.57 137.24 8.55 125.54C-13.12 108.65 14.85 88.2599 22.79 64.2699C26.47 53.1499 24.46 33.5999 27.33 25.3699H27.35Z" stroke="black" stroke-linecap="round" stroke-linejoin="round"/>
<path d="M37.63 32.9398C40.96 26.5198 48.38 16.6898 56.88 16.5298C70.45 16.2798 97.5 13.0498 120.38 15.2998C141.34 17.3598 158.5 29.9898 159.44 35.2598C160.36 40.4398 140.88 112.48 122.83 139.78C112.66 155.16 115.39 166.79 108.06 176.84C83.25 210.85 79.8 192.53 71.66 182.93C63.13 172.88 60.32 153.66 53.16 142.47C43.41 127.24 31.08 120.12 21.71 110.06C10 97.4898 24.09 83.4398 31.13 69.3098C32.2 67.1598 33.09 64.8798 33.75 62.5498C36.26 53.6198 34.72 38.5598 37.64 32.9398H37.63Z" fill="#C18A7F" fill-opacity="0.8" stroke="black" stroke-width="0.75" stroke-linecap="round" stroke-linejoin="round"/>
<path d="M42.7801 36.72C46.0301 31.96 52.2001 28.53 59.6201 28.52C83.2101 28.48 142.77 29.68 144.46 39.11C145.63 45.65 137.09 86.25 109.23 135.32C100.77 150.22 108.29 166.66 90.7001 181.37C83.8101 187.13 77.4501 171.77 73.7701 167.12C66.0801 157.41 64.2201 146.32 57.4301 136.63C48.9201 124.48 34.8201 111.59 28.2801 102.33C20.2201 90.91 31.7701 78.55 37.1601 67.48C38.0401 65.67 38.7301 63.72 39.2301 61.69C41.1701 53.86 39.8201 41.06 42.7901 36.72H42.7801Z" stroke="black" stroke-width="1.25" stroke-linecap="round" stroke-linejoin="round"/>
<path d="M47.9199 40.5097C51.0199 37.4097 56.2799 35.0597 62.6199 35.1797C83.8099 35.5897 131.3 43.4397 132.7 51.2797C133.71 56.9097 126.87 84.7997 102.88 127.05C87.2199 154.63 75.6699 154.1 70.0199 146.34C63.1799 136.95 57.5699 127.74 51.0999 119.57C43.8999 110.47 38.53 103.11 34.83 94.5997C30.38 84.3797 39.4 73.6397 43.16 65.6597C43.85 64.1997 44.34 62.5697 44.68 60.8497C46.04 54.1097 44.83 43.5997 47.91 40.5197L47.9199 40.5097Z" stroke="black" stroke-width="0.75" stroke-linecap="round" stroke-linejoin="round"/>
<path d="M53.07 44.2899C55.91 42.7799 60.36 41.53 65.62 41.83C84.39 42.87 120.43 48.9699 121.54 55.2199C122.38 59.9499 116.65 83.3299 96.53 118.77C83.4 141.9 73.65 134.84 69.21 128.04C63.27 118.94 56.32 114.71 50.09 108.11C44.31 101.99 42.2 94.65 41.41 86.86C40.5 77.88 47.04 68.7199 49.2 63.8199C49.69 62.7099 49.98 61.3899 50.17 59.9799C50.94 54.3399 49.78 46.0399 53.07 44.2899Z" stroke="black" stroke-width="0.75" stroke-linecap="round" stroke-linejoin="round"/>
<path d="M57.8099 64.5498C59.0399 61.0098 56.5799 52.4098 60.4599 52.2498C71.6899 51.7798 105.7 56.8898 106.62 62.0598C107.22 65.4398 103.13 82.1498 88.7499 107.48C79.3599 124.01 72.3699 111.98 69.4699 106.81C65.0799 98.9898 57.8399 99.4898 52.3699 95.2298C44.4799 89.0798 56.7699 67.5598 57.8099 64.5598V64.5498Z" stroke="black" stroke-width="1.25" stroke-linecap="round" stroke-linejoin="round"/>
</g>
<defs>
<clipPath id="clip0_1546_20">
<rect width="180.75" height="223.18" fill="white"/>
</clipPath>
</defs>
</svg>
