<svg width="340" height="117" viewBox="0 0 340 117" fill="none" xmlns="http://www.w3.org/2000/svg">
<g clip-path="url(#clip0_1546_28)">
<path d="M5.76999 50.59C205.21 48.8 166.59 18.4 243.3 20.26C307.38 21.81 289.73 -4.25002 312.88 1.26998C328.63 5.01998 338.46 38.14 339.08 46.43C340.22 61.63 330.5 119.38 300.15 107.58C262.17 92.81 200.96 108.17 148.83 112.66C130.77 114.22 113.69 95.52 80.43 100.1C54.77 103.63 47.86 112.11 22.16 115.49C17.55 116.09 -9.13001 111.69 4.16999 87.59C17.7 63.08 -6.76001 50.7 5.75999 50.59H5.76999Z" stroke="black" stroke-miterlimit="10"/>
<path d="M93.72 91.6602C71.44 88.9802 48.85 100.81 27.9 103.25C24.14 103.69 2.38997 100.51 13.24 83.0901C24.28 65.3701 4.33997 56.4301 14.54 56.3401C177.13 55.0101 165.86 40.8001 226.66 32.0301C256.92 27.6601 321.11 29.4801 322.35 44.3001C322.67 48.1501 300.1 54.7701 295.62 63.6701C287.34 80.1301 308.29 102.35 292.23 96.8201C250.54 82.4601 143.76 97.6901 93.71 91.6701L93.72 91.6602Z" fill="#D0C795" fill-opacity="0.8" stroke="black" stroke-width="0.75" stroke-miterlimit="10"/>
<path d="M23.35 62.0299C150.98 61.1499 157.36 55.0899 203.77 42.3999C242.15 31.9099 299.56 33.4899 300.53 42.6399C300.87 45.8799 281.76 46.3299 273.42 55.5999C264.32 65.7199 291.58 84.3999 273.48 81.6799C257.67 79.2999 223.14 80.1499 187.1 81.7499C145.8 83.5799 127.93 89.0299 95.97 84.9299C60.24 80.3499 65.2 96.4699 33.82 91.0099C30.92 90.5099 13.8 89.3199 22.32 78.5599C30.99 67.6099 15.34 62.0899 23.35 62.0299Z" stroke="black" stroke-width="1.25" stroke-miterlimit="10"/>
<path d="M68.34 69.3599C118.53 69.0399 158.65 65.6999 181.25 58.2799C203.87 50.8499 257.68 47.2399 258.42 51.1899C258.82 53.3399 269.06 68.2799 252.15 73.6199C246.06 75.5399 233.21 61.2599 202.65 68.3999C182.44 73.1199 128.95 78.4899 106.19 79.0399C95.9 79.9399 82.79 74.3699 73.52 77.6199C47.95 86.5699 32.83 84.6799 42.46 76.1499C47.87 71.3499 63.31 69.3999 68.34 69.3699V69.3599Z" stroke="black" stroke-miterlimit="10"/>
</g>
<defs>
<clipPath id="clip0_1546_28">
<rect width="339.68" height="116.04" fill="white"/>
</clipPath>
</defs>
</svg>
