<svg width="357" height="122" viewBox="0 0 357 122" fill="none" xmlns="http://www.w3.org/2000/svg">
<g clip-path="url(#clip0_1546_28)">
<g filter="url(#filter0_f_1546_28)">
<path d="M23.9576 53.9758C211.221 52.4043 174.959 25.7145 246.985 27.3475C307.152 28.7083 290.58 5.82884 312.317 10.6752C327.105 13.9675 336.335 43.0453 336.917 50.3236C337.987 63.6685 328.861 114.37 300.364 104.01C264.703 91.0431 207.23 104.528 158.283 108.47C141.326 109.84 125.288 93.4223 94.0592 97.4433C69.9659 100.543 63.4778 107.988 39.3469 110.955C35.0184 111.482 9.96736 107.619 22.4553 86.4601C35.1592 64.9415 12.1927 54.0724 23.9482 53.9758H23.9576Z" fill="#D0C795" fill-opacity="0.64"/>
</g>
</g>
<defs>
<filter id="filter0_f_1546_28" x="4" y="-5" width="348" height="131" filterUnits="userSpaceOnUse" color-interpolation-filters="sRGB">
<feFlood flood-opacity="0" result="BackgroundImageFix"/>
<feBlend mode="normal" in="SourceGraphic" in2="BackgroundImageFix" result="shape"/>
<feGaussianBlur stdDeviation="7.5" result="effect1_foregroundBlur_1546_28"/>
</filter>
<clipPath id="clip0_1546_28">
<rect width="357" height="122" fill="white"/>
</clipPath>
</defs>
</svg>
