<svg width="271" height="225" viewBox="0 0 271 225" fill="none" xmlns="http://www.w3.org/2000/svg">
<g clip-path="url(#clip0_1546_34)">
<g filter="url(#filter0_f_1546_34)">
<path d="M116.295 17.0388C73.4091 1.48567 78.3575 26.0842 66.2263 35.0143C21.5946 67.8796 16.2818 83.4231 18.382 91.1612C20.0602 97.3613 53.2223 145.549 72.4405 173.147C81.1962 185.729 94.296 193.814 108.671 195.457C130.268 197.928 170.92 215.519 195.173 213.894C218.083 212.356 200.965 195.159 219.407 187.171C302.446 151.192 237.896 109.617 223.693 95.7848C220.097 92.2762 159.182 32.5919 116.286 17.0484L116.295 17.0388Z" fill="#A98661" fill-opacity="0.64"/>
</g>
</g>
<defs>
<filter id="filter0_f_1546_34" x="3" y="-3" width="273" height="232" filterUnits="userSpaceOnUse" color-interpolation-filters="sRGB">
<feFlood flood-opacity="0" result="BackgroundImageFix"/>
<feBlend mode="normal" in="SourceGraphic" in2="BackgroundImageFix" result="shape"/>
<feGaussianBlur stdDeviation="7.5" result="effect1_foregroundBlur_1546_34"/>
</filter>
<clipPath id="clip0_1546_34">
<rect width="271" height="225" fill="white"/>
</clipPath>
</defs>
</svg>
