<svg width="255" height="212" viewBox="0 0 255 212" fill="none" xmlns="http://www.w3.org/2000/svg">
<g clip-path="url(#clip0_1546_34)">
<path d="M103 5.73992C58.28 -10.4401 63.44 15.1499 50.79 24.4399C4.25002 58.6299 -1.28998 74.7999 0.900022 82.8499C2.65002 89.2999 37.23 139.43 57.27 168.14C66.4 181.23 80.06 189.64 95.05 191.35C117.57 193.92 159.96 212.22 185.25 210.53C209.14 208.93 191.29 191.04 210.52 182.73C297.11 145.3 229.8 102.05 214.99 87.6599C211.24 84.0099 147.72 21.9199 102.99 5.74992L103 5.73992Z" stroke="black" stroke-miterlimit="10"/>
<path d="M56.4701 32.5399C13.7501 64.0399 12.1501 78.1799 15.2501 86.9099C17.6001 93.5399 47.2501 137.48 64.7301 162.81C72.7301 174.42 84.6801 181.92 98.0001 183.68C123.34 187.02 155.3 195.1 182.05 189.69C197.03 186.66 185.32 175.06 198.78 171.29C262.21 153.53 220.03 104.21 207.08 91.0599C203.74 87.6699 199.57 85.4799 195.95 82.5899C195.12 81.9299 152.43 47.6999 151.54 46.9799C151.36 46.8399 141.35 38.6199 141.13 38.4499C138.2 36.2099 134.51 35.2599 131.03 34.2299C130.55 33.6999 98.1401 24.9299 97.7201 24.5899C83.4601 20.0699 67.6701 24.2899 56.4701 32.5299V32.5399Z" fill="#A5917C" fill-opacity="0.8" stroke="black" stroke-miterlimit="10"/>
<path d="M65.6701 46.55C29.2201 73.67 35.6701 84.15 40.8801 94.65C44.5001 101.94 65.1201 134.69 77.9701 153.98C83.9101 162.98 92.7901 168.9 103.16 170.8C123.95 174.62 163.03 190.92 179.43 170.98C193.26 154.17 204.32 159.8 214.32 154.71C239.06 142.11 203.46 108.65 193.86 97.6C191.26 94.61 188.03 92.5 185.12 90.04C182.59 87.9 150.47 63.32 147.69 61.06C147.14 60.62 139.8 54.42 139.11 53.86C136.74 51.95 133.81 50.89 131.03 49.78C129.53 48.14 106.01 40.53 104.59 39.64C91.9101 31.78 74.2801 40.17 65.6701 46.54V46.55Z" stroke="black" stroke-miterlimit="10"/>
<path d="M73.5101 56.8399C42.1801 80.1999 52.3101 88.3499 58.3201 99.1199C62.3501 106.35 77.3801 131.64 87.1401 146.87C91.7401 154.05 98.5701 158.87 106.89 160.73C133.64 166.7 170.14 165.36 188.25 146.3C203.88 129.85 190.77 110.68 183.36 101.32C181.28 98.6899 178.69 96.7499 176.3 94.6299C173.11 91.8199 148.02 73.4799 144.45 70.5899C143.75 70.0199 138.14 65.1899 137.26 64.4599C135.3 62.8199 132.92 61.7699 130.64 60.6699C128.71 58.5599 110.9 52.0399 109.1 50.8499C97.3101 43.0299 80.3301 51.7599 73.5201 56.8399H73.5101Z" stroke="black" stroke-miterlimit="10"/>
<path d="M79.1901 64.9398C51.6701 85.6098 65.6601 91.7598 72.6801 103.19C77.2501 110.63 87.4101 129.7 94.6101 141.55C98.0801 147.26 103.2 151.21 109.85 153.07C132.34 159.36 162.46 155.7 177.66 139.7C189.39 127.36 181.04 112.79 175.45 104.73C173.79 102.34 171.74 100.5 169.74 98.6398C165.85 95.0198 146.54 82.0698 142.07 78.4498C141.19 77.7398 137.04 74.0598 135.96 73.1198C134.32 71.6798 132.19 70.8498 130.5 69.4798C127.73 67.2198 115.08 61.1598 112.89 59.5998C101.49 51.4898 84.5601 60.9098 79.1901 64.9398Z" stroke="black" stroke-miterlimit="10"/>
<path d="M84.8701 73.0299C61.1801 91.0299 78.9901 95.1699 87.0301 107.25C92.1301 114.91 97.4201 127.76 102.08 136.22C104.41 140.46 107.82 143.57 112.81 145.4C131.02 152.1 154.77 146.04 167.08 133.09C174.9 124.85 171.36 114.87 167.54 108.13C166.32 105.98 164.79 104.25 163.18 102.64C158.68 98.1199 145.06 90.6499 139.7 86.3099C138.65 85.4499 135.92 82.9499 134.66 81.7799C133.33 80.5399 131.73 79.5399 130.36 78.2799C127.21 75.3699 119.24 70.2899 116.67 68.3399C105.62 59.9299 88.7701 70.0599 84.8601 73.0299H84.8701Z" stroke="black" stroke-miterlimit="10"/>
<path d="M96.1099 85.7897C79.8299 98.3997 97.5599 100.13 105.01 110.57C112.15 120.58 109.03 128.16 116.81 132.26C128.16 138.25 142.51 131.15 150.23 123.03C153.45 119.64 154.54 115.18 152.8 110.76C149.66 102.76 140.9 101.69 134.5 96.4997C130.4 93.1797 124.84 85.8797 120.66 82.4697C111.85 75.2897 98.1199 84.2197 96.0999 85.7897H96.1099Z" stroke="black" stroke-miterlimit="10"/>
</g>
<defs>
<clipPath id="clip0_1546_34">
<rect width="254.39" height="211.14" fill="white"/>
</clipPath>
</defs>
</svg>
