<svg width="322" height="357" viewBox="0 0 322 357" fill="none" xmlns="http://www.w3.org/2000/svg">
<g clip-path="url(#clip0_1546_69)">
<path d="M267.105 309.452L266.751 309.771C245.192 332.571 227.636 343.387 197.273 352.577C194.913 353.32 182.04 357 163.157 357C151.12 357 139.32 355.473 128.054 352.457C109.707 347.552 87.7143 333.936 56.6942 308.303C42.5723 296.702 28.5468 279.657 18.1953 261.601C6.49183 241.095 -0.254347 211.356 0.385525 194.059C3.81194 101.291 24.4495 53.0513 72.9628 21.365C95.9707 6.30769 125.677 0 154.134 0C185.711 0 212.541 10.1253 237.688 24.481C245.05 28.6632 259.492 36.2056 273.198 53.9558C280.274 63.1835 285.693 71.5238 288.864 80.1668C290.113 83.527 288.221 86.87 284.733 86.3851C278.84 85.5631 268.746 85.3842 263.796 88.3351C258.257 91.6369 254.848 95.3135 248.326 104.039C245.112 108.3 244.517 108.923 244.318 109.126C239.739 113.989 234.599 114.955 227.282 114.955C225.197 114.955 222.758 114.876 219.586 114.735C216.752 114.591 213.377 114.453 209.689 114.453C197.948 114.453 181.923 115.881 162.049 126.938C158.974 128.668 155.224 128.606 152.231 126.838C149.992 125.49 147.429 123.781 146.042 122.876C139.32 118.395 126.764 114.532 121.07 114.412L119.684 114.371C119.106 114.353 118.452 114.333 117.719 114.333C106.415 114.333 94.6118 121.136 86.2419 128.916C75.3709 139.048 63.0207 160.296 60.4509 201.199C59.1746 221.498 76.4752 248.896 110.557 256.7C123.017 259.551 152.575 264.913 158.245 264.913C166.119 264.913 168.95 270.876 172.752 276.242C176.873 282.061 185.092 286.167 191.167 285.913C207.639 285.225 214.141 282.955 232.79 237.993C238.287 224.738 242.023 210.757 239.113 204.467C233.467 192.264 221.282 177.843 197.727 200.721C191.649 206.623 180.516 213.526 158.444 214.551C143.321 215.252 134.566 212.281 130.004 210.028C124.294 207.177 120.485 203.789 119.116 198.747C117.307 192.078 119.147 187.067 123.093 182.194C135.97 166.28 186.994 157.733 218.51 157.733C222.634 157.733 233.392 158.225 236.815 157.943C253.448 156.581 266.108 151.715 279.555 145.242C279.555 145.242 300.651 133.153 307.342 136.53C312.588 139.182 315.134 143.612 317.036 147.003C319.699 151.749 320.855 158.304 321.649 164.698C327.721 213.392 292.573 286.549 267.105 309.452Z" fill="white" fill-opacity="0.6"/>
<path d="M120.984 52.381C122.102 53.9218 122.325 57.3439 126.636 57.3439C129.316 57.3439 130.881 55.3767 131.693 53.8462C132.25 52.7937 133.121 51.9649 134.025 51.1876C134.958 50.3862 135.58 49.1962 135.711 47.8583L137.311 31.5663C137.655 28.0548 134.59 25.3068 131.5 26.3592L114.169 32.2645C111.155 33.2894 110.03 37.2962 111.988 39.9926L120.984 52.381Z" stroke="black" stroke-width="1.25" stroke-linejoin="round"/>
<path d="M117.956 40.6458C118.517 42.2623 120.547 44.1814 122.195 49.4917C123.667 54.2414 126.416 51.146 127.396 50.1692C129.574 47.9921 131.91 48.4977 132.071 47.8236C132.87 47.1082 133.255 45.7394 132.839 44.3293C132.656 43.7102 132.484 41.3233 132.45 40.859C132.347 39.4524 133.688 32.5325 133.688 32.5325C133.867 30.7268 131.469 29.6125 128.734 29.898C126.657 30.1146 117.516 32.8661 116.955 34.2968C115.301 36.0096 117.004 37.8875 117.956 40.6458Z" stroke="black" stroke-width="0.75" stroke-linejoin="round"/>
<path d="M129.278 39.6551C129.14 37.7875 130.358 34.3345 130.358 34.3345C130.506 32.8281 121.028 33.0241 119.735 36.3258C119.047 38.0833 121.586 38.6852 122.153 40.8829C122.724 43.0806 121.868 46.1623 123.34 46.7022C125.518 47.5036 130.21 46.2242 130.658 44.3635C130.96 43.1013 129.374 40.9964 129.278 39.6551Z" stroke="black" stroke-width="0.75" stroke-linejoin="round"/>
<path d="M186.674 105.941C180.719 113.006 179.783 118.759 179.783 120.29C179.783 122.085 203.868 122.611 211.608 115.255C219.349 107.898 217.711 104.686 208.557 104.686C203.407 104.686 198.257 103.888 194.738 103.19C191.717 102.591 188.604 103.654 186.674 105.941Z" stroke="black"/>
<path d="M189.873 107.692C185.577 112.789 184.902 116.94 184.902 118.044C184.902 119.341 202.279 119.719 207.862 114.412C213.445 109.105 212.265 106.787 205.66 106.787C201.945 106.787 198.23 106.213 195.691 105.707C193.513 105.274 191.267 106.041 189.873 107.692Z" stroke="black" stroke-width="0.75"/>
<path d="M193.073 109.446C190.434 112.576 190.021 115.124 190.021 115.802C190.021 116.596 200.689 116.83 204.119 113.57C207.549 110.313 206.823 108.889 202.767 108.889C200.486 108.889 198.202 108.535 196.644 108.225C195.306 107.96 193.926 108.431 193.073 109.446Z" stroke="black" stroke-width="1.25"/>
<path d="M192.357 42.0078C176.347 53.7633 174.441 59.3281 175.191 62.0933C175.793 64.3117 187.689 81.5529 194.583 91.4272C197.724 95.9292 202.423 98.8217 207.58 99.4098C215.327 100.294 229.91 106.588 238.61 106.006C246.829 105.456 240.688 99.3032 247.304 96.4451C277.092 83.5718 253.936 68.6968 248.841 63.7476C247.551 62.4923 225.703 41.1376 210.315 35.5763C194.93 30.0115 196.709 38.8127 192.357 42.0078Z" stroke="black" stroke-linejoin="round"/>
<path d="M180.131 63.4934C180.939 65.7736 191.139 80.8859 197.153 89.5977C199.905 93.5907 204.016 96.1702 208.598 96.7755C217.316 97.9243 228.31 100.703 237.513 98.8425C242.666 97.8004 238.638 93.8108 243.268 92.5142C265.089 86.406 250.579 69.4434 246.124 64.9207C244.975 63.7547 243.54 63.0015 242.295 62.0076C242.009 61.7806 227.323 50.0078 227.017 49.7602C226.955 49.7121 223.511 46.8849 223.436 46.8265C222.428 46.0561 221.158 45.7293 219.961 45.3751C219.796 45.1928 208.646 42.1765 208.502 42.0596C203.596 40.505 198.164 41.9599 194.311 44.7938C179.611 55.6242 179.064 60.4874 180.131 63.4934Z" stroke="black" stroke-width="0.75" stroke-linejoin="round"/>
<path d="M188.948 66.1546C190.193 68.6619 197.287 79.9256 201.707 86.56C203.751 89.6554 206.806 91.6915 210.373 92.3449C217.525 93.6588 230.97 99.2648 236.611 92.4068C241.369 86.6254 245.174 88.5617 248.614 86.8111C257.125 82.4776 244.878 70.9697 241.576 67.1692C240.681 66.1409 239.57 65.4152 238.569 64.5691C237.699 63.8331 226.649 55.3793 225.692 54.602C225.503 54.4507 222.978 52.3183 222.741 52.1257C221.925 51.4688 220.917 51.1042 219.961 50.7225C219.445 50.1584 211.354 47.5411 210.865 47.235C206.503 44.5317 200.438 47.4207 197.476 49.6116C184.937 58.939 187.156 62.5434 188.948 66.1546Z" stroke="black" stroke-width="1.25" stroke-linejoin="round"/>
<path d="M194.948 67.6925C196.334 70.1791 201.505 78.8771 204.862 84.1152C206.445 86.5846 208.794 88.2423 211.657 88.8821C220.859 90.9353 233.416 90.4745 239.646 83.9191C245.023 78.2615 240.513 71.6683 237.964 68.4491C237.248 67.5446 236.357 66.8774 235.535 66.1482C234.437 65.1818 225.806 58.8741 224.578 57.8802C224.337 57.6841 222.407 56.0229 222.104 55.7719C221.43 55.2078 220.611 54.8467 219.827 54.4684C219.163 53.7427 213.036 51.5002 212.417 51.091C208.361 48.4014 202.516 51.4039 200.173 53.1511C189.395 61.1853 192.88 63.9884 194.948 67.6925Z" stroke="black" stroke-width="0.75" stroke-linejoin="round"/>
<path d="M199.888 69.0921C201.46 71.6509 204.955 78.2097 207.432 82.2852C208.626 84.2491 210.387 85.6076 212.675 86.2473C220.412 88.4107 230.774 87.1519 236.003 81.649C240.038 77.4049 237.166 72.3938 235.243 69.6217C234.671 68.7997 233.966 68.1669 233.278 67.5272C231.94 66.2822 225.297 61.8283 223.759 60.5832C223.457 60.339 222.029 59.0734 221.657 58.7501C221.093 58.2548 220.36 57.9694 219.779 57.4982C218.826 56.7209 214.474 54.6367 213.721 54.1001C209.799 51.3109 203.975 54.5507 202.127 55.9367C192.66 63.0458 197.473 65.1609 199.888 69.0921Z" stroke="black" stroke-width="0.75" stroke-linejoin="round"/>
<path d="M204.824 70.4917C206.579 73.1262 208.399 77.5457 210.002 80.4554C210.803 81.9136 211.976 82.9832 213.693 83.6126C219.957 85.917 228.128 83.8328 232.363 79.3789C235.053 76.5449 233.835 73.1124 232.521 70.7943C232.101 70.0549 231.575 69.4599 231.021 68.9062C229.473 67.3516 224.787 64.7824 222.944 63.2898C222.582 62.994 221.643 62.1342 221.21 61.7318C220.752 61.3053 220.202 60.9614 219.73 60.528C218.647 59.5272 215.905 57.78 215.021 57.1093C211.219 54.2169 205.426 57.7009 204.081 58.7224C195.931 64.9131 202.058 66.337 204.824 70.4917Z" stroke="black" stroke-width="0.75" stroke-linejoin="round"/>
<path d="M211.006 71.6304C213.463 75.0731 212.389 77.6801 215.066 79.0902C218.97 81.1504 223.907 78.7085 226.563 75.9157C227.67 74.7498 228.045 73.2159 227.447 71.6957C226.367 68.9443 223.353 68.5763 221.151 66.7913C219.741 65.6494 217.828 63.1387 216.39 61.9659C213.359 59.4965 208.639 62.5678 207.945 63.1078C202.344 67.4447 208.443 68.0397 211.006 71.6304Z" stroke="black" stroke-linejoin="round"/>
<path d="M109.064 60.2019C110.278 62.6438 110.756 67.1837 109.483 69.5946C109.483 69.5946 91.271 96.5553 89.8571 105.46C89.2688 109.174 89.716 114.12 89.716 114.12C86.1486 121.58 83.768 112.713 71.779 115.63C66.0889 117.016 50.2332 120.692 50.2332 120.692C47.0682 121.415 43.7657 120.259 41.7428 117.721L39.8301 115.32C38.0309 113.061 37.5011 110.037 38.4506 107.307C40.5835 101.157 45.1933 89.4979 52.944 77.5704C58.9471 68.3289 65.5557 56.3017 81.0227 50.0318C84.659 48.5598 85.3057 43.9339 88.6152 42.3037C99.8783 36.7664 105.634 53.3129 109.064 60.2019Z" stroke="black" stroke-linejoin="round"/>
<path d="M106.119 68.4453C105.981 68.9715 105.809 69.5803 105.396 70.1134C105.087 70.5158 94.4463 88.4517 94.1952 88.9092C93.8718 89.4973 86.1761 106.02 85.9869 106.398C85.0546 108.279 83.2898 109.621 81.2223 110.174C80.8714 110.446 54.9875 116.289 54.3545 116.437C51.599 117.084 59.8003 110.247 47.1543 112.489C44.6808 112.926 42.7199 108.001 43.4114 105.456C43.893 103.698 44.6326 101.466 45.6681 98.9313C48.1175 92.9056 51.6918 85.6659 56.5872 78.3918C63.3093 68.4006 68.2253 59.7198 81.2911 54.7431C87.0568 52.5488 85.3264 51.1834 88.5189 47.9883C96.2489 40.2602 102.62 57.1953 105.617 63.2141C106.432 64.8547 106.576 66.7119 106.119 68.4453Z" stroke="black" stroke-linejoin="round"/>
<path d="M102.538 70.8772C102.428 71.2693 102.238 71.7955 101.829 72.2977C101.189 73.0818 91.7631 87.8502 91.2609 88.7616C90.6141 89.9344 85.2887 102.749 84.9138 103.513C84.1466 105.071 82.5848 105.934 80.9748 106.784C80.187 107.2 59.7489 111.881 58.4829 112.176C56.1298 112.73 57.7295 108.091 50.4914 109.535C48.3585 109.961 47.9457 105.962 48.3826 103.599C48.6819 101.979 49.277 99.9394 50.1956 97.6557C52.5177 91.8639 55.803 85.508 60.2374 79.2107C66.0823 70.9082 67.1246 66.8567 77.6756 61.1887C77.8924 61.0718 88.9422 53.7804 89.1624 53.6669C93.3112 51.5518 93.1254 55.7408 95.0175 58.764C96.9131 61.7871 101.526 61.6874 102.806 64.2634C103.532 65.7251 102.971 69.3433 102.538 70.8772Z" stroke="black" stroke-linejoin="round"/>
<path d="M98.9599 73.3118C98.8807 73.5697 98.6743 74.01 98.2615 74.488C97.2673 75.6367 89.0797 87.2547 88.3263 88.6201C87.3562 90.3811 84.3976 99.4883 83.8369 100.634C83.2314 101.872 82.0342 102.646 80.7201 103.399C79.5607 104.066 64.5065 107.474 62.6076 107.925C60.6604 108.386 59.0126 107.904 55.8201 106.649C54.0415 105.951 53.1677 103.932 53.3466 101.751C53.4705 100.269 53.9108 98.4187 54.7192 96.3895C56.9106 90.8316 59.9036 85.3528 63.8839 80.0425C68.8411 73.4218 75.3706 66.9009 84.0811 62.0343C84.26 61.9345 84.4354 61.8382 84.6143 61.7454C91.4328 58.1754 96.593 64.9543 98.7259 69.2362C99.3624 70.5191 99.3692 71.9704 98.9599 73.3118Z" stroke="black" stroke-linejoin="round"/>
<path d="M95.3823 75.7436C95.3375 75.8709 95.1139 76.2182 94.6942 76.6722C93.3216 78.1649 86.3965 86.6496 85.392 88.4725C84.0985 90.8215 83.4999 96.2178 82.7603 97.7483C82.3199 98.6666 81.4874 99.3476 80.4657 100.008C78.9692 100.978 69.2645 103.059 66.7325 103.664C65.1879 104.032 61.555 103.764 61.1525 103.753C59.4084 103.702 58.3935 101.893 58.3178 99.8944C58.2662 98.5531 58.5552 96.8885 59.2467 95.1138C61.3108 89.7897 63.9941 85.1811 67.5341 80.8613C71.5866 75.9121 76.7847 71.214 83.6513 67.1488C83.7889 67.0662 83.9265 66.9906 84.0641 66.9149C89.3998 63.9984 93.583 68.834 95.2825 72.2458C95.8295 73.3464 95.771 74.5914 95.3823 75.7436Z" stroke="black" stroke-linejoin="round"/>
<path d="M93.2113 72.4941C93.6448 73.3608 93.631 74.3823 93.1769 75.2387C93.1769 75.2387 84.3426 84.7965 82.9149 88.9615C81.5767 92.8686 82.447 96.1291 79.4954 98.4231C78.2913 99.3586 76.0896 98.9114 74.5863 97.5564C71.8066 95.0491 67.7954 98.0654 66.7633 98.6225C63.0926 100.614 62.9069 98.7842 64.5134 94.571C66.3367 89.7835 68.5453 86.2445 71.4798 83.1353C74.4142 80.0262 80.3864 72.7521 85.1097 69.6842C88.8526 67.2561 91.9935 70.0453 93.2113 72.4941Z" stroke="black" stroke-linejoin="round"/>
<path d="M131.363 61.2713C132.605 60.5318 134.173 61.5155 133.995 62.9221C132.563 74.1996 128.16 109.14 128.16 112.276C128.16 115.413 117.01 119.85 113.673 121.091C113.102 121.304 112.452 121.211 111.977 120.857L100.584 112.293C99.93 111.802 99.7201 110.925 100.085 110.202L119.333 71.9916C120.998 68.683 123.671 65.8593 127.045 63.8473L131.363 61.2713Z" stroke="black" stroke-width="0.75" stroke-linejoin="round"/>
<path d="M131.37 68.3393C130.169 77.6598 126.932 105.205 126.478 109.16C126.12 112.266 117.757 115.551 114.709 116.321C114.248 116.438 113.791 116.307 113.35 116.108C112.724 115.829 104.512 109.694 104.402 108.837C103.952 108.4 103.807 107.709 104.048 107.111C104.041 106.165 106.122 101.542 113.285 92.7377C116.271 89.068 116.137 85.2504 117.733 81.0303C119.728 75.7441 123.169 70.3788 124.41 70.1896C130.651 69.2232 126.364 67.1218 129.285 64.8037C132.103 62.5681 131.545 66.9945 131.37 68.3393Z" stroke="black" stroke-width="1.25" stroke-linejoin="round"/>
<path d="M124.803 106.04C124.173 109.06 118.597 111.275 115.772 111.54C115.418 111.574 115.064 111.488 114.726 111.358C113.443 110.862 108.445 107.093 108.224 105.38C107.977 105.002 107.956 104.5 108.015 104.022C108.5 100.077 115.683 95.1688 117.2 91.7226C118.961 87.7296 120.853 75.2758 123.764 75.8571C127.438 76.5931 128.869 69.8142 129.165 70.11C129.798 70.0859 125.797 101.27 124.803 106.04Z" stroke="black" stroke-width="0.75" stroke-linejoin="round"/>
<path d="M123.275 102.925C121.755 108.493 113.687 109.394 112.948 103.272C112.212 97.1505 116.041 99.9604 118.621 94.7258C121.201 89.4912 125.945 75.1149 125.429 79.1733C124.741 84.5833 124.796 97.3569 123.275 102.925Z" stroke="black" stroke-linejoin="round"/>
<path d="M130.434 328.781C135.364 328.781 128.036 280.713 122.952 265.174C122.006 262.282 108.751 269.8 104.812 272.108C95.8296 277.367 87.4872 282.268 81.6079 290.945C73.2449 303.296 124.466 328.781 130.434 328.781Z" stroke="black" stroke-linejoin="round"/>
<path d="M86.7577 292.272C81.3979 300.682 102.503 315.646 120.299 321.304C124.589 322.669 124.627 326.043 128.315 324.991C132.546 323.783 126.093 281.848 120.743 269.129C119.708 266.67 109.167 273.814 105.802 276.073C98.5987 280.912 91.6014 284.675 86.7577 292.272Z" stroke="black" stroke-width="1.25" stroke-linejoin="round"/>
<path d="M88.9561 292.651C86.4791 296.537 89.2106 300.08 95.7435 305.503C101.946 310.652 110.203 317.441 118.005 317.441C123.217 317.441 123.361 322.043 126.244 320.884C130.217 319.288 123.747 282.928 118.008 273.091C116.808 271.035 108.224 277.817 105.204 280.042C99.2422 284.427 93.1084 286.137 88.9561 292.651Z" stroke="black" stroke-width="0.75" stroke-linejoin="round"/>
<path d="M94.7218 295.323C90.315 302.054 114.183 317.73 119.618 313.156C123.11 310.219 119.495 285.143 114.647 279.908C112.666 278.935 108.194 284.733 105.785 286.948C102.104 290.336 97.6012 290.927 94.7218 295.323Z" stroke="black" stroke-width="1.25" stroke-linejoin="round"/>
<path d="M98.6539 296.672C95.3204 301.91 112.074 315.055 117.121 309.273C120.22 305.724 117.86 285.941 112.9 284.049C110.829 283.258 108.438 288.799 106.508 291.021C104.107 293.779 100.735 293.404 98.6539 296.672Z" stroke="black" stroke-width="0.75" stroke-linejoin="round"/>
<path d="M113.605 305.445C116.113 302.257 114.434 292.101 110.405 292.101C108.29 292.101 107.952 295.657 106.683 297.411C105.513 299.024 103.477 298.04 102.256 299.701C100.133 302.601 109.394 310.8 113.605 305.445Z" stroke="black" stroke-linejoin="round"/>
<path d="M69.8148 228.377C72.1713 231.606 76.2926 236.999 80.9266 241.928C85.5605 246.853 90.7035 251.314 95.1069 252.672C100.735 254.409 97.1917 257.938 91.6496 261.339C86.104 264.741 78.5563 268.018 76.1722 269.25C74.4522 270.14 71.129 264.744 67.4514 257.618C63.7739 250.492 59.742 241.635 56.6011 235.603C54.998 232.521 56.5254 228.693 59.7282 227.768L64.3346 226.434C66.3609 225.849 68.5282 226.616 69.8148 228.377Z" stroke="black" stroke-linejoin="round"/>
<path d="M78.7971 244.528C81.0882 248.246 84.7589 250.918 87.6486 251.978C91.4363 253.377 89.5338 256.535 86.0386 259.32C82.5434 262.106 77.4554 264.338 74.8753 264.431C73.4682 264.479 72.1954 260.39 70.2138 255.496C69.9214 254.77 69.6118 254.034 69.2712 253.298C67.8264 250.168 66.2267 246.261 64.6029 242.943C56.0541 225.495 63.3473 231.981 66.151 234.066C68.707 235.964 70.8847 231.693 78.7971 244.528Z" stroke="black" stroke-width="1.25" stroke-linejoin="round"/>
<path d="M73.8913 242.732C75.4634 245.088 78.0642 249.539 81.0193 250.756C83.0971 251.613 82.76 254.288 81.2498 256.452C79.7395 258.615 77.0562 260.262 74.4486 259.062C73.217 258.495 74.0736 254.804 72.7766 252.156C72.1024 250.78 70.8054 248.572 70.0555 246.426C69.3055 244.28 69.1025 242.203 70.6197 241.078C71.8719 240.149 73.4612 242.093 73.8913 242.732Z" stroke="black" stroke-width="0.75" stroke-linejoin="round"/>
<path d="M46.6489 230.165C48.1867 230.165 49.5421 231.252 49.9859 232.848C51.2002 237.216 53.7425 246.206 56.3605 254.519C58.9785 262.828 61.6721 270.46 63.1858 272.101C64.8784 273.934 64.3039 276.627 63.2168 278.972C62.0368 281.517 58.7377 281.717 57.2481 279.368L43.5115 257.724L29.7749 236.081C28.1855 233.573 29.8402 230.165 32.6474 230.165H46.6489Z" stroke="black" stroke-width="0.75" stroke-linejoin="round"/>
<path d="M48.4962 237.828C49.8929 241.322 52.1531 249.601 54.0074 253.993C55.8823 258.436 57.0588 264.335 58.1837 266.147C59.1332 267.678 59.0059 269.459 58.3661 270.721C57.5129 272.4 55.6105 272.568 54.4684 270.807C54.2516 270.474 51.3275 265.7 51.0179 264.902C50.7427 264.194 46.1466 257.03 45.5067 256.214C45.1111 255.712 41.8808 250.739 41.4955 250.23C40.8866 249.429 36.5519 242.461 36.2561 241.752C35.4993 239.953 32.9398 235.41 34.1473 234.358C35.8777 232.851 46.2911 232.322 48.4962 237.828Z" stroke="black" stroke-linejoin="round"/>
<path d="M48.5031 245.453C49.4457 248.393 49.7966 253.759 50.9181 254.409C52.8653 255.54 54.9122 261.745 54.4134 262.429C53.4776 263.709 52.6417 263.461 50.87 258.887C49.9824 256.6 47.5055 253.882 45.4758 251.214C43.4461 248.545 41.8636 245.92 42.7649 243.809C44.571 239.589 46.9963 242.457 46.9963 242.457C46.9963 242.457 48.3311 244.916 48.5031 245.453Z" stroke="black" stroke-width="1.25" stroke-linejoin="round"/>
<path d="M61.4897 198.985C64.0732 199.25 66.0135 201.134 66.0135 203.377V206.544C66.0135 208.539 64.462 210.29 62.2259 210.813L43.7659 215.139C42.9403 215.332 42.0733 215.346 41.2408 215.177L26.5547 212.199C24.6695 211.817 23.1937 210.551 22.7396 208.931L20.6067 201.317C19.7913 198.411 22.485 195.659 25.9458 195.865C36.7548 196.512 53.5085 198.166 61.4897 198.985Z" stroke="black" stroke-linejoin="round"/>
<path d="M57.3475 201.155C59.4013 201.533 60.9287 202.768 61.2796 204.157C61.572 204.384 61.72 206.186 61.72 206.389C61.72 207.744 59.6386 209.64 56.5253 210.413C54.2101 210.988 51.6884 211.084 49.325 211.311C42.4412 211.975 46.1566 212.054 33.8752 208.436C32.3684 207.992 26.9157 211.235 25.808 207.786C24.9376 205.072 23.7164 201.543 24.2255 201.141C24.5661 199.101 27.9994 198.335 30.1495 198.424C39.9058 198.819 51.4614 200.068 57.3475 201.155Z" stroke="black" stroke-width="0.75" stroke-linejoin="round"/>
<path d="M55.3487 206.141C55.3487 206.757 53.1126 208.521 49.6896 209.381C46.7345 210.124 43.456 206.313 42.596 206.072C38.5297 204.934 31.9624 207.785 31.4223 205.199C31.0061 203.204 34.3533 201.639 35.5677 201.636C48.5096 201.632 55.3487 204.346 55.3487 206.141Z" stroke="black" stroke-width="1.25" stroke-linejoin="round"/>
<path d="M149.259 28.6874C148.908 29.2446 148.708 37.0793 148.622 37.7534C148.564 38.2315 148.574 45.8117 148.598 46.1866C148.732 48.3602 149.871 50.1934 151.581 50.668C151.684 50.7609 158.399 52.422 159.194 52.5459C160.515 52.7522 161.805 52.5459 162.724 51.7548C164.155 50.5235 166.656 48.4462 169.336 46.1487C171.438 44.3362 173.57 42.3862 175.17 40.7834C178.215 37.7431 178.548 35.2358 183.055 33.4336C184.782 32.7423 184.858 30.3107 183.199 29.4681C180.165 27.9239 175.112 26.359 171.513 25.3169C168.214 24.3745 164.537 23.7142 161.024 23.6179C157.47 23.525 154.078 23.9893 151.447 25.365C150.239 25.9979 149.427 27.2773 149.259 28.6874Z" stroke="black" stroke-linejoin="round"/>
<path d="M152.351 29.9634C151.801 31.1603 151.251 36.0579 151.079 37.4095C150.958 38.3622 150.972 42.8402 151.03 43.59C151.161 45.2959 151.873 46.6785 152.919 47.0877C153.126 47.2769 157.986 48.6905 159.576 48.9106C160.811 49.0825 161.963 48.945 162.672 48.3018C163.904 47.184 166.308 45.1824 168.709 43.0672C170.825 41.1928 172.807 39.2117 173.794 37.9014C179.429 30.4312 171.028 28.0546 167.299 27.04C165.111 26.445 162.741 26.0667 160.512 26.0358C158.203 26.0082 156.036 26.3384 154.388 27.2842C153.404 27.8517 152.837 28.9076 152.351 29.9634Z" stroke="black" stroke-width="0.75" stroke-linejoin="round"/>
<path d="M162.617 44.8556C163.642 43.841 165.958 41.9254 168.084 39.9925C170.21 38.0596 172.146 36.1095 172.418 35.0261C172.821 33.4096 170.02 31.2704 166.635 29.8775C163.247 28.4845 159.273 27.8345 157.326 29.2034C155.045 30.8095 153.913 34.0562 153.535 37.0691C153.157 40.0819 153.528 42.854 154.254 43.5143C154.712 43.9305 161.09 46.3655 162.617 44.8556Z" stroke="black" stroke-width="1.25" stroke-linejoin="round"/>
<path d="M146.706 26.7953C146.252 27.5141 145.994 37.636 145.884 38.5061C145.805 39.1218 145.822 48.9169 145.853 49.4019C146.025 52.2083 147.498 54.578 149.706 55.1902C149.84 55.3106 158.513 57.4567 159.538 57.6184C161.244 57.8866 162.913 57.6184 164.1 56.5969C165.947 55.0079 169.177 52.3218 172.638 49.3571C175.353 47.015 178.108 44.494 180.176 42.4269C184.108 38.4993 184.541 35.2629 190.359 32.9345C192.588 32.0437 192.688 28.9036 190.548 27.8133C186.626 25.8185 180.1 23.7997 175.449 22.4515C171.187 21.2339 166.436 20.381 161.898 20.2572C157.309 20.1368 152.933 20.7284 149.534 22.5065C147.976 23.3216 146.926 24.9759 146.706 26.7953Z" stroke="black" stroke-width="0.75" stroke-linejoin="round"/>
<path d="M158.86 62.6369C160.691 63.0186 166.831 62.8845 166.945 67.0289C167.196 76.4629 179.732 97.9551 179.732 97.9551C181.858 99.6541 181.59 102.148 180.028 103.957C174.603 110.237 169.539 119.599 166.511 125.724C164.915 128.957 160.622 130.137 157.385 128.238L144.099 120.452C142.151 119.31 141.023 117.274 141.154 115.138L144.119 66.5818C144.339 62.9499 148.01 60.3669 151.825 61.1649L158.86 62.6369Z" stroke="black" stroke-width="0.75" stroke-linejoin="round"/>
<path d="M154.202 66.5682C157.673 66.2586 159.043 67.4934 159.459 67.6137C162.851 68.5974 163.656 72.1674 164.832 75.0736C166.566 79.3555 168.582 83.6684 170.963 87.6821C172.191 89.7491 173.519 91.7542 174.967 93.6734C176.309 95.4549 177.124 97.9072 176.085 100.057C175.948 100.346 175.796 100.638 175.624 100.941C174.902 102.21 173.908 103.403 173.065 104.676C172.119 106.1 171.235 107.603 170.385 109.099C168.541 112.349 166.917 115.637 165.606 118.478C164.406 121.078 162.366 127.1 159.934 125.576C159.934 125.576 158.912 121.607 154.457 118.835C152.565 117.656 148.089 119.626 146.004 117.429C141.983 113.188 146.252 103.654 146.672 96.6862C147.466 83.4793 148.622 73.9008 148.767 71.2766C148.942 68.164 151.275 66.8296 154.202 66.5682Z" stroke="black" stroke-width="1.25" stroke-linejoin="round"/>
<path d="M155.045 74.795C155.22 74.7778 155.812 74.8741 156.012 74.8913C156.631 74.936 158.623 75.3178 159.228 75.4863C160.274 75.7821 161.172 76.3633 161.901 77.1234C162.737 77.997 163.659 81.9281 164.227 82.9634C164.956 84.2978 167.426 88.762 168.162 90.0931C168.716 91.0905 171.561 94.0895 172.112 95.0904C172.817 96.3732 173.398 97.8108 173.006 99.1659C172.937 99.4067 172.848 99.6509 172.731 99.8985C172.235 100.947 171.331 101.831 170.629 102.794C169.831 103.888 169.101 105.051 168.393 106.206C166.893 108.648 165.558 111.148 164.416 113.456C163.456 115.396 160.883 116.101 158.943 114.963L150.975 110.292C149.806 109.608 149.131 108.387 149.207 107.104C149.541 101.622 150.621 84.0089 150.941 78.5232C151.085 76.0848 152.692 75.0186 155.045 74.795Z" stroke="black" stroke-width="0.75" stroke-linejoin="round"/>
<path d="M160.512 81.2986C161.705 82.3889 162.352 83.9194 163.109 85.302C164.083 87.0801 165.07 88.8513 166.05 90.626C166.79 91.9536 167.526 93.288 168.256 94.619C168.916 95.8262 171.008 96.7617 170.564 98.2303C170.278 99.1727 169.439 99.8537 168.858 100.621C168.183 101.511 167.592 102.468 167 103.413C165.799 105.339 164.719 107.338 163.715 109.367C162.968 110.873 160.966 111.423 159.459 110.54L153.263 106.908C152.355 106.375 151.829 105.425 151.891 104.428C152.338 97.1194 152.789 89.8109 153.219 82.4989C153.353 80.2049 154.478 79.1766 156.862 79.3485C158.499 79.4689 159.27 80.1671 160.512 81.2986Z" stroke="black" stroke-width="0.75" stroke-linejoin="round"/>
<path d="M161.926 89.1335C162.435 90.179 162.927 91.2521 163.622 92.1979C164.292 93.1093 165.558 93.6527 166.085 94.6088C166.484 95.338 167.151 96.1221 166.883 97.0095C166.711 97.577 166.205 97.9897 165.854 98.4506C165.448 98.9905 165.091 99.5649 164.733 100.136C164.007 101.298 163.357 102.506 162.751 103.73C162.301 104.641 161.093 104.971 160.181 104.438L156.442 102.248C155.895 101.928 155.575 101.353 155.613 100.751C155.881 96.3388 156.156 91.9262 156.414 87.5136C156.497 86.1275 157.175 85.5084 158.613 85.6116C160.281 85.732 161.303 87.8541 161.926 89.1335Z" stroke="black" stroke-width="0.75" stroke-linejoin="round"/>
<path d="M24.6522 149.286C23.0216 159.481 19.1411 175.064 20.7992 179.625C22.0962 183.184 24.9481 180.89 31.2746 181.148C37.9141 181.42 42.0595 182.5 47.7977 183.831C51.059 184.588 62.2395 189.186 65.119 187.618C67.644 186.242 68.1394 180.632 68.6176 177.668C71.731 158.359 76.8121 153.562 79.5711 149.644C86.3792 139.99 61.6444 132.069 50.4225 135.092C46.9721 136.021 37.3499 139.185 33.662 139.326C27.9823 139.546 25.5742 143.533 24.6522 149.286Z" stroke="black" stroke-linejoin="round"/>
<path d="M27.1878 150.4C26.627 153.895 29.1315 158.414 28.2129 162.706C26.7096 169.74 22.1032 176.154 24.8175 176.436C30.9582 177.072 43.4976 180.831 53.6392 183.187C59.1779 184.474 66.0514 181.839 66.9768 176.092C69.7943 158.617 74.3938 154.273 76.8914 150.731C83.0527 141.991 60.2306 136.44 49.9789 138.793C46.8827 139.501 41.3716 143.419 37.2159 143.938C30.1016 144.829 28.0237 145.193 27.1878 150.4Z" stroke="black" stroke-width="0.75" stroke-linejoin="round"/>
<path d="M29.7266 151.515C29.2966 154.201 30.9134 159.948 30.4937 162.693C29.6268 168.395 27.0673 170.703 28.8081 172.704C31.0717 175.308 44.3267 178.754 53.4053 180.862C58.3626 182.015 64.517 179.655 65.3461 174.51C67.8678 158.868 71.9856 154.978 74.2218 151.807C79.7364 143.983 59.4669 139.876 50.1337 141.121L38.3889 145.616C33.8238 146.225 30.4731 146.855 29.7266 151.515Z" stroke="black" stroke-width="1.25" stroke-linejoin="round"/>
<path d="M34.7973 153.744C33.7859 160.069 32.1174 167.697 34.0955 169.971C35.8294 171.965 45.9779 174.603 52.9305 176.216C56.725 177.097 61.438 175.291 62.0744 171.353C64.0044 159.374 67.159 156.399 68.8688 153.967C73.0933 147.976 57.5678 144.833 50.4226 145.785L41.6536 146.951C38.1584 147.416 35.3718 150.174 34.7973 153.744Z" stroke="black" stroke-width="0.75" stroke-linejoin="round"/>
<path d="M40.384 160.258C39.5274 165.613 35.0689 166.675 36.7443 168.601C38.2133 170.29 46.8102 172.526 52.6964 173.891C55.9129 174.637 59.9035 173.107 60.4402 169.771C62.0743 159.625 64.7473 157.104 66.1956 155.044C69.7734 149.971 56.6251 147.305 50.5704 148.113L43.143 149.104C36.3693 151.329 40.8691 157.238 40.384 160.258Z" stroke="black" stroke-width="0.75" stroke-linejoin="round"/>
<path d="M43.3325 160.519C42.6307 164.908 46.0364 165.186 47.4091 166.762C48.6131 168.144 47.6327 170.449 52.4592 171.57C55.0944 172.182 58.366 170.927 58.8063 168.192C60.1446 159.88 62.3325 157.813 63.5228 156.127C66.4538 151.969 55.6792 149.789 50.7219 150.446C50.7219 150.446 46.8758 150.329 44.6294 151.257C42.3658 152.189 43.7281 158.043 43.3325 160.519Z" stroke="black" stroke-width="1.25" stroke-linejoin="round"/>
<path d="M48.6439 158.813C48.3137 160.884 47.7667 163.381 48.4134 164.127C48.9811 164.78 52.3043 165.644 54.5782 166.173C55.8201 166.462 57.3648 165.871 57.5712 164.581C58.2042 160.66 59.2362 159.683 59.797 158.889C61.1799 156.928 56.0988 155.897 53.7595 156.21L50.8869 156.588C49.7414 156.739 48.8297 157.644 48.6439 158.813Z" stroke="black" stroke-linejoin="round"/>
<path d="M146.517 270.329C145.781 280.53 140.621 278.456 147.356 314.61C148.622 321.406 145.299 324.106 146.28 326.747C150.054 336.924 206.149 324.533 213.562 319.195C220.625 314.108 184.225 291.993 180.764 289.913C180.585 289.806 180.42 289.689 180.258 289.555L153.487 267.526C150.848 265.356 146.758 267 146.517 270.329Z" stroke="black" stroke-linejoin="round"/>
<path d="M178.951 291.436C178.655 291.175 152.754 270.676 152.744 270.835C150.49 269.768 153.476 278.312 153.356 281.455C153.098 288.162 148.044 286.205 148.529 295.381C148.825 300.987 152.819 311.336 154.25 318.008C155.162 322.263 151.12 323.738 151.639 324.949C155.169 333.196 203.314 322.686 208.897 317.822C214.188 313.214 183.557 295.219 180.1 293.07C179.952 292.977 179.078 291.55 178.951 291.436Z" stroke="black" stroke-width="1.25" stroke-linejoin="round"/>
<path d="M177.647 293.294C177.059 292.774 158.592 278.684 158.568 279.003C156.7 279.041 155.578 284.214 155.582 287.168C155.602 298.46 159.414 319.027 161.87 323.721C165.159 330.008 200.51 320.739 204.236 316.385C207.783 312.241 182.9 298.405 179.443 296.197C179.326 296.121 177.75 293.383 177.647 293.294Z" stroke="black" stroke-width="0.75" stroke-linejoin="round"/>
<path d="M175.586 294.742C174.747 293.995 161.12 284.276 161.086 284.733C159.672 285.831 159.996 292.479 160.13 295.144C160.567 303.963 167.041 317.654 169.195 320.743C172.081 324.884 195.928 317.41 197.703 313.758C199.454 310.153 182.556 302.518 179.264 300.338C179.181 300.283 175.659 294.807 175.586 294.742Z" stroke="black" stroke-linejoin="round"/>
<g opacity="0.99">
<path d="M174.241 296.557C173.144 295.601 163.807 289.906 163.652 290.473C163.054 292.664 164.323 300.523 164.602 302.917C165.362 309.427 174.544 316.743 176.522 318.404C179.047 320.522 192.684 314.724 192.739 311.845C192.801 308.64 180.34 303.732 177.117 301.572C177.065 301.538 174.289 296.599 174.241 296.557Z" stroke="black" stroke-width="0.75"/>
</g>
<g opacity="0.99">
<path d="M174.527 301.015C173.853 300.42 168.118 296.881 168.021 297.235C167.65 298.6 168.42 303.498 168.589 304.99C169.047 309.049 174.688 313.599 175.903 314.631C177.454 315.948 185.848 312.32 185.886 310.524C185.928 308.526 178.27 305.482 176.292 304.138C176.261 304.117 174.558 301.042 174.527 301.015Z" stroke="black" stroke-width="1.25"/>
</g>
<path d="M219.166 266.364C216.999 271.2 212.798 278.533 206.503 280.933C196.822 284.631 230.03 309.208 232.118 309.074C233.35 308.995 235.067 304.166 238.424 301.339C240.77 299.365 248.136 299.433 249.127 298.274C249.949 297.311 244.751 283.898 240.22 278.326C234.265 271.001 228.049 270.777 224.01 265.725C222.655 264.029 220.057 264.38 219.166 266.364Z" stroke="black" stroke-linejoin="round"/>
<path d="M221.981 268.585C219.27 271.467 211.237 283.89 209.727 284.368C205.509 285.703 228.345 305.042 230.216 304.977C231.214 304.939 233.581 301.431 235.783 297.754C237.365 295.113 245.515 297.41 246.364 295.821C246.595 295.388 244.087 290.25 239.67 284.771C234.981 278.951 232.996 271.681 227.908 273.531C221.932 275.705 224.082 266.357 221.981 268.585Z" stroke="black" stroke-width="0.75" stroke-linejoin="round"/>
<path d="M221.664 277.858C220.457 279.065 216.889 284.259 216.212 284.462C214.323 285.029 224.633 293.008 225.472 292.974C225.92 292.953 226.972 291.488 227.949 289.951C228.651 288.847 232.318 289.779 232.693 289.115C232.797 288.933 231.654 286.804 229.656 284.537C227.533 282.13 226.618 279.113 224.341 279.898C221.664 280.819 222.6 276.923 221.664 277.858Z" stroke="black" stroke-linejoin="round"/>
<path d="M220.735 272.944C218.764 275.176 213.961 284.118 212.854 284.493C209.768 285.542 226.6 300.29 227.97 300.231C228.702 300.197 230.416 297.483 232.012 294.646C233.157 292.606 239.143 294.326 239.756 293.098C239.921 292.765 238.06 288.827 234.795 284.637C231.331 280.187 229.841 274.987 226.122 276.438C221.757 278.144 222.262 271.217 220.735 272.944Z" stroke="black" stroke-width="1.25" stroke-linejoin="round"/>
<path d="M249.856 206.09C253.093 205.952 259.286 202.162 270.174 203.669C283.219 205.471 294.744 209.316 294.444 215.4C294.228 219.861 288.868 222.196 286.666 228.476C283.288 238.113 283.116 251.871 278.399 260.17C269.537 275.774 261.336 282.556 257.645 278.646C254.15 274.941 254.163 264.902 251.421 260.025C247.273 252.644 240.547 250.347 235.38 246.323C227.925 240.514 237.547 233.501 240.279 225.25C241.545 221.426 240.86 214.702 241.847 211.871C243.014 208.528 246.189 206.245 249.856 206.09Z" stroke="black" stroke-linejoin="round"/>
<path d="M252.006 208.831C256.675 208.745 265.98 207.634 273.851 208.408C281.062 209.117 286.965 213.461 287.289 215.273C287.605 217.055 280.904 241.831 274.694 251.221C271.195 256.51 272.135 260.51 269.613 263.967C261.078 275.664 259.891 269.363 257.091 266.061C254.156 262.605 253.19 255.995 250.726 252.146C247.372 246.908 243.131 244.459 239.907 240.999C235.879 236.676 240.726 231.844 243.148 226.984C243.516 226.245 243.822 225.46 244.049 224.659C244.913 221.588 244.379 216.408 245.384 214.475C246.529 212.267 249.082 208.886 252.006 208.831Z" stroke="black" stroke-width="0.75" stroke-linejoin="round"/>
<path d="M252.949 212.955C261.064 212.942 281.554 213.354 282.135 216.598C282.538 218.847 279.6 232.811 270.016 249.687C267.105 254.812 269.692 260.466 263.641 265.525C261.271 267.506 259.083 262.223 257.817 260.624C255.171 257.285 254.531 253.47 252.196 250.138C249.268 245.959 244.417 241.526 242.167 238.341C239.395 234.413 243.368 230.162 245.222 226.355C245.525 225.732 245.762 225.062 245.934 224.364C246.602 221.671 246.134 217.268 247.156 215.776C248.274 214.139 250.396 212.959 252.949 212.955Z" stroke="black" stroke-width="1.25" stroke-linejoin="round"/>
<path d="M253.981 215.246C261.271 215.387 277.608 218.087 278.09 220.783C278.437 222.719 276.084 232.311 267.831 246.843C262.444 256.328 258.47 256.146 256.527 253.477C254.174 250.247 252.244 247.08 250.018 244.27C247.541 241.14 245.694 238.609 244.421 235.682C242.89 232.167 245.993 228.473 247.286 225.729C247.524 225.227 247.692 224.666 247.809 224.074C248.277 221.756 247.864 218.138 248.924 217.079C249.99 216.013 251.8 215.204 253.981 215.246Z" stroke="black" stroke-width="0.75" stroke-linejoin="round"/>
<path d="M255.013 217.533C261.47 217.891 273.869 219.989 274.251 222.138C274.54 223.765 272.568 231.806 265.647 243.995C261.13 251.95 257.776 249.522 256.248 247.183C254.205 244.053 251.814 242.599 249.671 240.329C247.682 238.224 246.956 235.699 246.684 233.02C246.371 229.932 248.621 226.781 249.364 225.096C249.533 224.714 249.633 224.26 249.698 223.775C249.963 221.836 249.564 218.981 250.696 218.379C251.673 217.86 253.204 217.43 255.013 217.533Z" stroke="black" stroke-width="0.75" stroke-linejoin="round"/>
<path d="M253.238 221.117C257.101 220.955 268.801 222.713 269.118 224.491C269.324 225.653 267.917 231.4 262.97 240.112C259.74 245.797 257.335 241.66 256.338 239.882C254.827 237.192 252.337 237.364 250.455 235.899C247.741 233.784 251.969 226.379 252.326 225.347C252.75 224.13 251.903 221.172 253.238 221.117Z" stroke="black" stroke-width="1.25" stroke-linejoin="round"/>
<path d="M270.786 159.649C292.831 160.182 286.759 151.22 294.723 153.118C300.141 154.408 303.523 165.799 303.736 168.65C304.128 173.878 300.784 193.74 290.344 189.681C277.278 184.601 256.22 189.884 238.287 191.428C232.074 191.965 226.198 185.533 214.756 187.109C205.929 188.323 203.551 191.239 194.71 192.402C193.124 192.608 183.946 191.095 188.521 182.806C193.176 174.376 184.765 170.118 189.072 170.081C257.683 169.465 244.397 159.01 270.786 159.649Z" stroke="black"/>
<path d="M196.685 188.192C195.391 188.343 187.909 187.249 191.642 181.258C195.44 175.164 188.58 172.089 192.089 172.058C248.023 171.601 244.146 166.713 265.062 163.697C275.472 162.194 297.554 162.82 297.981 167.917C298.091 169.241 290.326 171.518 288.785 174.579C285.937 180.24 293.144 187.882 287.619 185.98C273.277 181.042 236.546 186.276 219.328 184.206C211.663 183.284 203.892 187.353 196.685 188.192Z" stroke="black" stroke-width="0.75"/>
<path d="M257.191 167.264C270.394 163.656 290.144 164.199 290.478 167.346C290.595 168.461 284.02 168.615 281.151 171.804C278.021 175.284 287.399 181.709 281.172 180.773C275.733 179.955 263.854 180.247 251.456 180.797C237.248 181.427 231.1 183.301 220.105 181.891C207.814 180.316 209.52 185.86 198.725 183.982C197.727 183.81 191.838 183.401 194.769 179.7C197.751 175.934 192.367 174.036 195.123 174.015C239.03 173.712 241.225 171.628 257.191 167.264Z" stroke="black" stroke-width="1.25"/>
<path d="M249.444 172.726C257.225 170.17 275.737 168.929 275.991 170.287C276.129 171.027 279.652 176.165 273.834 178.002C271.739 178.662 267.319 173.751 256.805 176.206C249.853 177.83 231.451 179.677 223.622 179.866C220.082 180.175 215.572 178.26 212.383 179.377C203.586 182.456 198.384 181.806 201.697 178.872C203.558 177.221 208.87 176.547 210.601 176.537C227.867 176.427 241.669 175.278 249.444 172.726Z" stroke="black"/>
<path d="M157.639 203.173C163.497 199.259 173.835 208.129 178.104 207.304C181.531 206.64 182.398 203.156 179.556 201.515C175.51 199.177 177.791 194.547 178.775 189.966C180.808 180.484 182.938 174.084 168.362 176.57C153.786 179.057 134.136 172.759 138.178 196.927C139.454 204.552 139.702 215.163 157.639 203.173Z" stroke="black" stroke-width="1.25" stroke-linejoin="round"/>
<path d="M161.846 181.537C152.238 183.005 140.6 180.518 143.266 196.456C144.219 202.141 144.762 208.287 158.392 199.71C162.242 197.285 174.482 205.76 176.694 203.613C177.884 202.458 174.351 202.234 172.463 195.627C171.63 192.718 176.426 185.313 175.263 182.902C173.264 178.761 170.402 180.226 161.846 181.537Z" stroke="black" stroke-width="0.75" stroke-linejoin="round"/>
<path d="M158.571 197.567C162.507 196.016 171.881 201.247 166.934 191.972C164.691 187.769 173.185 183.769 163.198 185.96C156.115 187.514 146.366 184.12 148.354 195.793C148.98 199.476 148.584 201.505 158.571 197.567Z" stroke="black" stroke-width="0.75" stroke-linejoin="round"/>
<path d="M164.117 192.47C162.992 190.283 167.254 188.199 162.242 189.341C158.685 190.149 151.667 191.59 157.436 194.314C161.691 196.326 166.6 197.299 164.117 192.47Z" stroke="black" stroke-linejoin="round"/>
</g>
<defs>
<clipPath id="clip0_1546_69">
<rect width="322" height="357" fill="white"/>
</clipPath>
</defs>
</svg>
