<svg width="936.000000" height="1038.000000" viewBox="0 0 936 1038" fill="none" xmlns="http://www.w3.org/2000/svg" xmlns:xlink="http://www.w3.org/1999/xlink">
	<desc>
			Created with Pixso.
	</desc>
	<defs/>
	<rect id="Groupe 152" width="823.711914" height="902.499146" transform="translate(59.287842 58.858032)" fill="#FFFFFF" fill-opacity="0"/>
	<g style="mix-blend-mode:normal">
		<path id="Tracé 265" d="M775.43 899.75L774.4 900.68C711.73 966.97 660.7 998.42 572.44 1025.14C565.58 1027.3 528.16 1038 473.27 1038C438.28 1038 403.98 1033.56 371.23 1024.79C317.9 1010.53 253.97 970.94 163.8 896.41C122.75 862.68 81.98 813.12 51.89 760.62C17.87 701 -1.74 614.53 0.12 564.24C10.08 294.51 70.07 154.25 211.09 62.12C277.97 18.34 364.32 0 447.04 0C538.83 0 616.82 29.44 689.92 71.18C711.32 83.34 753.3 105.27 793.14 156.88C813.71 183.71 829.46 207.96 838.68 233.09C842.31 242.86 836.81 252.58 826.67 251.17C809.54 248.78 780.2 248.26 765.81 256.84C749.71 266.44 739.8 277.13 720.84 302.5C711.5 314.89 709.77 316.7 709.19 317.29C695.88 331.43 680.94 334.24 659.67 334.24C653.61 334.24 646.52 334.01 637.3 333.6C629.06 333.18 619.25 332.78 608.53 332.78C574.4 332.78 527.82 336.93 470.05 369.08C461.11 374.11 450.21 373.93 441.51 368.79C435 364.87 427.55 359.9 423.52 357.27C403.98 344.24 367.48 333.01 350.93 332.66L346.9 332.54C345.22 332.49 343.32 332.43 341.19 332.43C308.33 332.43 274.02 352.21 249.69 374.83C218.09 404.29 182.19 466.07 174.72 585C171.01 644.02 221.3 723.68 320.37 746.37C356.59 754.66 442.51 770.25 458.99 770.25C481.88 770.25 490.11 787.59 501.16 803.19C513.14 820.11 537.03 832.05 554.69 831.31C602.57 829.31 621.47 822.71 675.68 691.98C691.66 653.44 702.52 612.79 694.06 594.5C677.65 559.02 642.23 517.09 573.76 583.61C556.09 600.77 523.73 620.84 459.57 623.82C415.61 625.86 390.16 617.22 376.9 610.67C360.3 602.38 349.23 592.53 345.25 577.87C339.99 558.48 345.34 543.91 356.81 529.74C394.24 483.47 542.56 458.62 634.17 458.62C646.16 458.62 677.43 460.05 687.38 459.23C735.73 455.27 772.53 441.12 811.62 422.3C811.62 422.3 872.94 387.15 892.39 396.97C907.64 404.68 915.04 417.56 920.57 427.42C928.31 441.22 931.67 460.28 933.98 478.87C951.63 620.45 849.46 833.16 775.43 899.75Z" fill="#FFFFFF" fill-opacity="0.600000" fill-rule="nonzero"/>
	</g>
	<rect id="G" width="823.711975" height="902.499146" transform="translate(59.287842 58.858032)" fill="#FFFFFF" fill-opacity="0"/>
	<g style="mix-blend-mode:normal">
		<path id="Tracé 534" d="M325.53 116.28L351.68 152.3C354.93 156.78 355.58 166.73 368.11 166.73C375.9 166.73 380.45 161.01 382.81 156.56C384.43 153.5 386.96 151.09 389.59 148.83C392.3 146.5 394.11 143.04 394.49 139.15L399.14 91.78C400.14 81.57 391.23 73.58 382.25 76.64L331.87 93.81C323.11 96.79 319.84 108.44 325.53 116.28Z" fill="#000000" fill-opacity="0" fill-rule="nonzero"/>
		<path id="Tracé 534" d="M351.68 152.3C354.93 156.78 355.58 166.73 368.11 166.73C375.9 166.73 380.45 161.01 382.81 156.56C384.43 153.5 386.96 151.09 389.59 148.83C392.3 146.5 394.11 143.04 394.49 139.15L399.14 91.78C400.14 81.57 391.23 73.58 382.25 76.64L331.87 93.81C323.11 96.79 319.84 108.44 325.53 116.28L351.68 152.3Z" stroke="#000000" stroke-opacity="1.000000" stroke-width="1.250000" stroke-linejoin="round"/>
	</g>
	<g style="mix-blend-mode:normal">
		<path id="Tracé 535" d="M339.97 99.72C335.16 104.7 340.11 110.16 342.88 118.18C344.51 122.88 350.41 128.46 355.2 143.9C359.48 157.71 367.47 148.71 370.32 145.87C376.65 139.54 383.44 141.01 383.91 139.05C386.23 136.97 387.35 132.99 386.14 128.89C385.61 127.09 385.11 120.15 385.01 118.8C384.71 114.71 388.61 94.59 388.61 94.59C389.13 89.34 382.16 86.1 374.21 86.93C368.17 87.56 341.6 95.56 339.97 99.72Z" fill="#000000" fill-opacity="0" fill-rule="nonzero"/>
		<path id="Tracé 535" d="M342.88 118.18C344.51 122.88 350.41 128.46 355.2 143.9C359.48 157.71 367.47 148.71 370.32 145.87C376.65 139.54 383.44 141.01 383.91 139.05C386.23 136.97 387.35 132.99 386.14 128.89C385.61 127.09 385.11 120.15 385.01 118.8C384.71 114.71 388.61 94.59 388.61 94.59C389.13 89.34 382.16 86.1 374.21 86.93C368.17 87.56 341.6 95.56 339.97 99.72C335.16 104.7 340.11 110.16 342.88 118.18Z" stroke="#000000" stroke-opacity="1.000000" stroke-width="0.750000" stroke-linejoin="round"/>
	</g>
	<g style="mix-blend-mode:normal">
		<path id="Tracé 536" d="M379.8 128.99C380.68 125.32 376.07 119.2 375.79 115.3C375.39 109.87 378.93 99.83 378.93 99.83C379.36 95.45 351.81 96.02 348.05 105.62C346.05 110.73 353.43 112.48 355.08 118.87C356.74 125.26 354.25 134.22 358.53 135.79C364.86 138.12 378.5 134.4 379.8 128.99Z" fill="#000000" fill-opacity="0" fill-rule="nonzero"/>
		<path id="Tracé 536" d="M375.79 115.3C375.39 109.87 378.93 99.83 378.93 99.83C379.36 95.45 351.81 96.02 348.05 105.62C346.05 110.73 353.43 112.48 355.08 118.87C356.74 125.26 354.25 134.22 358.53 135.79C364.86 138.12 378.5 134.4 379.8 128.99C380.68 125.32 376.07 119.2 375.79 115.3Z" stroke="#000000" stroke-opacity="1.000000" stroke-width="0.750000" stroke-linejoin="round"/>
	</g>
	<g style="mix-blend-mode:normal">
		<path id="Tracé 537" d="M566.07 300.03C557.29 298.29 548.24 301.38 542.63 308.03C525.32 328.57 522.6 345.3 522.6 349.75C522.6 354.97 592.61 356.5 615.11 335.11C637.61 313.72 632.85 304.38 606.24 304.38C591.27 304.38 576.3 302.06 566.07 300.03Z" fill="#000000" fill-opacity="0" fill-rule="nonzero"/>
		<path id="Tracé 537" d="M542.63 308.03C525.32 328.57 522.6 345.3 522.6 349.75C522.6 354.97 592.61 356.5 615.11 335.11C637.61 313.72 632.85 304.38 606.24 304.38C591.27 304.38 576.3 302.06 566.07 300.03C557.29 298.29 548.24 301.38 542.63 308.03Z" stroke="#000000" stroke-opacity="1.000000" stroke-width="1.000000"/>
	</g>
	<g style="mix-blend-mode:normal">
		<path id="Tracé 538" d="M568.84 307.35C562.51 306.09 555.98 308.32 551.93 313.12C539.44 327.94 537.48 340.01 537.48 343.22C537.48 346.99 587.99 348.09 604.22 332.66C620.45 317.23 617.02 310.49 597.82 310.49C587.02 310.49 576.22 308.82 568.84 307.35Z" fill="#000000" fill-opacity="0" fill-rule="nonzero"/>
		<path id="Tracé 538" d="M551.93 313.12C539.44 327.94 537.48 340.01 537.48 343.22C537.48 346.99 587.99 348.09 604.22 332.66C620.45 317.23 617.02 310.49 597.82 310.49C587.02 310.49 576.22 308.82 568.84 307.35C562.51 306.09 555.98 308.32 551.93 313.12Z" stroke="#000000" stroke-opacity="1.000000" stroke-width="0.750000"/>
	</g>
	<g style="mix-blend-mode:normal">
		<path id="Tracé 539" d="M571.61 314.67C567.72 313.9 563.71 315.27 561.23 318.22C553.56 327.32 552.36 334.73 552.36 336.7C552.36 339.01 583.37 339.69 593.34 330.21C603.31 320.74 601.2 316.6 589.41 316.6C582.78 316.6 576.14 315.57 571.61 314.67Z" fill="#000000" fill-opacity="0" fill-rule="nonzero"/>
		<path id="Tracé 539" d="M561.23 318.22C553.56 327.32 552.36 334.73 552.36 336.7C552.36 339.01 583.37 339.69 593.34 330.21C603.31 320.74 601.2 316.6 589.41 316.6C582.78 316.6 576.14 315.57 571.61 314.67C567.72 313.9 563.71 315.27 561.23 318.22Z" stroke="#000000" stroke-opacity="1.000000" stroke-width="1.250000"/>
	</g>
	<rect id="Les 2 L" width="253.387268" height="210.131866" transform="translate(508.856201 98.199738)" fill="#FFFFFF" fill-opacity="0"/>
	<g style="mix-blend-mode:normal">
		<path id="Tracé 540" d="M611.35 103.44C566.63 87.26 571.8 112.85 559.15 122.14C512.61 156.32 507.07 172.5 509.25 180.54C511 186.99 545.58 237.12 565.62 265.83C574.75 278.92 588.41 287.33 603.4 289.04C625.92 291.61 668.31 309.91 693.6 308.22C717.49 306.62 699.64 288.73 718.87 280.42C805.46 242.99 738.15 199.74 723.34 185.35C719.59 181.7 656.08 119.61 611.35 103.44Z" fill="#000000" fill-opacity="0" fill-rule="nonzero"/>
		<path id="Tracé 540" d="M559.15 122.14C512.61 156.32 507.07 172.5 509.25 180.54C511 186.99 545.58 237.12 565.62 265.83C574.75 278.92 588.41 287.33 603.4 289.04C625.92 291.61 668.31 309.91 693.6 308.22C717.49 306.62 699.64 288.73 718.87 280.42C805.46 242.99 738.15 199.74 723.34 185.35C719.59 181.7 656.08 119.61 611.35 103.44C566.63 87.26 571.8 112.85 559.15 122.14Z" stroke="#000000" stroke-opacity="1.000000" stroke-width="1.000000" stroke-linejoin="round"/>
	</g>
	<g style="mix-blend-mode:normal">
		<path id="Tracé 541" d="M564.83 130.24C522.1 161.73 520.51 175.87 523.61 184.61C525.96 191.24 555.61 235.18 573.09 260.51C581.09 272.12 593.04 279.62 606.36 281.38C631.7 284.72 663.66 292.8 690.41 287.39C705.39 284.36 693.68 272.76 707.14 268.99C770.57 251.23 728.39 201.91 715.44 188.76C712.1 185.37 707.93 183.18 704.31 180.29C703.48 179.63 660.79 145.4 659.9 144.68C659.72 144.54 649.71 136.32 649.49 136.15C646.56 133.91 642.87 132.96 639.39 131.93C638.91 131.4 606.5 122.63 606.08 122.29C591.82 117.77 576.03 122 564.83 130.24Z" fill="#000000" fill-opacity="0" fill-rule="nonzero"/>
		<path id="Tracé 541" d="M523.61 184.61C525.96 191.24 555.61 235.18 573.09 260.51C581.09 272.12 593.04 279.62 606.36 281.38C631.7 284.72 663.66 292.8 690.41 287.39C705.39 284.36 693.68 272.76 707.14 268.99C770.57 251.23 728.39 201.91 715.44 188.76C712.1 185.37 707.93 183.18 704.31 180.29C703.48 179.63 660.79 145.4 659.9 144.68C659.72 144.54 649.71 136.32 649.49 136.15C646.56 133.91 642.87 132.96 639.39 131.93C638.91 131.4 606.5 122.63 606.08 122.29C591.82 117.77 576.03 122 564.83 130.24C522.1 161.73 520.51 175.87 523.61 184.61Z" stroke="#000000" stroke-opacity="1.000000" stroke-width="0.750000" stroke-linejoin="round"/>
	</g>
	<g style="mix-blend-mode:normal">
		<path id="Tracé 542" d="M574.03 144.25C537.58 171.37 544.03 181.85 549.24 192.35C552.86 199.64 573.48 232.39 586.33 251.68C592.27 260.68 601.15 266.6 611.52 268.5C632.31 272.32 671.39 288.62 687.79 268.68C701.62 251.87 712.68 257.5 722.68 252.41C747.42 239.81 711.82 206.35 702.22 195.3C699.62 192.31 696.39 190.2 693.48 187.74C690.95 185.6 658.83 161.02 656.05 158.76C655.5 158.32 648.16 152.12 647.47 151.56C645.1 149.65 642.17 148.59 639.39 147.48C637.89 145.84 614.37 138.23 612.95 137.34C600.27 129.48 582.64 137.88 574.03 144.25Z" fill="#000000" fill-opacity="0" fill-rule="nonzero"/>
		<path id="Tracé 542" d="M549.24 192.35C552.86 199.64 573.48 232.39 586.33 251.68C592.27 260.68 601.15 266.6 611.52 268.5C632.31 272.32 671.39 288.62 687.79 268.68C701.62 251.87 712.68 257.5 722.68 252.41C747.42 239.81 711.82 206.35 702.22 195.3C699.62 192.31 696.39 190.2 693.48 187.74C690.95 185.6 658.83 161.02 656.05 158.76C655.5 158.32 648.16 152.12 647.47 151.56C645.1 149.65 642.17 148.59 639.39 147.48C637.89 145.84 614.37 138.23 612.95 137.34C600.27 129.48 582.64 137.88 574.03 144.25C537.58 171.37 544.03 181.85 549.24 192.35Z" stroke="#000000" stroke-opacity="1.000000" stroke-width="1.250000" stroke-linejoin="round"/>
	</g>
	<g style="mix-blend-mode:normal">
		<path id="Tracé 543" d="M581.87 154.54C550.54 177.9 560.67 186.05 566.68 196.82C570.71 204.05 585.74 229.34 595.5 244.57C600.1 251.75 606.93 256.57 615.25 258.43C642 264.4 678.5 263.06 696.61 244C712.24 227.55 699.13 208.38 691.72 199.02C689.64 196.39 687.05 194.45 684.66 192.33C681.47 189.52 656.38 171.18 652.81 168.29C652.11 167.72 646.5 162.89 645.62 162.16C643.66 160.52 641.28 159.47 639 158.37C637.07 156.26 619.26 149.74 617.46 148.55C605.67 140.73 588.68 149.46 581.87 154.54Z" fill="#000000" fill-opacity="0" fill-rule="nonzero"/>
		<path id="Tracé 543" d="M566.68 196.82C570.71 204.05 585.74 229.34 595.5 244.57C600.1 251.75 606.93 256.57 615.25 258.43C642 264.4 678.5 263.06 696.61 244C712.24 227.55 699.13 208.38 691.72 199.02C689.64 196.39 687.05 194.45 684.66 192.33C681.47 189.52 656.38 171.18 652.81 168.29C652.11 167.72 646.5 162.89 645.62 162.16C643.66 160.52 641.28 159.47 639 158.37C637.07 156.26 619.26 149.74 617.46 148.55C605.67 140.73 588.68 149.46 581.87 154.54C550.54 177.9 560.67 186.05 566.68 196.82Z" stroke="#000000" stroke-opacity="1.000000" stroke-width="0.750000" stroke-linejoin="round"/>
	</g>
	<g style="mix-blend-mode:normal">
		<path id="Tracé 544" d="M587.55 162.64C560.03 183.31 574.02 189.46 581.04 200.89C585.61 208.33 595.77 227.4 602.97 239.25C606.44 244.96 611.56 248.91 618.21 250.77C640.7 257.06 670.82 253.4 686.02 237.4C697.75 225.06 689.4 210.49 683.81 202.43C682.15 200.04 680.1 198.2 678.1 196.34C674.21 192.72 654.9 179.77 650.43 176.15C649.55 175.44 645.4 171.76 644.32 170.82C642.68 169.38 640.55 168.55 638.86 167.18C636.09 164.92 623.44 158.86 621.25 157.3C609.85 149.19 592.92 158.61 587.55 162.64Z" fill="#000000" fill-opacity="0" fill-rule="nonzero"/>
		<path id="Tracé 544" d="M581.04 200.89C585.61 208.33 595.77 227.4 602.97 239.25C606.44 244.96 611.56 248.91 618.21 250.77C640.7 257.06 670.82 253.4 686.02 237.4C697.75 225.06 689.4 210.49 683.81 202.43C682.15 200.04 680.1 198.2 678.1 196.34C674.21 192.72 654.9 179.77 650.43 176.15C649.55 175.44 645.4 171.76 644.32 170.82C642.68 169.38 640.55 168.55 638.86 167.18C636.09 164.92 623.44 158.86 621.25 157.3C609.85 149.19 592.92 158.61 587.55 162.64C560.03 183.31 574.02 189.46 581.04 200.89Z" stroke="#000000" stroke-opacity="1.000000" stroke-width="0.750000" stroke-linejoin="round"/>
	</g>
	<g style="mix-blend-mode:normal">
		<path id="Tracé 545" d="M593.23 170.74C569.54 188.74 587.35 192.88 595.39 204.96C600.49 212.62 605.78 225.47 610.44 233.93C612.77 238.17 616.18 241.28 621.17 243.11C639.38 249.81 663.13 243.75 675.44 230.8C683.26 222.56 679.72 212.58 675.9 205.84C674.68 203.69 673.15 201.96 671.54 200.35C667.04 195.83 653.42 188.36 648.06 184.02C647.01 183.16 644.28 180.66 643.02 179.49C641.69 178.25 640.09 177.25 638.72 175.99C635.57 173.08 627.6 168 625.03 166.05C613.98 157.64 597.14 167.77 593.23 170.74Z" fill="#000000" fill-opacity="0" fill-rule="nonzero"/>
		<path id="Tracé 545" d="M595.39 204.96C600.49 212.62 605.78 225.47 610.44 233.93C612.77 238.17 616.18 241.28 621.17 243.11C639.38 249.81 663.13 243.75 675.44 230.8C683.26 222.56 679.72 212.58 675.9 205.84C674.68 203.69 673.15 201.96 671.54 200.35C667.04 195.83 653.42 188.36 648.06 184.02C647.01 183.16 644.28 180.66 643.02 179.49C641.69 178.25 640.09 177.25 638.72 175.99C635.57 173.08 627.6 168 625.03 166.05C613.98 157.64 597.14 167.77 593.23 170.74C569.54 188.74 587.35 192.88 595.39 204.96Z" stroke="#000000" stroke-opacity="1.000000" stroke-width="0.750000" stroke-linejoin="round"/>
	</g>
	<g style="mix-blend-mode:normal">
		<path id="Tracé 546" d="M604.46 183.49C588.18 196.1 605.91 197.83 613.36 208.27C620.5 218.28 617.38 225.86 625.16 229.96C636.51 235.95 650.86 228.85 658.58 220.73C661.8 217.34 662.89 212.88 661.15 208.46C658.01 200.46 649.25 199.39 642.85 194.2C638.75 190.88 633.19 183.58 629.01 180.17C620.2 172.99 606.48 181.92 604.46 183.49Z" fill="#000000" fill-opacity="0" fill-rule="nonzero"/>
		<path id="Tracé 546" d="M613.36 208.27C620.5 218.28 617.38 225.86 625.16 229.96C636.51 235.95 650.86 228.85 658.58 220.73C661.8 217.34 662.89 212.88 661.15 208.46C658.01 200.46 649.25 199.39 642.85 194.2C638.75 190.88 633.19 183.58 629.01 180.17C620.2 172.99 606.48 181.92 604.46 183.49C588.18 196.1 605.91 197.83 613.36 208.27Z" stroke="#000000" stroke-opacity="1.000000" stroke-width="1.000000" stroke-linejoin="round"/>
	</g>
	<rect id="îlot 3" width="210.017090" height="231.776215" transform="translate(110.421875 119.761841)" fill="#FFFFFF" fill-opacity="0"/>
	<g style="mix-blend-mode:normal">
		<path id="Tracé 547" d="M257.59 123C290.33 106.9 307.06 155.01 317.03 175.04C320.56 182.14 321.95 195.34 318.25 202.35C318.25 202.35 265.31 280.74 261.2 306.63C259.49 317.43 260.79 331.81 260.79 331.81C250.42 353.5 243.5 327.72 208.65 336.2C192.11 340.23 146.02 350.92 146.02 350.92C136.82 353.02 127.22 349.66 121.34 342.28L115.78 335.3C110.55 328.73 109.01 319.94 111.77 312C117.97 294.12 131.37 260.22 153.9 225.54C171.35 198.67 190.56 163.7 235.52 145.47C246.09 141.19 247.97 127.74 257.59 123Z" fill="#000000" fill-opacity="0" fill-rule="nonzero"/>
		<path id="Tracé 547" d="M317.03 175.04C320.56 182.14 321.95 195.34 318.25 202.35C318.25 202.35 265.31 280.74 261.2 306.63C259.49 317.43 260.79 331.81 260.79 331.81C250.42 353.5 243.5 327.72 208.65 336.2C192.11 340.23 146.02 350.92 146.02 350.92C136.82 353.02 127.22 349.66 121.34 342.28L115.78 335.3C110.55 328.73 109.01 319.94 111.77 312C117.97 294.12 131.37 260.22 153.9 225.54C171.35 198.67 190.56 163.7 235.52 145.47C246.09 141.19 247.97 127.74 257.59 123C290.33 106.9 307.06 155.01 317.03 175.04Z" stroke="#000000" stroke-opacity="1.000000" stroke-width="1.250000" stroke-linejoin="round"/>
	</g>
	<g style="mix-blend-mode:normal">
		<path id="Tracé 548" d="M307.01 183.8C309.38 188.57 309.8 193.97 308.47 199.01C308.07 200.54 307.57 202.31 306.37 203.86C305.47 205.03 274.54 257.18 273.81 258.51C272.87 260.22 250.5 308.26 249.95 309.36C247.24 314.83 242.11 318.73 236.1 320.34C235.08 321.13 159.84 338.12 158 338.55C149.99 340.43 173.83 320.55 137.07 327.07C129.88 328.34 124.18 314.02 126.19 306.62C127.59 301.51 129.74 295.02 132.75 287.65C139.87 270.13 150.26 249.08 164.49 227.93C184.03 198.88 198.32 173.64 236.3 159.17C253.06 152.79 248.03 148.82 257.31 139.53C279.78 117.06 298.3 166.3 307.01 183.8Z" fill="#000000" fill-opacity="0" fill-rule="nonzero"/>
		<path id="Tracé 548" d="M308.47 199.01C308.07 200.54 307.57 202.31 306.37 203.86C305.47 205.03 274.54 257.18 273.81 258.51C272.87 260.22 250.5 308.26 249.95 309.36C247.24 314.83 242.11 318.73 236.1 320.34C235.08 321.13 159.84 338.12 158 338.55C149.99 340.43 173.83 320.55 137.07 327.07C129.88 328.34 124.18 314.02 126.19 306.62C127.59 301.51 129.74 295.02 132.75 287.65C139.87 270.13 150.26 249.08 164.49 227.93C184.03 198.88 198.32 173.64 236.3 159.17C253.06 152.79 248.03 148.82 257.31 139.53C279.78 117.06 298.3 166.3 307.01 183.8C309.38 188.57 309.8 193.97 308.47 199.01Z" stroke="#000000" stroke-opacity="1.000000" stroke-width="1.000000" stroke-linejoin="round"/>
	</g>
	<g style="mix-blend-mode:normal">
		<path id="Tracé 549" d="M298.84 186.85C300.95 191.1 299.32 201.62 298.06 206.08C297.74 207.22 297.19 208.75 296 210.21C294.14 212.49 266.74 255.43 265.28 258.08C263.4 261.49 247.92 298.75 246.83 300.97C244.6 305.5 240.06 308.01 235.38 310.48C233.09 311.69 173.68 325.3 170 326.16C163.16 327.77 167.81 314.28 146.77 318.48C140.57 319.72 139.37 308.09 140.64 301.22C141.51 296.51 143.24 290.58 145.91 283.94C152.66 267.1 162.21 248.62 175.1 230.31C192.09 206.17 195.12 194.39 225.79 177.91C226.42 177.57 258.54 156.37 259.18 156.04C271.24 149.89 270.7 162.07 276.2 170.86C281.71 179.65 295.12 179.36 298.84 186.85Z" fill="#000000" fill-opacity="0" fill-rule="nonzero"/>
		<path id="Tracé 549" d="M298.06 206.08C297.74 207.22 297.19 208.75 296 210.21C294.14 212.49 266.74 255.43 265.28 258.08C263.4 261.49 247.92 298.75 246.83 300.97C244.6 305.5 240.06 308.01 235.38 310.48C233.09 311.69 173.68 325.3 170 326.16C163.16 327.77 167.81 314.28 146.77 318.48C140.57 319.72 139.37 308.09 140.64 301.22C141.51 296.51 143.24 290.58 145.91 283.94C152.66 267.1 162.21 248.62 175.1 230.31C192.09 206.17 195.12 194.39 225.79 177.91C226.42 177.57 258.54 156.37 259.18 156.04C271.24 149.89 270.7 162.07 276.2 170.86C281.71 179.65 295.12 179.36 298.84 186.85C300.95 191.1 299.32 201.62 298.06 206.08Z" stroke="#000000" stroke-opacity="1.000000" stroke-width="1.250000" stroke-linejoin="round"/>
	</g>
	<g style="mix-blend-mode:normal">
		<path id="Tracé 550" d="M286.98 201.31C288.83 205.04 288.85 209.26 287.66 213.16C287.43 213.91 286.83 215.19 285.63 216.58C282.74 219.92 258.94 253.7 256.75 257.67C253.93 262.79 245.33 289.27 243.7 292.6C241.94 296.2 238.46 298.45 234.64 300.64C231.27 302.58 187.51 312.49 181.99 313.8C176.33 315.14 171.54 313.74 162.26 310.09C157.09 308.06 154.55 302.19 155.07 295.85C155.43 291.54 156.71 286.16 159.06 280.26C165.43 264.1 174.13 248.17 185.7 232.73C200.11 213.48 219.09 194.52 244.41 180.37C244.93 180.08 245.44 179.8 245.96 179.53C265.78 169.15 280.78 188.86 286.98 201.31Z" fill="#000000" fill-opacity="0" fill-rule="nonzero"/>
		<path id="Tracé 550" d="M287.66 213.16C287.43 213.91 286.83 215.19 285.63 216.58C282.74 219.92 258.94 253.7 256.75 257.67C253.93 262.79 245.33 289.27 243.7 292.6C241.94 296.2 238.46 298.45 234.64 300.64C231.27 302.58 187.51 312.49 181.99 313.8C176.33 315.14 171.54 313.74 162.26 310.09C157.09 308.06 154.55 302.19 155.07 295.85C155.43 291.54 156.71 286.16 159.06 280.26C165.43 264.1 174.13 248.17 185.7 232.73C200.11 213.48 219.09 194.52 244.41 180.37C244.93 180.08 245.44 179.8 245.96 179.53C265.78 169.15 280.78 188.86 286.98 201.31C288.83 205.04 288.85 209.26 287.66 213.16Z" stroke="#000000" stroke-opacity="1.000000" stroke-width="0.750000" stroke-linejoin="round"/>
	</g>
	<g style="mix-blend-mode:normal">
		<path id="Tracé 551" d="M276.97 210.06C278.56 213.26 278.39 216.88 277.26 220.23C277.13 220.6 276.48 221.61 275.26 222.93C271.27 227.27 251.14 251.94 248.22 257.24C244.46 264.07 242.72 279.76 240.57 284.21C239.29 286.88 236.87 288.86 233.9 290.78C229.55 293.6 201.34 299.65 193.98 301.41C189.49 302.48 178.93 301.7 177.76 301.67C172.69 301.52 169.74 296.26 169.52 290.45C169.37 286.55 170.21 281.71 172.22 276.55C178.22 261.07 186.02 247.67 196.31 235.11C208.09 220.72 223.2 207.06 243.16 195.24C243.56 195 243.96 194.78 244.36 194.56C259.87 186.08 272.03 200.14 276.97 210.06Z" fill="#000000" fill-opacity="0" fill-rule="nonzero"/>
		<path id="Tracé 551" d="M277.26 220.23C277.13 220.6 276.48 221.61 275.26 222.93C271.27 227.27 251.14 251.94 248.22 257.24C244.46 264.07 242.72 279.76 240.57 284.21C239.29 286.88 236.87 288.86 233.9 290.78C229.55 293.6 201.34 299.65 193.98 301.41C189.49 302.48 178.93 301.7 177.76 301.67C172.69 301.52 169.74 296.26 169.52 290.45C169.37 286.55 170.21 281.71 172.22 276.55C178.22 261.07 186.02 247.67 196.31 235.11C208.09 220.72 223.2 207.06 243.16 195.24C243.56 195 243.96 194.78 244.36 194.56C259.87 186.08 272.03 200.14 276.97 210.06C278.56 213.26 278.39 216.88 277.26 220.23Z" stroke="#000000" stroke-opacity="1.000000" stroke-width="0.750000" stroke-linejoin="round"/>
	</g>
	<g style="mix-blend-mode:normal">
		<path id="Tracé 552" d="M247.4 202.61C258.28 195.55 267.41 203.66 270.95 210.78C272.21 213.3 272.17 216.27 270.85 218.76C270.85 218.76 245.17 246.55 241.02 258.66C237.13 270.02 239.66 279.5 231.08 286.17C227.58 288.89 221.18 287.59 216.81 283.65C208.73 276.36 197.07 285.13 194.07 286.75C183.4 292.54 182.86 287.22 187.53 274.97C192.83 261.05 199.25 250.76 207.78 241.72C216.31 232.68 233.67 211.53 247.4 202.61Z" fill="#000000" fill-opacity="0" fill-rule="nonzero"/>
		<path id="Tracé 552" d="M270.95 210.78C272.21 213.3 272.17 216.27 270.85 218.76C270.85 218.76 245.17 246.55 241.02 258.66C237.13 270.02 239.66 279.5 231.08 286.17C227.58 288.89 221.18 287.59 216.81 283.65C208.73 276.36 197.07 285.13 194.07 286.75C183.4 292.54 182.86 287.22 187.53 274.97C192.83 261.05 199.25 250.76 207.78 241.72C216.31 232.68 233.67 211.53 247.4 202.61C258.28 195.55 267.41 203.66 270.95 210.78Z" stroke="#000000" stroke-opacity="1.000000" stroke-width="0.750000" stroke-linejoin="round"/>
	</g>
	<g style="mix-blend-mode:normal">
		<path id="Tracé 553" d="M369.3 185.64L381.85 178.15C385.46 176 390.02 178.86 389.5 182.95C385.34 215.74 372.54 317.33 372.54 326.45C372.54 335.57 340.13 348.47 330.43 352.08C328.77 352.7 326.88 352.43 325.5 351.4L292.38 326.5C290.48 325.07 289.87 322.52 290.93 320.42L346.88 209.32C351.72 199.7 359.49 191.49 369.3 185.64Z" fill="#000000" fill-opacity="0" fill-rule="nonzero"/>
		<path id="Tracé 553" d="M381.85 178.15C385.46 176 390.02 178.86 389.5 182.95C385.34 215.74 372.54 317.33 372.54 326.45C372.54 335.57 340.13 348.47 330.43 352.08C328.77 352.7 326.88 352.43 325.5 351.4L292.38 326.5C290.48 325.07 289.87 322.52 290.93 320.42L346.88 209.32C351.72 199.7 359.49 191.49 369.3 185.64L381.85 178.15Z" stroke="#000000" stroke-opacity="1.000000" stroke-width="0.750000" stroke-linejoin="round"/>
	</g>
	<g style="mix-blend-mode:normal">
		<path id="Tracé 554" d="M375.81 188.42C384 181.92 382.38 194.79 381.87 198.7C378.38 225.8 368.97 305.89 367.65 317.39C366.61 326.42 342.3 335.97 333.44 338.21C332.1 338.55 330.77 338.17 329.49 337.59C327.67 336.78 303.8 318.94 303.48 316.45C302.17 315.18 301.75 313.17 302.45 311.43C302.43 308.68 308.48 295.24 329.3 269.64C337.98 258.97 337.59 247.87 342.23 235.6C348.03 220.23 358.03 204.63 361.64 204.08C379.78 201.27 367.32 195.16 375.81 188.42Z" fill="#000000" fill-opacity="0" fill-rule="nonzero"/>
		<path id="Tracé 554" d="M381.87 198.7C378.38 225.8 368.97 305.89 367.65 317.39C366.61 326.42 342.3 335.97 333.44 338.21C332.1 338.55 330.77 338.17 329.49 337.59C327.67 336.78 303.8 318.94 303.48 316.45C302.17 315.18 301.75 313.17 302.45 311.43C302.43 308.68 308.48 295.24 329.3 269.64C337.98 258.97 337.59 247.87 342.23 235.6C348.03 220.23 358.03 204.63 361.64 204.08C379.78 201.27 367.32 195.16 375.81 188.42C384 181.92 382.38 194.79 381.87 198.7Z" stroke="#000000" stroke-opacity="1.000000" stroke-width="1.250000" stroke-linejoin="round"/>
	</g>
	<g style="mix-blend-mode:normal">
		<path id="Tracé 555" d="M375.46 203.85C377.3 203.78 365.67 294.45 362.78 308.32C360.95 317.1 344.74 323.54 336.53 324.31C335.5 324.41 334.47 324.16 333.49 323.78C329.76 322.34 315.23 311.38 314.59 306.4C313.87 305.3 313.81 303.84 313.98 302.45C315.39 290.98 336.27 276.71 340.68 266.69C345.8 255.08 351.3 218.87 359.76 220.56C370.44 222.7 374.6 202.99 375.46 203.85Z" fill="#000000" fill-opacity="0" fill-rule="nonzero"/>
		<path id="Tracé 555" d="M362.78 308.32C360.95 317.1 344.74 323.54 336.53 324.31C335.5 324.41 334.47 324.16 333.49 323.78C329.76 322.34 315.23 311.38 314.59 306.4C313.87 305.3 313.81 303.84 313.98 302.45C315.39 290.98 336.27 276.71 340.68 266.69C345.8 255.08 351.3 218.87 359.76 220.56C370.44 222.7 374.6 202.99 375.46 203.85C377.3 203.78 365.67 294.45 362.78 308.32Z" stroke="#000000" stroke-opacity="1.000000" stroke-width="0.750000" stroke-linejoin="round"/>
	</g>
	<g style="mix-blend-mode:normal">
		<path id="Tracé 556" d="M364.6 230.2C362.6 245.93 362.76 283.07 358.34 299.26C353.92 315.45 330.47 318.07 328.32 300.27C326.18 282.47 337.31 290.64 344.81 275.42C352.31 260.2 366.1 218.4 364.6 230.2Z" fill="#000000" fill-opacity="0" fill-rule="nonzero"/>
		<path id="Tracé 556" d="M358.34 299.26C353.92 315.45 330.47 318.07 328.32 300.27C326.18 282.47 337.31 290.64 344.81 275.42C352.31 260.2 366.1 218.4 364.6 230.2C362.6 245.93 362.76 283.07 358.34 299.26Z" stroke="#000000" stroke-opacity="1.000000" stroke-width="1.000000" stroke-linejoin="round"/>
	</g>
	<rect id="Pour les autres" width="149.352448" height="186.838501" transform="translate(234.545898 769.113037)" fill="#FFFFFF" fill-opacity="0"/>
	<g style="mix-blend-mode:normal">
		<path id="Tracé 557" d="M237.22 845.94C212.91 881.85 361.8 955.95 379.15 955.95C393.48 955.95 372.18 816.19 357.4 771.01C354.65 762.6 316.12 784.46 304.67 791.17C278.56 806.46 254.31 820.71 237.22 845.94Z" fill="#000000" fill-opacity="0" fill-rule="nonzero"/>
		<path id="Tracé 557" d="M379.15 955.95C393.48 955.95 372.18 816.19 357.4 771.01C354.65 762.6 316.12 784.46 304.67 791.17C278.56 806.46 254.31 820.71 237.22 845.94C212.91 881.85 361.8 955.95 379.15 955.95Z" stroke="#000000" stroke-opacity="1.000000" stroke-width="1.000000" stroke-linejoin="round"/>
	</g>
	<g style="mix-blend-mode:normal">
		<path id="Tracé 558" d="M307.55 802.7C286.61 816.77 266.27 827.71 252.19 849.8C236.61 874.25 297.96 917.76 349.69 934.21C362.16 938.18 362.27 947.99 372.99 944.93C385.29 941.42 366.53 819.49 350.98 782.51C347.97 775.36 317.33 796.13 307.55 802.7Z" fill="#000000" fill-opacity="0" fill-rule="nonzero"/>
		<path id="Tracé 558" d="M252.19 849.8C236.61 874.25 297.96 917.76 349.69 934.21C362.16 938.18 362.27 947.99 372.99 944.93C385.29 941.42 366.53 819.49 350.98 782.51C347.97 775.36 317.33 796.13 307.55 802.7C286.61 816.77 266.27 827.71 252.19 849.8Z" stroke="#000000" stroke-opacity="1.000000" stroke-width="1.250000" stroke-linejoin="round"/>
	</g>
	<g style="mix-blend-mode:normal">
		<path id="Tracé 559" d="M305.81 814.24C288.48 826.99 270.65 831.96 258.58 850.9C251.38 862.2 259.32 872.5 278.31 888.27C296.34 903.24 320.34 922.98 343.02 922.98C358.17 922.98 358.59 936.36 366.97 932.99C378.52 928.35 359.71 822.63 343.03 794.03C339.54 788.05 314.59 807.77 305.81 814.24Z" fill="#000000" fill-opacity="0" fill-rule="nonzero"/>
		<path id="Tracé 559" d="M258.58 850.9C251.38 862.2 259.32 872.5 278.31 888.27C296.34 903.24 320.34 922.98 343.02 922.98C358.17 922.98 358.59 936.36 366.97 932.99C378.52 928.35 359.71 822.63 343.03 794.03C339.54 788.05 314.59 807.77 305.81 814.24C288.48 826.99 270.65 831.96 258.58 850.9Z" stroke="#000000" stroke-opacity="1.000000" stroke-width="0.750000" stroke-linejoin="round"/>
	</g>
	<g style="mix-blend-mode:normal">
		<path id="Tracé 560" d="M307.5 834.32C296.8 844.17 283.71 845.89 275.34 858.67C262.53 878.24 331.91 923.82 347.71 910.52C357.86 901.98 347.35 829.07 333.26 813.85C327.5 811.02 314.5 827.88 307.5 834.32Z" fill="#000000" fill-opacity="0" fill-rule="nonzero"/>
		<path id="Tracé 560" d="M275.34 858.67C262.53 878.24 331.91 923.82 347.71 910.52C357.86 901.98 347.35 829.07 333.26 813.85C327.5 811.02 314.5 827.88 307.5 834.32C296.8 844.17 283.71 845.89 275.34 858.67Z" stroke="#000000" stroke-opacity="1.000000" stroke-width="1.250000" stroke-linejoin="round"/>
	</g>
	<g style="mix-blend-mode:normal">
		<path id="Tracé 561" d="M309.6 846.16C302.62 854.18 292.82 853.09 286.77 862.59C277.08 877.82 325.78 916.04 340.45 899.23C349.46 888.91 342.6 831.39 328.18 825.89C322.16 823.59 315.21 839.7 309.6 846.16Z" fill="#000000" fill-opacity="0" fill-rule="nonzero"/>
		<path id="Tracé 561" d="M286.77 862.59C277.08 877.82 325.78 916.04 340.45 899.23C349.46 888.91 342.6 831.39 328.18 825.89C322.16 823.59 315.21 839.7 309.6 846.16C302.62 854.18 292.82 853.09 286.77 862.59Z" stroke="#000000" stroke-opacity="1.000000" stroke-width="0.750000" stroke-linejoin="round"/>
	</g>
	<g style="mix-blend-mode:normal">
		<path id="Tracé 562" d="M297.24 871.4C291.07 879.83 317.99 903.67 330.23 888.1C337.52 878.83 332.64 849.3 320.93 849.3C314.78 849.3 313.8 859.64 310.11 864.74C306.71 869.43 300.79 866.57 297.24 871.4Z" fill="#000000" fill-opacity="0" fill-rule="nonzero"/>
		<path id="Tracé 562" d="M330.23 888.1C337.52 878.83 332.64 849.3 320.93 849.3C314.78 849.3 313.8 859.64 310.11 864.74C306.71 869.43 300.79 866.57 297.24 871.4C291.07 879.83 317.99 903.67 330.23 888.1Z" stroke="#000000" stroke-opacity="1.000000" stroke-width="1.000000" stroke-linejoin="round"/>
	</g>
	<g style="mix-blend-mode:normal">
		<path id="Tracé 563" d="M187.01 658.37C192.9 656.67 199.2 658.9 202.94 664.02C209.79 673.41 221.77 689.09 235.24 703.42C248.71 717.74 263.66 730.71 276.46 734.66C292.82 739.71 282.52 749.97 266.41 759.86C250.29 769.75 228.35 779.28 221.42 782.86C216.42 785.45 206.76 769.76 196.07 749.04C185.38 728.32 173.66 702.57 164.53 685.03C159.87 676.07 164.31 664.94 173.62 662.25L187.01 658.37Z" fill="#000000" fill-opacity="0" fill-rule="nonzero"/>
		<path id="Tracé 563" d="M202.94 664.02C209.79 673.41 221.77 689.09 235.24 703.42C248.71 717.74 263.66 730.71 276.46 734.66C292.82 739.71 282.52 749.97 266.41 759.86C250.29 769.75 228.35 779.28 221.42 782.86C216.42 785.45 206.76 769.76 196.07 749.04C185.38 728.32 173.66 702.57 164.53 685.03C159.87 676.07 164.31 664.94 173.62 662.25L187.01 658.37C192.9 656.67 199.2 658.9 202.94 664.02Z" stroke="#000000" stroke-opacity="1.000000" stroke-width="1.000000" stroke-linejoin="round"/>
	</g>
	<g style="mix-blend-mode:normal">
		<path id="Tracé 564" d="M192.29 680.56C199.72 686.08 206.05 673.66 229.05 710.98C235.71 721.79 246.38 729.56 254.78 732.64C265.79 736.71 260.26 745.89 250.1 753.99C239.94 762.09 225.15 768.58 217.65 768.85C213.56 768.99 209.86 757.1 204.1 742.87C203.25 740.76 202.35 738.62 201.36 736.48C197.16 727.38 192.51 716.02 187.79 706.37C162.94 655.64 184.14 674.5 192.29 680.56Z" fill="#000000" fill-opacity="0" fill-rule="nonzero"/>
		<path id="Tracé 564" d="M229.05 710.98C235.71 721.79 246.38 729.56 254.78 732.64C265.79 736.71 260.26 745.89 250.1 753.99C239.94 762.09 225.15 768.58 217.65 768.85C213.56 768.99 209.86 757.1 204.1 742.87C203.25 740.76 202.35 738.62 201.36 736.48C197.16 727.38 192.51 716.02 187.79 706.37C162.94 655.64 184.14 674.5 192.29 680.56C199.72 686.08 206.05 673.66 229.05 710.98Z" stroke="#000000" stroke-opacity="1.000000" stroke-width="1.250000" stroke-linejoin="round"/>
	</g>
	<g style="mix-blend-mode:normal">
		<path id="Tracé 565" d="M205.28 700.95C208.92 698.25 213.54 703.9 214.79 705.76C219.36 712.61 226.92 725.55 235.51 729.09C241.55 731.58 240.57 739.36 236.18 745.65C231.79 751.94 223.99 756.73 216.41 753.24C212.83 751.59 215.32 740.86 211.55 733.16C209.59 729.16 205.82 722.74 203.64 716.5C201.46 710.26 200.87 704.22 205.28 700.95Z" fill="#000000" fill-opacity="0" fill-rule="nonzero"/>
		<path id="Tracé 565" d="M214.79 705.76C219.36 712.61 226.92 725.55 235.51 729.09C241.55 731.58 240.57 739.36 236.18 745.65C231.79 751.94 223.99 756.73 216.41 753.24C212.83 751.59 215.32 740.86 211.55 733.16C209.59 729.16 205.82 722.74 203.64 716.5C201.46 710.26 200.87 704.22 205.28 700.95C208.92 698.25 213.54 703.9 214.79 705.76Z" stroke="#000000" stroke-opacity="1.000000" stroke-width="0.750000" stroke-linejoin="round"/>
	</g>
	<g style="mix-blend-mode:normal">
		<path id="Tracé 566" d="M94.9 669.22L135.6 669.22C140.07 669.22 144.01 672.38 145.3 677.02C148.83 689.72 156.22 715.86 163.83 740.03C171.44 764.19 179.27 786.38 183.67 791.15C188.59 796.48 186.92 804.31 183.76 811.13C180.33 818.53 170.74 819.11 166.41 812.28L126.48 749.35L86.55 686.42C81.93 679.13 86.74 669.22 94.9 669.22Z" fill="#000000" fill-opacity="0" fill-rule="nonzero"/>
		<path id="Tracé 566" d="M135.6 669.22C140.07 669.22 144.01 672.38 145.3 677.02C148.83 689.72 156.22 715.86 163.83 740.03C171.44 764.19 179.27 786.38 183.67 791.15C188.59 796.48 186.92 804.31 183.76 811.13C180.33 818.53 170.74 819.11 166.41 812.28L126.48 749.35L86.55 686.42C81.93 679.13 86.74 669.22 94.9 669.22L135.6 669.22Z" stroke="#000000" stroke-opacity="1.000000" stroke-width="0.750000" stroke-linejoin="round"/>
	</g>
	<g style="mix-blend-mode:normal">
		<path id="Tracé 567" d="M99.26 681.41C104.29 677.03 134.56 675.49 140.97 691.5C145.03 701.66 151.6 725.73 156.99 738.5C162.44 751.42 165.86 768.57 169.13 773.84C171.89 778.29 171.52 783.47 169.66 787.14C167.18 792.02 161.65 792.51 158.33 787.39C157.7 786.42 149.2 772.54 148.3 770.22C147.5 768.16 134.14 747.33 132.28 744.96C131.13 743.5 121.74 729.04 120.62 727.56C118.85 725.23 106.25 704.97 105.39 702.91C103.19 697.68 95.75 684.47 99.26 681.41Z" fill="#000000" fill-opacity="0" fill-rule="nonzero"/>
		<path id="Tracé 567" d="M140.97 691.5C145.03 701.66 151.6 725.73 156.99 738.5C162.44 751.42 165.86 768.57 169.13 773.84C171.89 778.29 171.52 783.47 169.66 787.14C167.18 792.02 161.65 792.51 158.33 787.39C157.7 786.42 149.2 772.54 148.3 770.22C147.5 768.16 134.14 747.33 132.28 744.96C131.13 743.5 121.74 729.04 120.62 727.56C118.85 725.23 106.25 704.97 105.39 702.91C103.19 697.68 95.75 684.47 99.26 681.41C104.29 677.03 134.56 675.49 140.97 691.5Z" stroke="#000000" stroke-opacity="1.000000" stroke-width="1.000000" stroke-linejoin="round"/>
	</g>
	<g style="mix-blend-mode:normal">
		<path id="Tracé 568" d="M136.61 704.96C136.61 704.96 140.49 712.11 140.99 713.67C143.73 722.22 144.75 737.82 148.01 739.71C153.67 743 159.62 761.04 158.17 763.03C155.45 766.75 153.02 766.03 147.87 752.73C145.29 746.08 138.09 738.18 132.19 730.42C126.29 722.66 121.69 715.03 124.31 708.89C129.56 696.62 136.61 704.96 136.61 704.96Z" fill="#000000" fill-opacity="0" fill-rule="nonzero"/>
		<path id="Tracé 568" d="M140.99 713.67C143.73 722.22 144.75 737.82 148.01 739.71C153.67 743 159.62 761.04 158.17 763.03C155.45 766.75 153.02 766.03 147.87 752.73C145.29 746.08 138.09 738.18 132.19 730.42C126.29 722.66 121.69 715.03 124.31 708.89C129.56 696.62 136.61 704.96 136.61 704.96C136.61 704.96 140.49 712.11 140.99 713.67Z" stroke="#000000" stroke-opacity="1.000000" stroke-width="1.250000" stroke-linejoin="round"/>
	</g>
	<g style="mix-blend-mode:normal">
		<path id="Tracé 569" d="M75.42 569.49C106.84 571.37 155.54 576.18 178.74 578.56C186.25 579.33 191.89 584.81 191.89 591.33L191.89 600.54C191.89 606.34 187.38 611.43 180.88 612.95L127.22 625.53C124.82 626.09 122.3 626.13 119.88 625.64L77.19 616.98C71.71 615.87 67.42 612.19 66.1 607.48L59.9 585.34C57.53 576.89 65.36 568.89 75.42 569.49Z" fill="#000000" fill-opacity="0" fill-rule="nonzero"/>
		<path id="Tracé 569" d="M178.74 578.56C186.25 579.33 191.89 584.81 191.89 591.33L191.89 600.54C191.89 606.34 187.38 611.43 180.88 612.95L127.22 625.53C124.82 626.09 122.3 626.13 119.88 625.64L77.19 616.98C71.71 615.87 67.42 612.19 66.1 607.48L59.9 585.34C57.53 576.89 65.36 568.89 75.42 569.49C106.84 571.37 155.54 576.18 178.74 578.56Z" stroke="#000000" stroke-opacity="1.000000" stroke-width="1.000000" stroke-linejoin="round"/>
	</g>
	<g style="mix-blend-mode:normal">
		<path id="Tracé 570" d="M87.64 576.93C116 578.08 149.59 581.71 166.7 584.87C172.67 585.97 177.11 589.56 178.13 593.6C178.98 594.26 179.41 599.5 179.41 600.09C179.41 604.03 173.36 609.54 164.31 611.79C157.58 613.46 150.25 613.74 143.38 614.4C123.37 616.33 134.17 616.56 98.47 606.04C94.09 604.75 78.24 614.18 75.02 604.15C72.49 596.26 68.94 586 70.42 584.83C71.41 578.9 81.39 576.67 87.64 576.93Z" fill="#000000" fill-opacity="0" fill-rule="nonzero"/>
		<path id="Tracé 570" d="M166.7 584.87C172.67 585.97 177.11 589.56 178.13 593.6C178.98 594.26 179.41 599.5 179.41 600.09C179.41 604.03 173.36 609.54 164.31 611.79C157.58 613.46 150.25 613.74 143.38 614.4C123.37 616.33 134.17 616.56 98.47 606.04C94.09 604.75 78.24 614.18 75.02 604.15C72.49 596.26 68.94 586 70.42 584.83C71.41 578.9 81.39 576.67 87.64 576.93C116 578.08 149.59 581.71 166.7 584.87Z" stroke="#000000" stroke-opacity="1.000000" stroke-width="0.750000" stroke-linejoin="round"/>
	</g>
	<g style="mix-blend-mode:normal">
		<path id="Tracé 571" d="M103.39 586.27C141.01 586.26 160.89 594.15 160.89 599.37C160.89 601.16 154.39 606.29 144.44 608.79C135.85 610.95 126.32 599.87 123.82 599.17C112 595.86 92.91 604.15 91.34 596.63C90.13 590.83 99.86 586.28 103.39 586.27Z" fill="#000000" fill-opacity="0" fill-rule="nonzero"/>
		<path id="Tracé 571" d="M160.89 599.37C160.89 601.16 154.39 606.29 144.44 608.79C135.85 610.95 126.32 599.87 123.82 599.17C112 595.86 92.91 604.15 91.34 596.63C90.13 590.83 99.86 586.28 103.39 586.27C141.01 586.26 160.89 594.15 160.89 599.37Z" stroke="#000000" stroke-opacity="1.000000" stroke-width="1.250000" stroke-linejoin="round"/>
	</g>
	<g style="mix-blend-mode:normal">
		<path id="Tracé 572" d="M440.23 73.75C436.72 75.59 434.36 79.31 433.87 83.41C432.85 85.03 432.27 107.81 432.02 109.77C431.85 111.16 431.88 133.2 431.95 134.29C432.34 140.61 435.65 145.94 440.62 147.32C440.92 147.59 460.44 152.42 462.75 152.78C466.59 153.38 470.34 152.78 473.01 150.48C477.17 146.9 484.44 140.86 492.23 134.18C498.34 128.91 504.54 123.24 509.19 118.58C518.04 109.74 519.01 102.45 532.11 97.21C537.13 95.2 537.35 88.13 532.53 85.68C523.71 81.19 509.02 76.64 498.56 73.61C488.97 70.87 478.28 68.95 468.07 68.67C457.74 68.4 447.88 69.75 440.23 73.75Z" fill="#000000" fill-opacity="0" fill-rule="nonzero"/>
		<path id="Tracé 572" d="M433.87 83.41C432.85 85.03 432.27 107.81 432.02 109.77C431.85 111.16 431.88 133.2 431.95 134.29C432.34 140.61 435.65 145.94 440.62 147.32C440.92 147.59 460.44 152.42 462.75 152.78C466.59 153.38 470.34 152.78 473.01 150.48C477.17 146.9 484.44 140.86 492.23 134.18C498.34 128.91 504.54 123.24 509.19 118.58C518.04 109.74 519.01 102.45 532.11 97.21C537.13 95.2 537.35 88.13 532.53 85.68C523.71 81.19 509.02 76.64 498.56 73.61C488.97 70.87 478.28 68.95 468.07 68.67C457.74 68.4 447.88 69.75 440.23 73.75C436.72 75.59 434.36 79.31 433.87 83.41Z" stroke="#000000" stroke-opacity="1.000000" stroke-width="1.000000" stroke-linejoin="round"/>
	</g>
	<g style="mix-blend-mode:normal">
		<path id="Tracé 573" d="M448.78 79.33C445.92 80.98 444.27 84.05 442.86 87.12C441.26 90.6 439.66 104.84 439.16 108.77C438.81 111.54 438.85 124.56 439.02 126.74C439.4 131.7 441.47 135.72 444.51 136.91C445.11 137.46 459.24 141.57 463.86 142.21C467.45 142.71 470.8 142.31 472.86 140.44C476.44 137.19 483.43 131.37 490.41 125.22C496.56 119.77 502.32 114.01 505.19 110.2C521.57 88.48 497.15 81.57 486.31 78.62C479.95 76.89 473.06 75.79 466.58 75.7C459.87 75.62 453.57 76.58 448.78 79.33Z" fill="#000000" fill-opacity="0" fill-rule="nonzero"/>
		<path id="Tracé 573" d="M442.86 87.12C441.26 90.6 439.66 104.84 439.16 108.77C438.81 111.54 438.85 124.56 439.02 126.74C439.4 131.7 441.47 135.72 444.51 136.91C445.11 137.46 459.24 141.57 463.86 142.21C467.45 142.71 470.8 142.31 472.86 140.44C476.44 137.19 483.43 131.37 490.41 125.22C496.56 119.77 502.32 114.01 505.19 110.2C521.57 88.48 497.15 81.57 486.31 78.62C479.95 76.89 473.06 75.79 466.58 75.7C459.87 75.62 453.57 76.58 448.78 79.33C445.92 80.98 444.27 84.05 442.86 87.12Z" stroke="#000000" stroke-opacity="1.000000" stroke-width="0.750000" stroke-linejoin="round"/>
	</g>
	<g style="mix-blend-mode:normal">
		<path id="Tracé 574" d="M448.39 126.52C449.72 127.73 468.26 134.81 472.7 130.42C475.68 127.47 482.41 121.9 488.59 116.28C494.77 110.66 500.4 104.99 501.19 101.84C502.36 97.14 494.22 90.92 484.38 86.87C474.53 82.82 462.98 80.93 457.32 84.91C450.69 89.58 447.4 99.02 446.3 107.78C445.2 116.54 446.28 124.6 448.39 126.52Z" fill="#000000" fill-opacity="0" fill-rule="nonzero"/>
		<path id="Tracé 574" d="M472.7 130.42C475.68 127.47 482.41 121.9 488.59 116.28C494.77 110.66 500.4 104.99 501.19 101.84C502.36 97.14 494.22 90.92 484.38 86.87C474.53 82.82 462.98 80.93 457.32 84.91C450.69 89.58 447.4 99.02 446.3 107.78C445.2 116.54 446.28 124.6 448.39 126.52C449.72 127.73 468.26 134.81 472.7 130.42Z" stroke="#000000" stroke-opacity="1.000000" stroke-width="1.250000" stroke-linejoin="round"/>
	</g>
	<g style="mix-blend-mode:normal">
		<path id="Tracé 575" d="M434.67 65.44C430.14 67.81 427.09 72.62 426.45 77.91C425.13 80 424.38 109.43 424.06 111.96C423.83 113.75 423.88 142.23 423.97 143.64C424.47 151.8 428.75 158.69 435.17 160.47C435.56 160.82 460.77 167.06 463.75 167.53C468.71 168.31 473.56 167.53 477.01 164.56C482.38 159.94 491.77 152.13 501.83 143.51C509.72 136.7 517.73 129.37 523.74 123.36C535.17 111.94 536.43 102.53 553.34 95.76C559.82 93.17 560.11 84.04 553.89 80.87C542.49 75.07 523.52 69.2 510 65.28C497.61 61.74 483.8 59.26 470.61 58.9C457.27 58.55 444.55 60.27 434.67 65.44Z" fill="#000000" fill-opacity="0" fill-rule="nonzero"/>
		<path id="Tracé 575" d="M426.45 77.91C425.13 80 424.38 109.43 424.06 111.96C423.83 113.75 423.88 142.23 423.97 143.64C424.47 151.8 428.75 158.69 435.17 160.47C435.56 160.82 460.77 167.06 463.75 167.53C468.71 168.31 473.56 167.53 477.01 164.56C482.38 159.94 491.77 152.13 501.83 143.51C509.72 136.7 517.73 129.37 523.74 123.36C535.17 111.94 536.43 102.53 553.34 95.76C559.82 93.17 560.11 84.04 553.89 80.87C542.49 75.07 523.52 69.2 510 65.28C497.61 61.74 483.8 59.26 470.61 58.9C457.27 58.55 444.55 60.27 434.67 65.44C430.14 67.81 427.09 72.62 426.45 77.91Z" stroke="#000000" stroke-opacity="1.000000" stroke-width="0.750000" stroke-linejoin="round"/>
	</g>
	<g style="mix-blend-mode:normal">
		<path id="Tracé 576" d="M441.33 177.84L461.78 182.12C467.1 183.23 484.95 182.84 485.28 194.89C486.01 222.32 522.45 284.81 522.45 284.81C528.63 289.75 527.85 297 523.31 302.26C507.54 320.52 492.82 347.74 484.02 365.55C479.38 374.95 466.9 378.38 457.49 372.86L418.87 350.22C413.21 346.9 409.93 340.98 410.31 334.77L418.93 193.59C419.57 183.03 430.24 175.52 441.33 177.84Z" fill="#000000" fill-opacity="0" fill-rule="nonzero"/>
		<path id="Tracé 576" d="M461.78 182.12C467.1 183.23 484.95 182.84 485.28 194.89C486.01 222.32 522.45 284.81 522.45 284.81C528.63 289.75 527.85 297 523.31 302.26C507.54 320.52 492.82 347.74 484.02 365.55C479.38 374.95 466.9 378.38 457.49 372.86L418.87 350.22C413.21 346.9 409.93 340.98 410.31 334.77L418.93 193.59C419.57 183.03 430.24 175.52 441.33 177.84L461.78 182.12Z" stroke="#000000" stroke-opacity="1.000000" stroke-width="0.750000" stroke-linejoin="round"/>
	</g>
	<g style="mix-blend-mode:normal">
		<path id="Tracé 577" d="M432.44 207.24C432.95 198.19 439.73 194.31 448.24 193.55C458.33 192.65 462.31 196.24 463.52 196.59C473.38 199.45 475.72 209.83 479.14 218.28C484.18 230.73 490.04 243.27 496.96 254.94C500.53 260.95 504.39 266.78 508.6 272.36C512.5 277.54 514.87 284.67 511.85 290.92C511.45 291.76 511.01 292.61 510.51 293.49C508.41 297.18 505.52 300.65 503.07 304.35C500.32 308.49 497.75 312.86 495.28 317.21C489.92 326.66 485.2 336.22 481.39 344.48C477.9 352.04 471.97 369.55 464.9 365.12C464.9 365.12 461.93 353.58 448.98 345.52C443.48 342.09 430.47 347.82 424.41 341.43C412.72 329.1 425.13 301.38 426.35 281.12C428.66 242.72 432.02 214.87 432.44 207.24Z" fill="#000000" fill-opacity="0" fill-rule="nonzero"/>
		<path id="Tracé 577" d="M448.24 193.55C458.33 192.65 462.31 196.24 463.52 196.59C473.38 199.45 475.72 209.83 479.14 218.28C484.18 230.73 490.04 243.27 496.96 254.94C500.53 260.95 504.39 266.78 508.6 272.36C512.5 277.54 514.87 284.67 511.85 290.92C511.45 291.76 511.01 292.61 510.51 293.49C508.41 297.18 505.52 300.65 503.07 304.35C500.32 308.49 497.75 312.86 495.28 317.21C489.92 326.66 485.2 336.22 481.39 344.48C477.9 352.04 471.97 369.55 464.9 365.12C464.9 365.12 461.93 353.58 448.98 345.52C443.48 342.09 430.47 347.82 424.41 341.43C412.72 329.1 425.13 301.38 426.35 281.12C428.66 242.72 432.02 214.87 432.44 207.24C432.95 198.19 439.73 194.31 448.24 193.55Z" stroke="#000000" stroke-opacity="1.000000" stroke-width="1.250000" stroke-linejoin="round"/>
	</g>
	<g style="mix-blend-mode:normal">
		<path id="Tracé 578" d="M438.76 228.31C439.18 221.22 443.85 218.12 450.69 217.47C451.2 217.42 452.92 217.7 453.5 217.75C455.3 217.88 461.09 218.99 462.85 219.48C465.89 220.34 468.5 222.03 470.62 224.24C473.05 226.78 475.73 238.21 477.38 241.22C479.5 245.1 486.68 258.08 488.82 261.95C490.43 264.85 498.7 273.57 500.3 276.48C502.35 280.21 504.04 284.39 502.9 288.33C502.7 289.03 502.44 289.74 502.1 290.46C500.66 293.51 498.03 296.08 495.99 298.88C493.67 302.06 491.55 305.44 489.49 308.8C485.13 315.9 481.25 323.17 477.93 329.88C475.14 335.52 467.66 337.57 462.02 334.26L438.86 320.68C435.46 318.69 433.5 315.14 433.72 311.41C434.69 295.47 437.83 244.26 438.76 228.31Z" fill="#000000" fill-opacity="0" fill-rule="nonzero"/>
		<path id="Tracé 578" d="M450.69 217.47C451.2 217.42 452.92 217.7 453.5 217.75C455.3 217.88 461.09 218.99 462.85 219.48C465.89 220.34 468.5 222.03 470.62 224.24C473.05 226.78 475.73 238.21 477.38 241.22C479.5 245.1 486.68 258.08 488.82 261.95C490.43 264.85 498.7 273.57 500.3 276.48C502.35 280.21 504.04 284.39 502.9 288.33C502.7 289.03 502.44 289.74 502.1 290.46C500.66 293.51 498.03 296.08 495.99 298.88C493.67 302.06 491.55 305.44 489.49 308.8C485.13 315.9 481.25 323.17 477.93 329.88C475.14 335.52 467.66 337.57 462.02 334.26L438.86 320.68C435.46 318.69 433.5 315.14 433.72 311.41C434.69 295.47 437.83 244.26 438.76 228.31C439.18 221.22 443.85 218.12 450.69 217.47Z" stroke="#000000" stroke-opacity="1.000000" stroke-width="0.750000" stroke-linejoin="round"/>
	</g>
	<g style="mix-blend-mode:normal">
		<path id="Tracé 579" d="M455.97 230.71C460.73 231.06 462.97 233.09 466.58 236.38C470.05 239.55 471.93 244 474.13 248.02C476.96 253.19 479.83 258.34 482.68 263.5C484.83 267.36 486.97 271.24 489.09 275.11C491.01 278.62 497.09 281.34 495.8 285.61C494.97 288.35 492.53 290.33 490.84 292.56C488.88 295.15 487.16 297.93 485.44 300.68C481.95 306.28 478.81 312.09 475.89 317.99C473.72 322.37 467.9 323.97 463.52 321.4L445.51 310.84C442.87 309.29 441.34 306.53 441.52 303.63C442.82 282.38 444.13 261.13 445.38 239.87C445.77 233.2 449.04 230.21 455.97 230.71Z" fill="#000000" fill-opacity="0" fill-rule="nonzero"/>
		<path id="Tracé 579" d="M466.58 236.38C470.05 239.55 471.93 244 474.13 248.02C476.96 253.19 479.83 258.34 482.68 263.5C484.83 267.36 486.97 271.24 489.09 275.11C491.01 278.62 497.09 281.34 495.8 285.61C494.97 288.35 492.53 290.33 490.84 292.56C488.88 295.15 487.16 297.93 485.44 300.68C481.95 306.28 478.81 312.09 475.89 317.99C473.72 322.37 467.9 323.97 463.52 321.4L445.51 310.84C442.87 309.29 441.34 306.53 441.52 303.63C442.82 282.38 444.13 261.13 445.38 239.87C445.77 233.2 449.04 230.21 455.97 230.71C460.73 231.06 462.97 233.09 466.58 236.38Z" stroke="#000000" stroke-opacity="1.000000" stroke-width="0.750000" stroke-linejoin="round"/>
	</g>
	<g style="mix-blend-mode:normal">
		<path id="Tracé 580" d="M461.06 248.92C465.91 249.27 468.88 255.44 470.69 259.16C472.17 262.2 473.6 265.32 475.62 268.07C477.57 270.72 481.25 272.3 482.78 275.08C483.94 277.2 485.88 279.48 485.1 282.06C484.6 283.71 483.13 284.91 482.11 286.25C480.93 287.82 479.89 289.49 478.85 291.15C476.74 294.53 474.85 298.04 473.09 301.6C471.78 304.25 468.27 305.21 465.62 303.66L454.75 297.29C453.16 296.36 452.23 294.69 452.34 292.94C453.12 280.11 453.92 267.28 454.67 254.45C454.91 250.42 456.88 248.62 461.06 248.92Z" fill="#000000" fill-opacity="0" fill-rule="nonzero"/>
		<path id="Tracé 580" d="M470.69 259.16C472.17 262.2 473.6 265.32 475.62 268.07C477.57 270.72 481.25 272.3 482.78 275.08C483.94 277.2 485.88 279.48 485.1 282.06C484.6 283.71 483.13 284.91 482.11 286.25C480.93 287.82 479.89 289.49 478.85 291.15C476.74 294.53 474.85 298.04 473.09 301.6C471.78 304.25 468.27 305.21 465.62 303.66L454.75 297.29C453.16 296.36 452.23 294.69 452.34 292.94C453.12 280.11 453.92 267.28 454.67 254.45C454.91 250.42 456.88 248.62 461.06 248.92C465.91 249.27 468.88 255.44 470.69 259.16Z" stroke="#000000" stroke-opacity="1.000000" stroke-width="0.750000" stroke-linejoin="round"/>
	</g>
	<rect id="Albums" width="175.404327" height="155.560120" transform="translate(59.287842 390.892883)" fill="#FFFFFF" fill-opacity="0"/>
	<g style="mix-blend-mode:normal">
		<path id="Tracé 581" d="M97.85 405.1C81.34 405.74 74.34 417.33 71.66 434.06C66.92 463.7 55.64 509.01 60.46 522.27C64.23 532.62 72.52 525.95 90.91 526.7C110.21 527.49 122.26 530.63 138.94 534.5C148.42 536.7 180.92 550.07 189.29 545.51C196.63 541.51 198.07 525.2 199.46 516.58C208.51 460.44 223.28 446.49 231.3 435.1C251.09 407.03 179.19 384 146.57 392.79C136.54 395.49 108.57 404.69 97.85 405.1Z" fill="#000000" fill-opacity="0" fill-rule="nonzero"/>
		<path id="Tracé 581" d="M71.66 434.06C66.92 463.7 55.64 509.01 60.46 522.27C64.23 532.62 72.52 525.95 90.91 526.7C110.21 527.49 122.26 530.63 138.94 534.5C148.42 536.7 180.92 550.07 189.29 545.51C196.63 541.51 198.07 525.2 199.46 516.58C208.51 460.44 223.28 446.49 231.3 435.1C251.09 407.03 179.19 384 146.57 392.79C136.54 395.49 108.57 404.69 97.85 405.1C81.34 405.74 74.34 417.33 71.66 434.06Z" stroke="#000000" stroke-opacity="1.000000" stroke-width="1.000000" stroke-linejoin="round"/>
	</g>
	<g style="mix-blend-mode:normal">
		<path id="Tracé 582" d="M108.18 418.51C87.5 421.1 81.46 422.16 79.03 437.3C77.4 447.46 84.68 460.6 82.01 473.08C77.64 493.53 64.25 512.18 72.14 513C89.99 514.85 126.44 525.78 155.92 532.63C172.02 536.37 192 528.71 194.69 512C202.88 461.19 216.25 448.56 223.51 438.26C241.42 412.85 175.08 396.71 145.28 403.55C136.28 405.61 120.26 417 108.18 418.51Z" fill="#000000" fill-opacity="0" fill-rule="nonzero"/>
		<path id="Tracé 582" d="M79.03 437.3C77.4 447.46 84.68 460.6 82.01 473.08C77.64 493.53 64.25 512.18 72.14 513C89.99 514.85 126.44 525.78 155.92 532.63C172.02 536.37 192 528.71 194.69 512C202.88 461.19 216.25 448.56 223.51 438.26C241.42 412.85 175.08 396.71 145.28 403.55C136.28 405.61 120.26 417 108.18 418.51C87.5 421.1 81.46 422.16 79.03 437.3Z" stroke="#000000" stroke-opacity="1.000000" stroke-width="0.750000" stroke-linejoin="round"/>
	</g>
	<g style="mix-blend-mode:normal">
		<path id="Tracé 583" d="M111.59 423.39C98.32 425.16 88.58 426.99 86.41 440.54C85.16 448.35 89.86 465.06 88.64 473.04C86.12 489.62 78.68 496.33 83.74 502.15C90.32 509.72 128.85 519.74 155.24 525.87C169.65 529.22 187.54 522.36 189.95 507.4C197.28 461.92 209.25 450.61 215.75 441.39C231.78 418.64 172.86 406.7 145.73 410.32L111.59 423.39Z" fill="#000000" fill-opacity="0" fill-rule="nonzero"/>
		<path id="Tracé 583" d="M86.41 440.54C85.16 448.35 89.86 465.06 88.64 473.04C86.12 489.62 78.68 496.33 83.74 502.15C90.32 509.72 128.85 519.74 155.24 525.87C169.65 529.22 187.54 522.36 189.95 507.4C197.28 461.92 209.25 450.61 215.75 441.39C231.78 418.64 172.86 406.7 145.73 410.32L111.59 423.39C98.32 425.16 88.58 426.99 86.41 440.54Z" stroke="#000000" stroke-opacity="1.000000" stroke-width="1.250000" stroke-linejoin="round"/>
	</g>
	<g style="mix-blend-mode:normal">
		<path id="Tracé 584" d="M121.08 427.27C110.92 428.62 102.82 436.64 101.15 447.02C98.21 465.41 93.36 487.59 99.11 494.2C104.15 500 133.65 507.67 153.86 512.36C164.89 514.92 178.59 509.67 180.44 498.22C186.05 463.39 195.22 454.74 200.19 447.67C212.47 430.25 167.34 421.11 146.57 423.88L121.08 427.27Z" fill="#000000" fill-opacity="0" fill-rule="nonzero"/>
		<path id="Tracé 584" d="M101.15 447.02C98.21 465.41 93.36 487.59 99.11 494.2C104.15 500 133.65 507.67 153.86 512.36C164.89 514.92 178.59 509.67 180.44 498.22C186.05 463.39 195.22 454.74 200.19 447.67C212.47 430.25 167.34 421.11 146.57 423.88L121.08 427.27C110.92 428.62 102.82 436.64 101.15 447.02Z" stroke="#000000" stroke-opacity="1.000000" stroke-width="0.750000" stroke-linejoin="round"/>
	</g>
	<g style="mix-blend-mode:normal">
		<path id="Tracé 585" d="M125.41 433.53C105.72 440 118.8 457.18 117.39 465.96C114.9 481.53 101.94 484.62 106.81 490.22C111.08 495.13 136.07 501.63 153.18 505.6C162.53 507.77 174.13 503.32 175.69 493.62C180.44 464.12 188.21 456.79 192.42 450.8C202.82 436.05 164.6 428.3 147 430.65L125.41 433.53Z" fill="#000000" fill-opacity="0" fill-rule="nonzero"/>
		<path id="Tracé 585" d="M117.39 465.96C114.9 481.53 101.94 484.62 106.81 490.22C111.08 495.13 136.07 501.63 153.18 505.6C162.53 507.77 174.13 503.32 175.69 493.62C180.44 464.12 188.21 456.79 192.42 450.8C202.82 436.05 164.6 428.3 147 430.65L125.41 433.53C105.72 440 118.8 457.18 117.39 465.96Z" stroke="#000000" stroke-opacity="1.000000" stroke-width="0.750000" stroke-linejoin="round"/>
	</g>
	<g style="mix-blend-mode:normal">
		<path id="Tracé 586" d="M129.73 439.79C123.15 442.5 127.11 459.52 125.96 466.72C123.92 479.48 133.82 480.29 137.81 484.87C141.31 488.89 138.46 495.59 152.49 498.85C160.15 500.63 169.66 496.98 170.94 489.03C174.83 464.86 181.19 458.85 184.65 453.95C193.17 441.86 161.85 435.52 147.44 437.43C147.44 437.43 136.26 437.09 129.73 439.79Z" fill="#000000" fill-opacity="0" fill-rule="nonzero"/>
		<path id="Tracé 586" d="M125.96 466.72C123.92 479.48 133.82 480.29 137.81 484.87C141.31 488.89 138.46 495.59 152.49 498.85C160.15 500.63 169.66 496.98 170.94 489.03C174.83 464.86 181.19 458.85 184.65 453.95C193.17 441.86 161.85 435.52 147.44 437.43C147.44 437.43 136.26 437.09 129.73 439.79C123.15 442.5 127.11 459.52 125.96 466.72Z" stroke="#000000" stroke-opacity="1.000000" stroke-width="1.250000" stroke-linejoin="round"/>
	</g>
	<g style="mix-blend-mode:normal">
		<path id="Tracé 587" d="M147.92 455.29C144.59 455.73 141.94 458.36 141.4 461.76C140.44 467.78 138.85 475.04 140.73 477.21C142.38 479.11 152.04 481.62 158.65 483.16C162.26 484 166.75 482.28 167.35 478.53C169.19 467.13 172.19 464.29 173.82 461.98C177.84 456.28 163.07 453.28 156.27 454.19L147.92 455.29Z" fill="#000000" fill-opacity="0" fill-rule="nonzero"/>
		<path id="Tracé 587" d="M141.4 461.76C140.44 467.78 138.85 475.04 140.73 477.21C142.38 479.11 152.04 481.62 158.65 483.16C162.26 484 166.75 482.28 167.35 478.53C169.19 467.13 172.19 464.29 173.82 461.98C177.84 456.28 163.07 453.28 156.27 454.19L147.92 455.29C144.59 455.73 141.94 458.36 141.4 461.76Z" stroke="#000000" stroke-opacity="1.000000" stroke-width="1.000000" stroke-linejoin="round"/>
	</g>
	<g style="mix-blend-mode:normal">
		<path id="Tracé 588" d="M446.16 777.85C438.49 771.54 426.6 776.32 425.9 786C423.76 815.66 408.76 809.63 428.34 914.75C432.02 934.51 422.36 942.36 425.21 950.04C436.18 979.63 599.24 943.6 620.79 928.08C641.32 913.29 535.51 848.99 525.45 842.94C524.93 842.63 524.45 842.29 523.98 841.9L446.16 777.85Z" fill="#000000" fill-opacity="0" fill-rule="nonzero"/>
		<path id="Tracé 588" d="M425.9 786C423.76 815.66 408.76 809.63 428.34 914.75C432.02 934.51 422.36 942.36 425.21 950.04C436.18 979.63 599.24 943.6 620.79 928.08C641.32 913.29 535.51 848.99 525.45 842.94C524.93 842.63 524.45 842.29 523.98 841.9L446.16 777.85C438.49 771.54 426.6 776.32 425.9 786Z" stroke="#000000" stroke-opacity="1.000000" stroke-width="1.000000" stroke-linejoin="round"/>
	</g>
	<g style="mix-blend-mode:normal">
		<path id="Tracé 589" d="M523.52 852.12C523.09 851.85 520.55 847.7 520.18 847.37C519.32 846.61 444.03 787.01 444 787.47C437.45 784.37 446.13 809.21 445.78 818.35C445.03 837.85 430.34 832.16 431.75 858.84C432.61 875.14 444.22 905.23 448.38 924.63C451.03 937 439.28 941.29 440.79 944.81C451.05 968.79 591 938.23 607.23 924.09C622.61 910.69 533.57 858.37 523.52 852.12Z" fill="#000000" fill-opacity="0" fill-rule="nonzero"/>
		<path id="Tracé 589" d="M520.18 847.37C519.32 846.61 444.03 787.01 444 787.47C437.45 784.37 446.13 809.21 445.78 818.35C445.03 837.85 430.34 832.16 431.75 858.84C432.61 875.14 444.22 905.23 448.38 924.63C451.03 937 439.28 941.29 440.79 944.81C451.05 968.79 591 938.23 607.23 924.09C622.61 910.69 533.57 858.37 523.52 852.12C523.09 851.85 520.55 847.7 520.18 847.37Z" stroke="#000000" stroke-opacity="1.000000" stroke-width="1.250000" stroke-linejoin="round"/>
	</g>
	<g style="mix-blend-mode:normal">
		<path id="Tracé 590" d="M521.61 861.21C521.27 860.99 516.69 853.03 516.39 852.77C514.68 851.26 461 810.29 460.93 811.22C455.5 811.33 452.24 826.37 452.25 834.96C452.31 867.79 463.39 927.59 470.53 941.24C480.09 959.52 582.85 932.57 593.68 919.91C603.99 907.86 531.66 867.63 521.61 861.21Z" fill="#000000" fill-opacity="0" fill-rule="nonzero"/>
		<path id="Tracé 590" d="M516.39 852.77C514.68 851.26 461 810.29 460.93 811.22C455.5 811.33 452.24 826.37 452.25 834.96C452.31 867.79 463.39 927.59 470.53 941.24C480.09 959.52 582.85 932.57 593.68 919.91C603.99 907.86 531.66 867.63 521.61 861.21C521.27 860.99 516.69 853.03 516.39 852.77Z" stroke="#000000" stroke-opacity="1.000000" stroke-width="0.750000" stroke-linejoin="round"/>
	</g>
	<g style="mix-blend-mode:normal">
		<path id="Tracé 591" d="M521.09 873.25C520.85 873.09 510.61 857.17 510.4 856.98C507.96 854.81 468.35 826.55 468.25 827.88C464.14 831.07 465.08 850.4 465.47 858.15C466.74 883.79 485.56 923.6 491.82 932.58C500.21 944.62 569.53 922.89 574.69 912.27C579.78 901.79 530.66 879.59 521.09 873.25Z" fill="#000000" fill-opacity="0" fill-rule="nonzero"/>
		<path id="Tracé 591" d="M510.4 856.98C507.96 854.81 468.35 826.55 468.25 827.88C464.14 831.07 465.08 850.4 465.47 858.15C466.74 883.79 485.56 923.6 491.82 932.58C500.21 944.62 569.53 922.89 574.69 912.27C579.78 901.79 530.66 879.59 521.09 873.25C520.85 873.09 510.61 857.17 510.4 856.98Z" stroke="#000000" stroke-opacity="1.000000" stroke-width="1.000000" stroke-linejoin="round"/>
	</g>
	<g opacity="0.990000" style="mix-blend-mode:normal">
		<path id="Tracé 592" d="M514.85 876.84C514.7 876.74 506.63 862.38 506.49 862.26C503.3 859.48 476.16 842.92 475.71 844.57C473.97 850.94 477.66 873.79 478.47 880.75C480.68 899.68 507.37 920.95 513.12 925.78C520.46 931.94 560.1 915.08 560.26 906.71C560.44 897.39 524.22 883.12 514.85 876.84Z" fill="#000000" fill-opacity="0" fill-rule="nonzero"/>
		<path id="Tracé 592" d="M506.49 862.26C503.3 859.48 476.16 842.92 475.71 844.57C473.97 850.94 477.66 873.79 478.47 880.75C480.68 899.68 507.37 920.95 513.12 925.78C520.46 931.94 560.1 915.08 560.26 906.71C560.44 897.39 524.22 883.12 514.85 876.84C514.7 876.74 506.63 862.38 506.49 862.26Z" stroke="#000000" stroke-opacity="1.000000" stroke-width="0.750000"/>
	</g>
	<g opacity="0.990000" style="mix-blend-mode:normal">
		<path id="Tracé 593" d="M512.45 884.3C512.36 884.24 507.41 875.3 507.32 875.22C505.36 873.49 488.69 863.2 488.41 864.23C487.33 868.2 489.57 882.44 490.06 886.78C491.39 898.58 507.79 911.81 511.32 914.81C515.83 918.64 540.23 908.09 540.34 902.87C540.46 897.06 518.2 888.21 512.45 884.3Z" fill="#000000" fill-opacity="0" fill-rule="nonzero"/>
		<path id="Tracé 593" d="M507.32 875.22C505.36 873.49 488.69 863.2 488.41 864.23C487.33 868.2 489.57 882.44 490.06 886.78C491.39 898.58 507.79 911.81 511.32 914.81C515.83 918.64 540.23 908.09 540.34 902.87C540.46 897.06 518.2 888.21 512.45 884.3C512.36 884.24 507.41 875.3 507.32 875.22Z" stroke="#000000" stroke-opacity="1.000000" stroke-width="1.250000"/>
	</g>
	<g style="mix-blend-mode:normal">
		<path id="Tracé 594" d="M651.16 772.61C647.22 767.68 639.67 768.7 637.08 774.47C630.78 788.53 618.57 809.85 600.27 816.83C572.13 827.58 668.66 899.04 674.73 898.65C678.31 898.42 683.3 884.38 693.06 876.16C699.88 870.42 721.29 870.62 724.17 867.25C726.56 864.45 711.45 825.45 698.28 809.25C680.97 787.95 662.9 787.3 651.16 772.61Z" fill="#000000" fill-opacity="0" fill-rule="nonzero"/>
		<path id="Tracé 594" d="M637.08 774.47C630.78 788.53 618.57 809.85 600.27 816.83C572.13 827.58 668.66 899.04 674.73 898.65C678.31 898.42 683.3 884.38 693.06 876.16C699.88 870.42 721.29 870.62 724.17 867.25C726.56 864.45 711.45 825.45 698.28 809.25C680.97 787.95 662.9 787.3 651.16 772.61C647.22 767.68 639.67 768.7 637.08 774.47Z" stroke="#000000" stroke-opacity="1.000000" stroke-width="1.000000" stroke-linejoin="round"/>
	</g>
	<g style="mix-blend-mode:normal">
		<path id="Tracé 595" d="M662.49 795.31C645.12 801.63 651.37 774.45 645.26 780.93C637.38 789.31 614.03 825.43 609.64 826.82C597.38 830.7 663.76 886.93 669.2 886.74C672.1 886.63 678.98 876.43 685.38 865.74C689.98 858.06 713.67 864.74 716.14 860.12C716.81 858.86 709.52 843.92 696.68 827.99C683.05 811.07 677.28 789.93 662.49 795.31Z" fill="#000000" fill-opacity="0" fill-rule="nonzero"/>
		<path id="Tracé 595" d="M645.26 780.93C637.38 789.31 614.03 825.43 609.64 826.82C597.38 830.7 663.76 886.93 669.2 886.74C672.1 886.63 678.98 876.43 685.38 865.74C689.98 858.06 713.67 864.74 716.14 860.12C716.81 858.86 709.52 843.92 696.68 827.99C683.05 811.07 677.28 789.93 662.49 795.31C645.12 801.63 651.37 774.45 645.26 780.93Z" stroke="#000000" stroke-opacity="1.000000" stroke-width="0.750000" stroke-linejoin="round"/>
	</g>
	<g style="mix-blend-mode:normal">
		<path id="Tracé 596" d="M652.12 813.82C644.34 816.5 647.06 805.17 644.34 807.89C640.83 811.4 630.46 826.5 628.49 827.09C623 828.74 652.97 851.94 655.41 851.84C656.71 851.78 659.77 847.52 662.61 843.05C664.65 839.84 675.31 842.55 676.4 840.62C676.7 840.09 673.38 833.9 667.57 827.31C661.4 820.31 658.74 811.54 652.12 813.82Z" fill="#000000" fill-opacity="0" fill-rule="nonzero"/>
		<path id="Tracé 596" d="M644.34 807.89C640.83 811.4 630.46 826.5 628.49 827.09C623 828.74 652.97 851.94 655.41 851.84C656.71 851.78 659.77 847.52 662.61 843.05C664.65 839.84 675.31 842.55 676.4 840.62C676.7 840.09 673.38 833.9 667.57 827.31C661.4 820.31 658.74 811.54 652.12 813.82C644.34 816.5 647.06 805.17 644.34 807.89Z" stroke="#000000" stroke-opacity="1.000000" stroke-width="1.000000" stroke-linejoin="round"/>
	</g>
	<g style="mix-blend-mode:normal">
		<path id="Tracé 597" d="M657.3 803.76C644.61 808.72 646.08 788.58 641.64 793.6C635.91 800.09 621.95 826.09 618.73 827.18C609.76 830.23 658.69 873.11 662.67 872.94C664.8 872.84 669.78 864.95 674.42 856.7C677.75 850.77 695.15 855.77 696.93 852.2C697.41 851.23 692 839.78 682.51 827.6C672.44 814.66 668.11 799.54 657.3 803.76Z" fill="#000000" fill-opacity="0" fill-rule="nonzero"/>
		<path id="Tracé 597" d="M641.64 793.6C635.91 800.09 621.95 826.09 618.73 827.18C609.76 830.23 658.69 873.11 662.67 872.94C664.8 872.84 669.78 864.95 674.42 856.7C677.75 850.77 695.15 855.77 696.93 852.2C697.41 851.23 692 839.78 682.51 827.6C672.44 814.66 668.11 799.54 657.3 803.76C644.61 808.72 646.08 788.58 641.64 793.6Z" stroke="#000000" stroke-opacity="1.000000" stroke-width="1.250000" stroke-linejoin="round"/>
	</g>
	<rect id="GAËLE&amp;BICHE" width="179.774475" height="222.179993" transform="translate(676.143555 591.154297)" fill="#FFFFFF" fill-opacity="0"/>
	<g style="mix-blend-mode:normal">
		<path id="Tracé 598" d="M703.01 616.03C706.4 606.31 715.63 599.67 726.29 599.22C735.7 598.82 753.7 587.8 785.35 592.18C823.27 597.42 856.77 608.6 855.9 626.29C855.27 639.26 839.69 646.05 833.29 664.31C823.47 692.33 822.97 732.33 809.26 756.46C783.5 801.83 759.66 821.55 748.93 810.18C738.77 799.41 738.81 770.22 730.84 756.04C718.78 734.58 699.23 727.9 684.21 716.2C662.54 699.31 690.51 678.92 698.45 654.93C702.13 643.81 700.14 624.26 703.01 616.03Z" fill="#000000" fill-opacity="0" fill-rule="nonzero"/>
		<path id="Tracé 598" d="M726.29 599.22C735.7 598.82 753.7 587.8 785.35 592.18C823.27 597.42 856.77 608.6 855.9 626.29C855.27 639.26 839.69 646.05 833.29 664.31C823.47 692.33 822.97 732.33 809.26 756.46C783.5 801.83 759.66 821.55 748.93 810.18C738.77 799.41 738.81 770.22 730.84 756.04C718.78 734.58 699.23 727.9 684.21 716.2C662.54 699.31 690.51 678.92 698.45 654.93C702.13 643.81 700.14 624.26 703.01 616.03C706.4 606.31 715.63 599.67 726.29 599.22Z" stroke="#000000" stroke-opacity="1.000000" stroke-width="1.000000" stroke-linejoin="round"/>
	</g>
	<g style="mix-blend-mode:normal">
		<path id="Tracé 599" d="M713.29 623.6C716.62 617.18 724.04 607.35 732.54 607.19C746.11 606.94 773.16 603.71 796.04 605.96C817 608.02 834.16 620.65 835.1 625.92C836.02 631.1 816.54 703.14 798.49 730.44C788.32 745.82 791.05 757.45 783.72 767.5C758.91 801.51 755.46 783.19 747.32 773.59C738.79 763.54 735.98 744.32 728.82 733.13C719.07 717.9 706.74 710.78 697.37 700.72C685.66 688.15 699.75 674.1 706.79 659.97C707.86 657.82 708.75 655.54 709.41 653.21C711.92 644.28 710.37 629.22 713.29 623.6Z" fill="#000000" fill-opacity="0" fill-rule="nonzero"/>
		<path id="Tracé 599" d="M732.54 607.19C746.11 606.94 773.16 603.71 796.04 605.96C817 608.02 834.16 620.65 835.1 625.92C836.02 631.1 816.54 703.14 798.49 730.44C788.32 745.82 791.05 757.45 783.72 767.5C758.91 801.51 755.46 783.19 747.32 773.59C738.79 763.54 735.98 744.32 728.82 733.13C719.07 717.9 706.74 710.78 697.37 700.72C685.66 688.15 699.75 674.1 706.79 659.97C707.86 657.82 708.75 655.54 709.41 653.21C711.92 644.28 710.37 629.22 713.29 623.6C716.62 617.18 724.04 607.35 732.54 607.19Z" stroke="#000000" stroke-opacity="1.000000" stroke-width="0.750000" stroke-linejoin="round"/>
	</g>
	<g style="mix-blend-mode:normal">
		<path id="Tracé 600" d="M718.44 627.38C721.69 622.62 727.86 619.19 735.28 619.18C758.87 619.14 818.43 620.34 820.12 629.77C821.29 636.31 812.75 676.91 784.89 725.98C776.43 740.88 783.95 757.32 766.36 772.03C759.47 777.79 753.11 762.43 749.43 757.78C741.74 748.07 739.88 736.98 733.09 727.29C724.58 715.14 710.48 702.25 703.94 692.99C695.88 681.57 707.43 669.21 712.82 658.14C713.7 656.33 714.39 654.38 714.89 652.35C716.83 644.52 715.47 631.72 718.44 627.38Z" fill="#000000" fill-opacity="0" fill-rule="nonzero"/>
		<path id="Tracé 600" d="M735.28 619.18C758.87 619.14 818.43 620.34 820.12 629.77C821.29 636.31 812.75 676.91 784.89 725.98C776.43 740.88 783.95 757.32 766.36 772.03C759.47 777.79 753.11 762.43 749.43 757.78C741.74 748.07 739.88 736.98 733.09 727.29C724.58 715.14 710.48 702.25 703.94 692.99C695.88 681.57 707.43 669.21 712.82 658.14C713.7 656.33 714.39 654.38 714.89 652.35C716.83 644.52 715.47 631.72 718.44 627.38C721.69 622.62 727.86 619.19 735.28 619.18Z" stroke="#000000" stroke-opacity="1.000000" stroke-width="1.250000" stroke-linejoin="round"/>
	</g>
	<g style="mix-blend-mode:normal">
		<path id="Tracé 601" d="M723.58 631.17C726.68 628.07 731.94 625.72 738.28 625.84C759.47 626.25 806.96 634.1 808.36 641.94C809.37 647.57 802.53 675.46 778.54 717.71C762.88 745.29 751.33 744.76 745.68 737C738.84 727.61 733.23 718.4 726.76 710.23C719.56 701.13 714.19 693.77 710.49 685.26C706.04 675.04 715.06 664.3 718.82 656.32C719.51 654.86 720 653.23 720.34 651.51C721.7 644.77 720.5 634.25 723.58 631.17Z" fill="#000000" fill-opacity="0" fill-rule="nonzero"/>
		<path id="Tracé 601" d="M738.28 625.84C759.47 626.25 806.96 634.1 808.36 641.94C809.37 647.57 802.53 675.46 778.54 717.71C762.88 745.29 751.33 744.76 745.68 737C738.84 727.61 733.23 718.4 726.76 710.23C719.56 701.13 714.19 693.77 710.49 685.26C706.04 675.04 715.06 664.3 718.82 656.32C719.51 654.86 720 653.23 720.34 651.51C721.7 644.77 720.5 634.25 723.58 631.17C726.68 628.07 731.94 625.72 738.28 625.84Z" stroke="#000000" stroke-opacity="1.000000" stroke-width="0.750000" stroke-linejoin="round"/>
	</g>
	<g style="mix-blend-mode:normal">
		<path id="Tracé 602" d="M728.73 634.95C731.57 633.44 736.02 632.19 741.28 632.49C760.05 633.53 796.09 639.63 797.2 645.88C798.04 650.61 792.31 673.99 772.19 709.43C759.06 732.56 749.31 725.5 744.87 718.7C738.93 709.6 731.98 705.37 725.75 698.77C719.97 692.65 717.86 685.31 717.07 677.52C716.16 668.54 722.7 659.38 724.86 654.48C725.35 653.37 725.64 652.05 725.83 650.64C726.6 645 725.44 636.7 728.73 634.95Z" fill="#000000" fill-opacity="0" fill-rule="nonzero"/>
		<path id="Tracé 602" d="M741.28 632.49C760.05 633.53 796.09 639.63 797.2 645.88C798.04 650.61 792.31 673.99 772.19 709.43C759.06 732.56 749.31 725.5 744.87 718.7C738.93 709.6 731.98 705.37 725.75 698.77C719.97 692.65 717.86 685.31 717.07 677.52C716.16 668.54 722.7 659.38 724.86 654.48C725.35 653.37 725.64 652.05 725.83 650.64C726.6 645 725.44 636.7 728.73 634.95C731.57 633.44 736.02 632.19 741.28 632.49Z" stroke="#000000" stroke-opacity="1.000000" stroke-width="0.750000" stroke-linejoin="round"/>
	</g>
	<g style="mix-blend-mode:normal">
		<path id="Tracé 603" d="M733.47 655.21C734.7 651.67 732.24 643.07 736.12 642.91C747.35 642.44 781.36 647.55 782.28 652.72C782.88 656.1 778.79 672.81 764.41 698.14C755.02 714.67 748.03 702.64 745.13 697.47C740.74 689.65 733.5 690.15 728.03 685.89C720.14 679.74 732.43 658.21 733.47 655.21Z" fill="#000000" fill-opacity="0" fill-rule="nonzero"/>
		<path id="Tracé 603" d="M736.12 642.91C747.35 642.44 781.36 647.55 782.28 652.72C782.88 656.1 778.79 672.81 764.41 698.14C755.02 714.67 748.03 702.64 745.13 697.47C740.74 689.65 733.5 690.15 728.03 685.89C720.14 679.74 732.43 658.21 733.47 655.21C734.7 651.67 732.24 643.07 736.12 642.91Z" stroke="#000000" stroke-opacity="1.000000" stroke-width="1.250000" stroke-linejoin="round"/>
	</g>
	<rect id="La trève" width="338.678345" height="115.040192" transform="translate(544.321533 444.432617)" fill="#FFFFFF" fill-opacity="0"/>
	<g style="mix-blend-mode:normal">
		<path id="Tracé 604" d="M549.6 494.52C749.04 492.73 710.42 462.33 787.13 464.19C851.21 465.74 833.56 439.68 856.71 445.2C872.46 448.95 882.29 482.07 882.91 490.36C884.05 505.56 874.33 563.31 843.98 551.51C806 536.74 744.79 552.1 692.66 556.59C674.6 558.15 657.52 539.45 624.26 544.03C598.6 547.56 591.69 556.04 565.99 559.42C561.38 560.02 534.7 555.62 548 531.52C561.53 507.01 537.08 494.63 549.6 494.52Z" fill="#000000" fill-opacity="0" fill-rule="nonzero"/>
		<path id="Tracé 604" d="M787.13 464.19C851.21 465.74 833.56 439.68 856.71 445.2C872.46 448.95 882.29 482.07 882.91 490.36C884.05 505.56 874.33 563.31 843.98 551.51C806 536.74 744.79 552.1 692.66 556.59C674.6 558.15 657.52 539.45 624.26 544.03C598.6 547.56 591.69 556.04 565.99 559.42C561.38 560.02 534.7 555.62 548 531.52C561.53 507.01 537.08 494.63 549.6 494.52C749.04 492.73 710.42 462.33 787.13 464.19Z" stroke="#000000" stroke-opacity="1.000000" stroke-width="1.000000"/>
	</g>
	<g style="mix-blend-mode:normal">
		<path id="Tracé 605" d="M637.55 535.59C615.27 532.91 592.68 544.74 571.73 547.18C567.97 547.62 546.22 544.44 557.07 527.02C568.11 509.3 548.17 500.36 558.37 500.27C720.96 498.94 709.69 484.73 770.49 475.96C800.75 471.59 864.94 473.41 866.18 488.23C866.5 492.08 843.93 498.7 839.45 507.6C831.17 524.06 852.12 546.28 836.06 540.75C794.37 526.39 687.6 541.61 637.55 535.59Z" fill="#000000" fill-opacity="0" fill-rule="nonzero"/>
		<path id="Tracé 605" d="M571.73 547.18C567.97 547.62 546.22 544.44 557.07 527.02C568.11 509.3 548.17 500.36 558.37 500.27C720.96 498.94 709.69 484.73 770.49 475.96C800.75 471.59 864.94 473.41 866.18 488.23C866.5 492.08 843.93 498.7 839.45 507.6C831.17 524.06 852.12 546.28 836.06 540.75C794.37 526.39 687.6 541.61 637.55 535.59C615.27 532.91 592.68 544.74 571.73 547.18Z" stroke="#000000" stroke-opacity="1.000000" stroke-width="0.750000"/>
	</g>
	<g style="mix-blend-mode:normal">
		<path id="Tracé 606" d="M567.19 505.96C694.82 505.08 701.2 499.02 747.61 486.33C785.99 475.84 843.4 477.42 844.37 486.57C844.71 489.81 825.6 490.26 817.26 499.53C808.16 509.65 835.42 528.33 817.32 525.61C801.51 523.23 766.98 524.08 730.94 525.68C689.64 527.51 671.77 532.96 639.81 528.86C604.08 524.28 609.04 540.4 577.66 534.94C574.76 534.44 557.64 533.25 566.16 522.49C574.83 511.54 559.18 506.02 567.19 505.96Z" fill="#000000" fill-opacity="0" fill-rule="nonzero"/>
		<path id="Tracé 606" d="M747.61 486.33C785.99 475.84 843.4 477.42 844.37 486.57C844.71 489.81 825.6 490.26 817.26 499.53C808.16 509.65 835.42 528.33 817.32 525.61C801.51 523.23 766.98 524.08 730.94 525.68C689.64 527.51 671.77 532.96 639.81 528.86C604.08 524.28 609.04 540.4 577.66 534.94C574.76 534.44 557.64 533.25 566.16 522.49C574.83 511.54 559.18 506.02 567.19 505.96C694.82 505.08 701.2 499.02 747.61 486.33Z" stroke="#000000" stroke-opacity="1.000000" stroke-width="1.250000"/>
	</g>
	<g style="mix-blend-mode:normal">
		<path id="Tracé 607" d="M612.18 513.29C662.37 512.97 702.49 509.63 725.09 502.21C747.71 494.78 801.52 491.17 802.26 495.12C802.66 497.27 812.9 512.21 795.99 517.55C789.9 519.47 777.05 505.19 746.49 512.33C726.28 517.05 672.79 522.42 650.03 522.97C639.74 523.87 626.63 518.3 617.36 521.55C591.79 530.5 576.67 528.61 586.3 520.08C591.71 515.28 607.15 513.32 612.18 513.29Z" fill="#000000" fill-opacity="0" fill-rule="nonzero"/>
		<path id="Tracé 607" d="M725.09 502.21C747.71 494.78 801.52 491.17 802.26 495.12C802.66 497.27 812.9 512.21 795.99 517.55C789.9 519.47 777.05 505.19 746.49 512.33C726.28 517.05 672.79 522.42 650.03 522.97C639.74 523.87 626.63 518.3 617.36 521.55C591.79 530.5 576.67 528.61 586.3 520.08C591.71 515.28 607.15 513.32 612.18 513.29C662.37 512.97 702.49 509.63 725.09 502.21Z" stroke="#000000" stroke-opacity="1.000000" stroke-width="1.000000"/>
	</g>
	<rect id="Bio" width="126.803375" height="94.637299" transform="translate(400.091797 511.824707)" fill="#FFFFFF" fill-opacity="0"/>
	<g style="mix-blend-mode:normal">
		<path id="Tracé 608" d="M401.66 572.58C405.37 594.75 406.09 625.6 458.23 590.74C475.26 579.36 505.31 605.15 517.72 602.75C527.68 600.82 530.2 590.69 521.94 585.92C510.18 579.12 516.81 565.66 519.67 552.34C525.58 524.77 531.77 506.16 489.4 513.39C447.03 520.62 389.91 502.31 401.66 572.58Z" fill="#000000" fill-opacity="0" fill-rule="nonzero"/>
		<path id="Tracé 608" d="M458.23 590.74C475.26 579.36 505.31 605.15 517.72 602.75C527.68 600.82 530.2 590.69 521.94 585.92C510.18 579.12 516.81 565.66 519.67 552.34C525.58 524.77 531.77 506.16 489.4 513.39C447.03 520.62 389.91 502.31 401.66 572.58C405.37 594.75 406.09 625.6 458.23 590.74Z" stroke="#000000" stroke-opacity="1.000000" stroke-width="1.250000" stroke-linejoin="round"/>
	</g>
	<g style="mix-blend-mode:normal">
		<path id="Tracé 609" d="M509.46 531.8C503.65 519.76 495.33 524.02 470.46 527.83C442.53 532.1 408.7 524.87 416.45 571.21C419.22 587.74 420.8 605.61 460.42 580.67C471.61 573.62 507.19 598.26 513.62 592.02C517.08 588.66 506.81 588.01 501.32 568.8C498.9 560.34 512.84 538.81 509.46 531.8Z" fill="#000000" fill-opacity="0" fill-rule="nonzero"/>
		<path id="Tracé 609" d="M470.46 527.83C442.53 532.1 408.7 524.87 416.45 571.21C419.22 587.74 420.8 605.61 460.42 580.67C471.61 573.62 507.19 598.26 513.62 592.02C517.08 588.66 506.81 588.01 501.32 568.8C498.9 560.34 512.84 538.81 509.46 531.8C503.65 519.76 495.33 524.02 470.46 527.83Z" stroke="#000000" stroke-opacity="1.000000" stroke-width="0.750000" stroke-linejoin="round"/>
	</g>
	<g style="mix-blend-mode:normal">
		<path id="Tracé 610" d="M431.24 569.28C433.06 579.99 431.91 585.89 460.94 574.44C472.38 569.93 499.63 585.14 485.25 558.17C478.73 545.95 503.42 534.32 474.39 540.69C453.8 545.21 425.46 535.34 431.24 569.28Z" fill="#000000" fill-opacity="0" fill-rule="nonzero"/>
		<path id="Tracé 610" d="M460.94 574.44C472.38 569.93 499.63 585.14 485.25 558.17C478.73 545.95 503.42 534.32 474.39 540.69C453.8 545.21 425.46 535.34 431.24 569.28C433.06 579.99 431.91 585.89 460.94 574.44Z" stroke="#000000" stroke-opacity="1.000000" stroke-width="0.750000" stroke-linejoin="round"/>
	</g>
	<g style="mix-blend-mode:normal">
		<path id="Tracé 611" d="M457.64 564.98C470.01 570.83 484.28 573.66 477.06 559.62C473.79 553.26 486.18 547.2 471.61 550.52C461.27 552.87 440.87 557.06 457.64 564.98Z" fill="#000000" fill-opacity="0" fill-rule="nonzero"/>
		<path id="Tracé 611" d="M477.06 559.62C473.79 553.26 486.18 547.2 471.61 550.52C461.27 552.87 440.87 557.06 457.64 564.98C470.01 570.83 484.28 573.66 477.06 559.62Z" stroke="#000000" stroke-opacity="1.000000" stroke-width="1.000000" stroke-linejoin="round"/>
	</g>
</svg>
