<?xml version="1.0" encoding="UTF-8"?><svg id="Calque_2" xmlns="http://www.w3.org/2000/svg" viewBox="0 0 824.72 903.36"><defs><style>.cls-1,.cls-2,.cls-3,.cls-4,.cls-5,.cls-6,.cls-7,.cls-8{fill:none;stroke:#000;}.cls-1,.cls-4,.cls-5{stroke-linecap:round;stroke-linejoin:round;}.cls-2,.cls-3{opacity:.99;}.cls-2,.cls-3,.cls-6,.cls-7,.cls-8{stroke-miterlimit:10;}.cls-2,.cls-4,.cls-6{stroke-width:.75px;}.cls-3,.cls-5,.cls-8{stroke-width:1.25px;}</style></defs><g id="G"><path class="cls-5" d="M266.74,57.79l26.15,36.02c3.25,4.48,3.9,14.43,16.43,14.43,7.79,0,12.34-5.72,14.7-10.17,1.62-3.06,4.15-5.47,6.78-7.73,2.71-2.33,4.52-5.79,4.9-9.68l4.65-47.37c1-10.21-7.91-18.2-16.89-15.14l-50.38,17.17c-8.76,2.98-12.04,14.63-6.35,22.47Z"/><path class="cls-4" d="M281.18,41.23c-4.81,4.98.14,10.44,2.91,18.46,1.63,4.7,7.53,10.28,12.32,25.72,4.28,13.81,12.27,4.81,15.12,1.97,6.33-6.33,13.12-4.86,13.59-6.82,2.32-2.08,3.44-6.06,2.23-10.16-.53-1.8-1.03-8.74-1.13-10.09-.3-4.09,3.6-24.21,3.6-24.21.52-5.25-6.45-8.49-14.4-7.66-6.04.63-32.61,8.63-34.24,12.79Z"/><path class="cls-4" d="M321.01,70.5c.88-3.67-3.73-9.79-4.01-13.69-.4-5.43,3.14-15.47,3.14-15.47.43-4.38-27.12-3.81-30.88,5.79-2,5.11,5.38,6.86,7.03,13.25,1.66,6.39-.83,15.35,3.45,16.92,6.33,2.33,19.96-1.38,21.26-6.79Z"/><path class="cls-7" d="M507.28,241.54c-8.78-1.74-17.83,1.35-23.44,8-17.31,20.54-20.03,37.27-20.03,41.72,0,5.22,70.01,6.75,92.51-14.64,22.5-21.39,17.74-30.73-8.87-30.73-14.97,0-29.94-2.32-40.17-4.35Z"/><path class="cls-6" d="M510.05,248.86c-6.33-1.26-12.86.97-16.91,5.77-12.49,14.82-14.45,26.89-14.45,30.1,0,3.77,50.51,4.87,66.74-10.56,16.23-15.43,12.8-22.17-6.4-22.17-10.8,0-21.6-1.67-28.98-3.14Z"/><path class="cls-8" d="M512.82,256.18c-3.89-.77-7.9.6-10.38,3.55-7.67,9.1-8.87,16.51-8.87,18.48,0,2.31,31.01,2.99,40.98-6.49,9.97-9.47,7.86-13.61-3.93-13.61-6.63,0-13.26-1.03-17.79-1.93Z"/><path class="cls-1" d="M552.56,44.95c-44.72-16.18-39.55,9.41-52.2,18.7-46.54,34.18-52.08,50.36-49.9,58.4,1.75,6.45,36.33,56.58,56.37,85.29,9.13,13.09,22.79,21.5,37.78,23.21,22.52,2.57,64.91,20.87,90.2,19.18,23.89-1.6,6.04-19.49,25.27-27.8,86.59-37.43,19.28-80.68,4.47-95.07-3.75-3.65-67.27-65.74-112-81.91Z"/><path class="cls-4" d="M506.04,71.75c-42.73,31.49-44.32,45.63-41.22,54.37,2.35,6.63,32,50.57,49.48,75.9,8,11.61,19.95,19.11,33.27,20.87,25.34,3.34,57.3,11.42,84.05,6.01,14.98-3.03,3.27-14.63,16.73-18.4,63.43-17.76,21.25-67.08,8.3-80.23-3.34-3.39-7.51-5.58-11.13-8.47-.83-.66-43.52-34.89-44.41-35.61-.18-.14-10.19-8.36-10.41-8.53-2.93-2.24-6.62-3.19-10.1-4.22-.48-.53-32.89-9.3-33.31-9.64-14.26-4.52-30.05-.3-41.25,7.94Z"/><path class="cls-5" d="M515.24,85.76c-36.45,27.12-30,37.6-24.79,48.1,3.62,7.29,24.24,40.04,37.09,59.33,5.94,9,14.82,14.92,25.19,16.82,20.79,3.82,59.87,20.12,76.27.18,13.83-16.81,24.89-11.18,34.89-16.27,24.74-12.6-10.86-46.06-20.46-57.11-2.6-2.99-5.83-5.1-8.74-7.56-2.53-2.14-34.65-26.72-37.43-28.98-.55-.44-7.89-6.64-8.58-7.2-2.37-1.91-5.3-2.97-8.08-4.08-1.5-1.64-25.02-9.25-26.44-10.14-12.68-7.86-30.31.53-38.92,6.9Z"/><path class="cls-4" d="M523.08,96.05c-31.33,23.36-21.2,31.51-15.19,42.28,4.03,7.23,19.06,32.52,28.82,47.75,4.6,7.18,11.43,12,19.75,13.86,26.75,5.97,63.25,4.63,81.36-14.43,15.63-16.45,2.52-35.62-4.89-44.98-2.08-2.63-4.67-4.57-7.06-6.69-3.19-2.81-28.28-21.15-31.85-24.04-.7-.57-6.31-5.4-7.19-6.13-1.96-1.64-4.34-2.69-6.62-3.79-1.93-2.11-19.74-8.63-21.54-9.82-11.79-7.82-28.77.91-35.58,5.99Z"/><path class="cls-4" d="M528.76,104.15c-27.52,20.67-13.53,26.82-6.51,38.25,4.57,7.44,14.73,26.51,21.93,38.36,3.47,5.71,8.59,9.66,15.24,11.52,22.49,6.29,52.61,2.63,67.81-13.37,11.73-12.34,3.38-26.91-2.21-34.97-1.66-2.39-3.71-4.23-5.71-6.09-3.89-3.62-23.2-16.57-27.67-20.19-.88-.71-5.03-4.39-6.11-5.33-1.64-1.44-3.77-2.27-5.46-3.64-2.77-2.26-15.42-8.32-17.61-9.88-11.4-8.11-28.33,1.31-33.7,5.34Z"/><path class="cls-4" d="M534.44,112.25c-23.69,18-5.88,22.14,2.16,34.22,5.1,7.66,10.39,20.51,15.05,28.97,2.33,4.24,5.74,7.35,10.73,9.18,18.21,6.7,41.96.64,54.27-12.31,7.82-8.24,4.28-18.22.46-24.96-1.22-2.15-2.75-3.88-4.36-5.49-4.5-4.52-18.12-11.99-23.48-16.33-1.05-.86-3.78-3.36-5.04-4.53-1.33-1.24-2.93-2.24-4.3-3.5-3.15-2.91-11.12-7.99-13.69-9.94-11.05-8.41-27.9,1.72-31.81,4.69Z"/><path class="cls-1" d="M545.67,125c-16.28,12.61,1.45,14.34,8.9,24.78,7.14,10.01,4.02,17.59,11.8,21.69,11.35,5.99,25.7-1.11,33.42-9.23,3.22-3.39,4.31-7.85,2.57-12.27-3.14-8-11.9-9.07-18.3-14.26-4.1-3.32-9.66-10.62-13.84-14.03-8.81-7.18-22.54,1.75-24.56,3.32Z"/><path class="cls-5" d="M198.8,64.51c32.74-16.1,49.47,32.01,59.44,52.04,3.53,7.1,4.92,20.3,1.22,27.31,0,0-52.94,78.39-57.05,104.28-1.71,10.8-.41,25.18-.41,25.18-10.37,21.69-17.29-4.09-52.14,4.39-16.54,4.03-62.63,14.72-62.63,14.72-9.2,2.1-18.8-1.26-24.68-8.64l-5.56-6.98c-5.23-6.57-6.77-15.36-4.01-23.3,6.2-17.88,19.6-51.78,42.13-86.46,17.45-26.87,36.66-61.84,81.62-80.07,10.57-4.28,12.46-17.74,22.08-22.48Z"/><path class="cls-1" d="M248.22,125.31c2.37,4.77,2.79,10.17,1.46,15.21-.4,1.53-.9,3.3-2.1,4.85-.9,1.17-31.83,53.32-32.56,54.65-.94,1.71-23.31,49.75-23.86,50.85-2.71,5.47-7.84,9.37-13.85,10.98-1.02.79-76.26,17.78-78.1,18.21-8.01,1.88,15.83-18-20.93-11.48-7.19,1.27-12.89-13.05-10.88-20.45,1.4-5.11,3.55-11.6,6.56-18.97,7.12-17.52,17.51-38.57,31.74-59.72,19.54-29.05,33.83-54.29,71.81-68.76,16.76-6.38,11.73-10.35,21.01-19.64,22.47-22.47,40.98,26.75,49.69,44.25Z"/><path class="cls-5" d="M240.05,128.36c2.11,4.25.48,14.77-.78,19.23-.32,1.14-.87,2.67-2.06,4.13-1.86,2.28-29.26,45.22-30.72,47.87-1.88,3.41-17.36,40.67-18.45,42.89-2.23,4.53-6.77,7.04-11.45,9.51-2.29,1.21-61.7,14.82-65.38,15.68-6.84,1.61-2.19-11.88-23.23-7.68-6.2,1.24-7.4-10.39-6.13-17.26.87-4.71,2.6-10.64,5.27-17.28,6.75-16.84,16.3-35.32,29.19-53.63,16.99-24.14,20.02-35.92,50.69-52.4.63-.34,32.75-21.54,33.39-21.87,12.06-6.15,11.52,6.03,17.02,14.82,5.51,8.79,18.91,8.48,22.63,15.97Z"/><path class="cls-4" d="M228.19,142.82c1.85,3.73,1.87,7.95.68,11.85-.23.75-.83,2.03-2.03,3.42-2.89,3.34-26.69,37.12-28.88,41.09-2.82,5.12-11.42,31.6-13.05,34.93-1.76,3.6-5.24,5.85-9.06,8.04-3.37,1.94-47.13,11.85-52.65,13.16-5.66,1.34-10.45-.06-19.73-3.71-5.17-2.03-7.71-7.9-7.19-14.24.36-4.31,1.64-9.69,3.99-15.59,6.37-16.16,15.07-32.09,26.64-47.53,14.41-19.25,33.39-38.21,58.71-52.36.52-.29,1.03-.57,1.55-.84,19.82-10.38,34.82,9.33,41.02,21.78Z"/><path class="cls-4" d="M218.18,151.57c1.59,3.2,1.42,6.82.29,10.17-.13.37-.78,1.38-2,2.7-3.99,4.34-24.12,29.01-27.04,34.31-3.76,6.83-5.5,22.52-7.65,26.97-1.28,2.67-3.7,4.65-6.67,6.57-4.35,2.82-32.56,8.87-39.92,10.63-4.49,1.07-15.05.29-16.22.26-5.07-.15-8.02-5.41-8.24-11.22-.15-3.9.69-8.74,2.7-13.9,6-15.48,13.8-28.88,24.09-41.44,11.78-14.39,26.89-28.05,46.85-39.87.4-.24.8-.46,1.2-.68,15.51-8.48,27.67,5.57,32.61,15.49Z"/><path class="cls-4" d="M188.61,144.12c10.88-7.06,20.01,1.05,23.55,8.17,1.26,2.52,1.22,5.49-.1,7.98,0,0-25.68,27.79-29.83,39.9-3.89,11.36-1.36,20.84-9.94,27.51-3.5,2.72-9.9,1.42-14.27-2.52-8.08-7.29-19.74,1.48-22.74,3.1-10.67,5.79-11.21.47-6.54-11.78,5.3-13.92,11.72-24.21,20.25-33.25,8.53-9.04,25.88-30.19,39.61-39.11Z"/><path class="cls-4" d="M310.51,127.15l12.55-7.49c3.61-2.15,8.17.71,7.65,4.8-4.16,32.79-16.96,134.38-16.96,143.5s-32.41,22.02-42.11,25.63c-1.66.62-3.55.35-4.93-.68l-33.12-24.9c-1.9-1.43-2.51-3.98-1.45-6.08l55.95-111.1c4.84-9.62,12.61-17.82,22.42-23.67Z"/><path class="cls-5" d="M317.02,129.93c8.19-6.5,6.57,6.37,6.06,10.28-3.49,27.1-12.9,107.19-14.22,118.69-1.04,9.03-25.35,18.58-34.21,20.82-1.34.34-2.67-.04-3.95-.62-1.82-.81-25.69-18.65-26.01-21.14-1.31-1.27-1.73-3.28-1.03-5.02-.02-2.75,6.03-16.19,26.85-41.79,8.68-10.67,8.29-21.77,12.93-34.04,5.8-15.37,15.8-30.97,19.41-31.52,18.14-2.81,5.69-8.92,14.18-15.66Z"/><path class="cls-4" d="M316.67,145.36c1.84-.07-9.79,90.6-12.68,104.47-1.83,8.78-18.04,15.22-26.25,15.99-1.03.1-2.06-.15-3.04-.53-3.73-1.44-18.26-12.4-18.9-17.38-.72-1.1-.78-2.56-.61-3.95,1.41-11.47,22.29-25.74,26.7-35.76,5.12-11.61,10.62-47.82,19.08-46.13,10.68,2.14,14.84-17.57,15.7-16.71Z"/><path class="cls-1" d="M305.81,171.71c-2,15.73-1.84,52.87-6.26,69.06-4.42,16.19-27.87,18.81-30.02,1.01-2.14-17.8,8.99-9.63,16.49-24.85,7.5-15.22,21.29-57.02,19.79-45.22Z"/><path class="cls-1" d="M178.43,787.45c-24.31,35.91,124.58,110.01,141.93,110.01,14.33,0-6.97-139.76-21.75-184.94-2.75-8.41-41.28,13.45-52.73,20.16-26.11,15.29-50.35,29.54-67.44,54.77Z"/><path class="cls-5" d="M248.76,744.21c-20.94,14.07-41.28,25.01-55.36,47.1-15.58,24.45,45.77,67.96,97.5,84.41,12.47,3.97,12.58,13.78,23.3,10.72,12.3-3.51-6.46-125.44-22.01-162.42-3.01-7.15-33.65,13.61-43.43,20.18Z"/><path class="cls-4" d="M247.02,755.75c-17.33,12.75-35.16,17.72-47.23,36.66-7.2,11.3.74,21.6,19.73,37.37,18.03,14.97,42.03,34.71,64.71,34.71,15.15,0,15.57,13.38,23.95,10.01,11.55-4.64-7.26-110.36-23.94-138.96-3.49-5.98-28.44,13.74-37.22,20.21Z"/><path class="cls-5" d="M248.71,775.83c-10.7,9.85-23.79,11.57-32.16,24.35-12.81,19.57,56.57,65.15,72.37,51.85,10.15-8.54-.36-81.45-14.45-96.67-5.76-2.83-18.75,14.03-25.75,20.47Z"/><path class="cls-4" d="M250.81,787.67c-6.98,8.02-16.78,6.93-22.83,16.43-9.69,15.23,39.01,53.45,53.68,36.64,9.01-10.32,2.15-67.84-12.27-73.34-6.02-2.3-12.97,13.82-18.58,20.28Z"/><path class="cls-1" d="M238.45,812.91c-6.17,8.43,20.75,32.27,32.99,16.7,7.29-9.27,2.41-38.8-9.3-38.8-6.15,0-7.13,10.34-10.82,15.44-3.4,4.69-9.32,1.83-12.87,6.66Z"/><path class="cls-1" d="M128.22,599.88c5.89-1.7,12.19.53,15.93,5.65,6.85,9.39,18.83,25.07,32.3,39.4,13.47,14.32,28.42,27.29,41.22,31.24,16.36,5.05,6.06,15.31-10.05,25.2-16.12,9.89-38.06,19.42-44.99,23-5,2.59-14.66-13.1-25.35-33.82-10.69-20.72-22.41-46.47-31.54-64.01-4.66-8.96-.22-20.09,9.09-22.78l13.39-3.87Z"/><path class="cls-5" d="M133.5,622.07c7.43,5.52,13.76-6.9,36.76,30.42,6.66,10.81,17.33,18.58,25.73,21.66,11.01,4.07,5.48,13.25-4.68,21.35-10.16,8.1-24.95,14.59-32.45,14.86-4.09.14-7.79-11.75-13.55-25.98-.85-2.11-1.75-4.25-2.74-6.39-4.2-9.1-8.85-20.46-13.57-30.11-24.85-50.73-3.64-31.87,4.51-25.81Z"/><path class="cls-4" d="M146.49,642.46c3.64-2.7,8.26,2.95,9.51,4.81,4.57,6.85,12.13,19.79,20.72,23.33,6.04,2.49,5.06,10.27.67,16.56-4.39,6.29-12.19,11.08-19.77,7.59-3.58-1.65-1.09-12.38-4.86-20.08-1.96-4-5.73-10.42-7.91-16.66-2.18-6.24-2.77-12.29,1.64-15.56Z"/><path class="cls-4" d="M36.11,610.73h40.7c4.47,0,8.41,3.16,9.7,7.8,3.53,12.7,10.92,38.84,18.53,63.01,7.61,24.16,15.44,46.35,19.84,51.12,4.92,5.33,3.25,13.16.09,19.98-3.43,7.4-13.02,7.98-17.35,1.15l-39.93-62.93-39.93-62.93c-4.62-7.29.19-17.2,8.35-17.2Z"/><path class="cls-1" d="M40.47,622.92c5.03-4.38,35.3-5.92,41.71,10.09,4.06,10.16,10.63,34.23,16.02,47,5.45,12.92,8.87,30.07,12.14,35.34,2.76,4.45,2.39,9.63.53,13.3-2.48,4.88-8.01,5.37-11.33.25-.63-.97-9.13-14.85-10.03-17.17-.8-2.06-14.16-22.89-16.02-25.26-1.15-1.46-10.54-15.92-11.66-17.4-1.77-2.33-14.37-22.59-15.23-24.65-2.2-5.23-9.62-18.45-6.11-21.51Z"/><path class="cls-5" d="M77.82,646.47s3.88,7.15,4.38,8.71c2.74,8.55,3.76,24.15,7.02,26.04,5.66,3.29,11.61,21.33,10.16,23.32-2.72,3.72-5.15,3-10.3-10.3-2.58-6.65-9.78-14.55-15.68-22.31-5.9-7.76-10.5-15.39-7.88-21.53,5.25-12.27,12.31-3.94,12.31-3.94Z"/><path class="cls-1" d="M16.63,511c31.42,1.88,80.12,6.69,103.32,9.07,7.51.77,13.15,6.25,13.15,12.77v9.21c0,5.8-4.51,10.89-11.01,12.41l-53.66,12.58c-2.4.56-4.92.6-7.34.11l-42.69-8.66c-5.48-1.11-9.77-4.79-11.09-9.5l-6.2-22.14c-2.37-8.45,5.45-16.45,15.51-15.85Z"/><path class="cls-4" d="M28.85,518.44c28.36,1.15,61.95,4.78,79.06,7.94,5.97,1.1,10.41,4.69,11.43,8.73.85.66,1.28,5.9,1.28,6.49,0,3.94-6.05,9.45-15.1,11.7-6.73,1.67-14.06,1.95-20.93,2.61-20.01,1.93-9.21,2.16-44.91-8.36-4.38-1.29-20.23,8.14-23.45-1.89-2.53-7.89-6.08-18.15-4.6-19.32.99-5.93,10.96-8.16,17.21-7.9Z"/><path class="cls-5" d="M44.6,527.78c37.62-.01,57.5,7.88,57.5,13.1,0,1.79-6.5,6.92-16.45,9.42-8.59,2.16-18.12-8.92-20.62-9.62-11.82-3.31-30.91,4.98-32.48-2.54-1.21-5.8,8.52-10.36,12.05-10.37Z"/><path class="cls-1" d="M381.44,15.26c-3.51,1.84-5.87,5.56-6.36,9.66-1.02,1.62-1.6,24.4-1.85,26.36-.17,1.39-.14,23.43-.07,24.52.39,6.32,3.7,11.65,8.67,13.03.3.27,19.82,5.1,22.13,5.46,3.84.6,7.59,0,10.26-2.3,4.16-3.58,11.43-9.62,19.22-16.3,6.11-5.27,12.31-10.94,16.96-15.6,8.85-8.84,9.82-16.13,22.92-21.37,5.02-2.01,5.24-9.08.42-11.53-8.82-4.49-23.51-9.04-33.97-12.07-9.59-2.74-20.28-4.66-30.49-4.94-10.33-.27-20.18,1.06-27.83,5.06Z"/><path class="cls-4" d="M389.99,20.84c-2.86,1.65-4.51,4.72-5.92,7.79-1.6,3.48-3.2,17.72-3.7,21.65-.35,2.77-.31,15.79-.14,17.97.38,4.96,2.45,8.98,5.49,10.17.6.55,14.73,4.66,19.35,5.3,3.59.5,6.94.1,9-1.77,3.58-3.25,10.57-9.07,17.55-15.22,6.15-5.45,11.91-11.21,14.78-15.02,16.38-21.72-8.04-28.63-18.88-31.58-6.36-1.73-13.25-2.83-19.73-2.92-6.71-.08-13.02.87-17.81,3.62Z"/><path class="cls-5" d="M389.6,68.03c1.33,1.21,19.87,8.29,24.31,3.9,2.98-2.95,9.71-8.52,15.89-14.14,6.18-5.62,11.81-11.29,12.6-14.44,1.17-4.7-6.97-10.92-16.81-14.97-9.85-4.05-21.4-5.94-27.06-1.96-6.63,4.67-9.92,14.11-11.02,22.87-1.1,8.76-.02,16.82,2.09,18.74Z"/><path class="cls-4" d="M375.88,6.95c-4.53,2.37-7.58,7.18-8.22,12.47-1.32,2.09-2.07,31.52-2.39,34.05-.23,1.79-.18,30.27-.09,31.68.5,8.16,4.78,15.05,11.2,16.83.39.35,25.6,6.59,28.58,7.06,4.96.78,9.81,0,13.26-2.97,5.37-4.62,14.76-12.43,24.82-21.05,7.89-6.81,15.9-14.14,21.91-20.15,11.43-11.42,12.69-20.83,29.6-27.6,6.48-2.59,6.77-11.72.55-14.89-11.4-5.8-30.37-11.67-43.89-15.59-12.39-3.54-26.2-6.02-39.39-6.38-13.34-.35-26.07,1.37-35.95,6.54Z"/><path class="cls-4" d="M382.54,119.35l20.45,4.28c5.32,1.11,23.17.72,23.5,12.77.73,27.43,37.17,89.92,37.17,89.92,6.18,4.94,5.4,12.19.86,17.45-15.77,18.26-30.49,45.48-39.29,63.29-4.64,9.4-17.12,12.83-26.53,7.31l-38.62-22.64c-5.66-3.32-8.94-9.24-8.56-15.45l8.62-141.18c.64-10.56,11.33-18.05,22.42-15.73Z"/><path class="cls-5" d="M373.65,148.75c.51-9.05,7.29-12.93,15.8-13.69,10.09-.9,14.07,2.69,15.28,3.04,9.86,2.86,12.2,13.24,15.62,21.69,5.04,12.45,10.9,24.99,17.82,36.66,3.57,6.01,7.43,11.84,11.64,17.42,3.9,5.18,6.27,12.31,3.25,18.56-.4.84-.84,1.69-1.34,2.57-2.1,3.69-4.99,7.16-7.44,10.86-2.75,4.14-5.32,8.51-7.79,12.86-5.36,9.45-10.08,19.01-13.89,27.27-3.49,7.56-9.42,25.07-16.49,20.64,0,0-2.97-11.54-15.92-19.6-5.5-3.43-18.51,2.3-24.57-4.09-11.69-12.33.72-40.05,1.94-60.31,2.31-38.4,5.66-66.24,6.08-73.87Z"/><path class="cls-4" d="M379.97,169.82c.42-7.09,5.09-10.19,11.93-10.84.51-.05,2.23.23,2.81.28,1.8.13,7.59,1.24,9.35,1.73,3.04.86,5.65,2.55,7.77,4.76,2.43,2.54,5.11,13.97,6.76,16.98,2.12,3.88,9.3,16.86,11.44,20.73,1.61,2.9,9.88,11.62,11.48,14.53,2.05,3.73,3.74,7.91,2.6,11.85-.2.7-.46,1.41-.8,2.13-1.44,3.05-4.07,5.62-6.11,8.42-2.32,3.18-4.44,6.56-6.5,9.92-4.36,7.1-8.24,14.37-11.56,21.08-2.79,5.64-10.27,7.69-15.91,4.38l-23.16-13.58c-3.4-1.99-5.36-5.54-5.14-9.27.97-15.94,4.12-67.17,5.05-83.12Z"/><path class="cls-4" d="M397.18,172.22c4.76.35,7,2.38,10.61,5.67,3.47,3.17,5.35,7.62,7.55,11.64,2.83,5.17,5.7,10.32,8.55,15.48,2.15,3.86,4.29,7.74,6.41,11.61,1.92,3.51,8,6.23,6.71,10.5-.83,2.74-3.27,4.72-4.96,6.95-1.96,2.59-3.68,5.37-5.4,8.12-3.49,5.6-6.63,11.41-9.55,17.31-2.17,4.38-7.99,5.98-12.37,3.41l-18.01-10.56c-2.64-1.55-4.17-4.31-3.99-7.21,1.3-21.25,2.61-42.5,3.86-63.76.39-6.67,3.67-9.68,10.6-9.18Z"/><path class="cls-4" d="M402.27,190.43c4.85.35,7.82,6.52,9.63,10.24,1.48,3.04,2.91,6.16,4.93,8.91,1.95,2.65,5.63,4.23,7.16,7.01,1.16,2.12,3.1,4.4,2.32,6.98-.5,1.65-1.97,2.85-2.99,4.19-1.18,1.57-2.22,3.24-3.26,4.9-2.11,3.38-4,6.89-5.76,10.45-1.31,2.65-4.82,3.61-7.47,2.06l-10.87-6.37c-1.59-.93-2.52-2.6-2.41-4.35.78-12.83,1.58-25.66,2.33-38.49.24-4.03,2.22-5.84,6.4-5.54Z"/><path class="cls-1" d="M39.06,346.61c-16.51.64-23.51,12.23-26.19,28.96-4.74,29.64-16.02,74.95-11.2,88.21,3.77,10.35,12.06,3.68,30.45,4.43,19.3.79,31.35,3.93,48.03,7.8,9.48,2.2,41.98,15.57,50.35,11.01,7.34-4,8.78-20.31,10.17-28.93,9.05-56.14,23.82-70.09,31.84-81.48,19.79-28.07-52.11-51.1-84.73-42.31-10.03,2.7-38.01,11.89-48.73,12.3Z"/><path class="cls-4" d="M49.39,360.02c-20.68,2.59-26.72,3.65-29.15,18.79-1.63,10.16,5.65,23.3,2.98,35.78-4.37,20.45-17.76,39.1-9.87,39.92,17.85,1.85,54.3,12.78,83.78,19.63,16.1,3.74,36.08-3.92,38.77-20.63,8.19-50.81,21.56-63.44,28.82-73.74,17.91-25.41-48.43-41.55-78.23-34.71-9,2.06-25.04,13.46-37.12,14.97Z"/><path class="cls-5" d="M52.8,364.9c-13.27,1.77-23.01,3.6-25.18,17.15-1.25,7.81,3.45,24.52,2.23,32.5-2.52,16.58-9.96,23.29-4.9,29.11,6.58,7.57,45.11,17.59,71.5,23.72,14.41,3.35,32.3-3.51,34.71-18.47,7.33-45.48,19.3-56.79,25.8-66.01,16.03-22.75-42.89-34.69-70.02-31.07l-34.14,13.07Z"/><path class="cls-4" d="M62.29,368.78c-10.16,1.35-18.26,9.37-19.93,19.75-2.94,18.39-7.79,40.57-2.04,47.18,5.04,5.8,34.54,13.47,54.75,18.16,11.03,2.56,24.73-2.69,26.58-14.14,5.61-34.83,14.78-43.48,19.75-50.55,12.28-17.42-32.85-26.56-53.62-23.79l-25.5,3.39Z"/><path class="cls-4" d="M66.62,375.04c-19.69,6.47-6.61,23.65-8.02,32.43-2.49,15.57-15.45,18.66-10.58,24.26,4.27,4.91,29.26,11.41,46.37,15.38,9.35,2.17,20.95-2.28,22.51-11.98,4.75-29.5,12.52-36.83,16.73-42.82,10.4-14.75-27.82-22.5-45.42-20.15l-21.6,2.88Z"/><path class="cls-5" d="M70.94,381.3c-6.58,2.71-2.62,19.73-3.77,26.93-2.04,12.76,7.86,13.57,11.85,18.15,3.5,4.02.65,10.72,14.68,13.98,7.66,1.78,17.17-1.87,18.45-9.82,3.89-24.17,10.25-30.18,13.71-35.08,8.52-12.09-22.8-18.43-37.21-16.52,0,0-11.17-.34-17.7,2.36Z"/><path class="cls-1" d="M89.13,396.8c-3.33.44-5.98,3.07-6.52,6.47-.96,6.02-2.55,13.28-.67,15.45,1.65,1.9,11.31,4.41,17.92,5.95,3.61.84,8.1-.88,8.7-4.63,1.84-11.4,4.84-14.24,6.47-16.55,4.02-5.7-10.75-8.7-17.55-7.79l-8.35,1.11Z"/><path class="cls-1" d="M387.37,719.36c-7.67-6.31-19.56-1.53-20.26,8.15-2.14,29.66-17.14,23.63,2.44,128.75,3.68,19.76-5.98,27.61-3.13,35.29,10.97,29.59,174.03-6.44,195.58-21.96,20.53-14.79-85.28-79.09-95.34-85.14-.52-.31-1-.65-1.47-1.04l-77.82-64.05Z"/><path class="cls-5" d="M464.73,793.63c-.43-.27-2.97-4.42-3.34-4.75-.86-.76-76.15-60.36-76.18-59.9-6.55-3.1,2.13,21.74,1.78,30.88-.75,19.5-15.44,13.81-14.03,40.49.86,16.3,12.47,46.39,16.63,65.79,2.65,12.37-9.1,16.66-7.59,20.18,10.26,23.98,150.21-6.58,166.44-20.72,15.38-13.4-73.65-65.73-83.7-71.98Z"/><path class="cls-4" d="M462.82,802.72c-.34-.22-4.92-8.18-5.22-8.44-1.71-1.51-55.39-42.48-55.46-41.55-5.43.11-8.69,15.15-8.68,23.74.06,32.83,11.14,92.63,18.28,106.28,9.56,18.28,112.32-8.67,123.15-21.33,10.31-12.05-62.03-52.27-72.08-58.69Z"/><path class="cls-1" d="M462.3,814.76c-.24-.16-10.48-16.08-10.69-16.27-2.44-2.17-42.05-30.43-42.15-29.1-4.11,3.19-3.17,22.52-2.78,30.27,1.27,25.64,20.09,65.45,26.35,74.43,8.39,12.04,77.71-9.69,82.87-20.31,5.09-10.48-44.02-32.69-53.59-39.03Z"/><path class="cls-2" d="M456.06,818.35c-.15-.1-8.22-14.46-8.36-14.58-3.19-2.78-30.33-19.34-30.78-17.69-1.74,6.37,1.95,29.22,2.76,36.18,2.21,18.93,28.9,40.2,34.65,45.03,7.34,6.16,46.98-10.7,47.14-19.07.18-9.32-36.04-23.59-45.41-29.87Z"/><path class="cls-3" d="M453.66,825.81c-.09-.06-5.04-9-5.13-9.08-1.96-1.73-18.63-12.02-18.91-10.99-1.08,3.97,1.16,18.21,1.65,22.55,1.33,11.8,17.73,25.03,21.26,28.03,4.51,3.83,28.91-6.72,29.02-11.94.12-5.81-22.14-14.66-27.89-18.57Z"/><path class="cls-1" d="M592.37,714.12c-3.94-4.93-11.49-3.91-14.08,1.86-6.3,14.06-18.51,35.38-36.81,42.36-28.14,10.75,68.39,82.21,74.46,81.82,3.58-.23,8.57-14.27,18.33-22.49,6.82-5.74,28.23-5.54,31.11-8.91,2.39-2.8-12.72-41.8-25.89-58-17.31-21.3-35.38-21.96-47.12-36.65Z"/><path class="cls-4" d="M603.7,736.82c-17.37,6.32-11.12-20.86-17.23-14.38-7.88,8.38-31.23,44.5-35.62,45.89-12.26,3.88,54.12,60.11,59.56,59.92,2.9-.11,9.78-10.31,16.18-21,4.6-7.68,28.29-1,30.76-5.62.67-1.26-6.62-16.2-19.46-32.13-13.63-16.92-19.41-38.07-34.2-32.69Z"/><path class="cls-1" d="M593.33,755.33c-7.78,2.68-5.06-8.65-7.78-5.93-3.51,3.51-13.88,18.61-15.85,19.2-5.49,1.65,24.48,24.85,26.92,24.75,1.3-.06,4.36-4.32,7.2-8.79,2.04-3.21,12.7-.5,13.79-2.43.3-.53-3.02-6.72-8.83-13.31-6.17-7-8.83-15.78-15.45-13.5Z"/><path class="cls-5" d="M598.51,745.27c-12.69,4.96-11.22-15.18-15.66-10.16-5.73,6.49-19.69,32.49-22.91,33.58-8.97,3.05,39.96,45.93,43.94,45.76,2.13-.1,7.11-7.99,11.75-16.24,3.33-5.93,20.73-.93,22.51-4.5.48-.97-4.93-12.42-14.42-24.6-10.07-12.94-14.41-28.06-25.22-23.84Z"/><path class="cls-1" d="M644.22,557.54c3.39-9.72,12.62-16.36,23.28-16.81,9.41-.4,27.41-11.42,59.06-7.04,37.92,5.24,71.42,16.42,70.55,34.11-.63,12.97-16.21,19.76-22.61,38.02-9.82,28.02-10.32,68.02-24.03,92.15-25.76,45.37-49.6,65.09-60.33,53.72-10.16-10.77-10.12-39.96-18.09-54.14-12.06-21.46-31.61-28.14-46.63-39.84-21.67-16.89,6.3-37.28,14.24-61.27,3.68-11.12,1.67-30.67,4.54-38.9Z"/><path class="cls-4" d="M654.5,565.11c3.33-6.42,10.75-16.25,19.25-16.41,13.57-.25,40.62-3.48,63.5-1.23,20.96,2.06,38.12,14.69,39.06,19.96.92,5.18-18.56,77.22-36.61,104.52-10.17,15.38-7.44,27.01-14.77,37.06-24.81,34.01-28.26,15.69-36.4,6.09-8.53-10.05-11.34-29.27-18.5-40.46-9.75-15.23-22.08-22.35-31.45-32.41-11.71-12.57,2.38-26.62,9.42-40.75,1.07-2.15,1.96-4.43,2.62-6.76,2.51-8.93.97-23.99,3.89-29.61Z"/><path class="cls-5" d="M659.65,568.89c3.25-4.76,9.42-8.19,16.84-8.2,23.59-.04,83.15,1.16,84.84,10.59,1.17,6.54-7.37,47.14-35.23,96.21-8.46,14.9-.94,31.34-18.53,46.05-6.89,5.76-13.25-9.6-16.93-14.25-7.69-9.71-9.55-20.8-16.34-30.49-8.51-12.15-22.61-25.04-29.15-34.3-8.06-11.42,3.49-23.78,8.88-34.85.88-1.81,1.57-3.76,2.07-5.79,1.94-7.83.59-20.63,3.56-24.97Z"/><path class="cls-4" d="M664.79,572.68c3.1-3.1,8.36-5.45,14.7-5.33,21.19.41,68.68,8.26,70.08,16.1,1.01,5.63-5.83,33.52-29.82,75.77-15.66,27.58-27.21,27.05-32.86,19.29-6.84-9.39-12.45-18.6-18.92-26.77-7.2-9.1-12.57-16.46-16.27-24.97-4.45-10.22,4.57-20.96,8.33-28.94.69-1.46,1.18-3.09,1.52-4.81,1.36-6.74.15-17.25,3.23-20.33Z"/><path class="cls-4" d="M669.94,576.46c2.84-1.51,7.29-2.76,12.55-2.46,18.77,1.04,54.81,7.14,55.92,13.39.84,4.73-4.89,28.11-25.01,63.55-13.13,23.13-22.88,16.07-27.32,9.27-5.94-9.1-12.89-13.33-19.12-19.93-5.78-6.12-7.89-13.46-8.68-21.25-.91-8.98,5.63-18.14,7.79-23.04.49-1.11.78-2.43.97-3.84.77-5.64-.39-13.94,2.9-15.69Z"/><path class="cls-5" d="M674.68,596.72c1.23-3.54-1.23-12.14,2.65-12.3,11.23-.47,45.24,4.64,46.16,9.81.6,3.38-3.49,20.09-17.87,45.42-9.39,16.53-16.38,4.5-19.28-.67-4.39-7.82-11.63-7.32-17.1-11.58-7.89-6.15,4.4-27.67,5.44-30.67Z"/><path class="cls-7" d="M490.81,436.03c199.44-1.79,160.82-32.19,237.53-30.33,64.08,1.55,46.43-24.51,69.58-18.99,15.75,3.75,25.58,36.87,26.2,45.16,1.14,15.2-8.58,72.95-38.93,61.15-37.98-14.77-99.19.59-151.32,5.08-18.06,1.56-35.14-17.14-68.4-12.56-25.66,3.53-32.57,12.01-58.27,15.39-4.61.6-31.29-3.8-17.99-27.9,13.53-24.51-10.93-36.89,1.59-37Z"/><path class="cls-6" d="M578.76,477.1c-22.28-2.68-44.87,9.15-65.82,11.59-3.76.44-25.51-2.74-14.66-20.16,11.04-17.72-8.9-26.66,1.3-26.75,162.59-1.33,151.32-15.54,212.12-24.31,30.26-4.37,94.45-2.55,95.69,12.27.32,3.85-22.25,10.47-26.73,19.37-8.28,16.46,12.67,38.68-3.39,33.15-41.69-14.36-148.47.87-198.52-5.15Z"/><path class="cls-8" d="M508.4,447.47c127.63-.88,134.01-6.94,180.42-19.63,38.38-10.49,95.79-8.91,96.76.24.34,3.24-18.77,3.69-27.11,12.96-9.1,10.12,18.16,28.8.06,26.08-15.81-2.38-50.34-1.53-86.38.07-41.3,1.83-59.17,7.28-91.13,3.18-35.73-4.58-30.77,11.54-62.15,6.08-2.9-.5-20.02-1.69-11.5-12.45,8.67-10.95-6.98-16.47,1.03-16.53Z"/><path class="cls-7" d="M553.39,454.8c50.19-.32,90.31-3.66,112.91-11.08,22.62-7.43,76.43-11.04,77.17-7.09.4,2.15,10.64,17.09-6.27,22.43-6.09,1.92-18.94-12.36-49.5-5.22-20.21,4.72-73.7,10.09-96.46,10.64-10.29.9-23.4-4.67-32.67-1.42-25.57,8.95-40.69,7.06-31.06-1.47,5.41-4.8,20.85-6.75,25.88-6.78Z"/><path class="cls-5" d="M342.87,514.09c3.71,22.17,4.43,53.02,56.57,18.16,17.03-11.38,47.08,14.41,59.49,12.01,9.96-1.93,12.48-12.06,4.22-16.83-11.76-6.8-5.13-20.26-2.27-33.58,5.91-27.57,12.1-46.18-30.27-38.95-42.37,7.23-99.5-11.08-87.75,59.19Z"/><path class="cls-4" d="M450.67,473.31c-5.81-12.04-14.13-7.78-39-3.97-27.93,4.27-61.76-2.96-54.01,43.38,2.77,16.53,4.35,34.4,43.97,9.46,11.19-7.05,46.77,17.59,53.2,11.35,3.46-3.36-6.81-4.01-12.3-23.22-2.42-8.46,11.52-29.99,8.14-37Z"/><path class="cls-4" d="M372.45,510.79c1.82,10.71.67,16.61,29.7,5.16,11.44-4.51,38.69,10.7,24.31-16.27-6.52-12.22,18.17-23.85-10.86-17.48-20.59,4.52-48.92-5.35-43.14,28.59Z"/><path class="cls-1" d="M398.85,504.49c12.37,5.85,26.64,8.68,19.42-5.36-3.27-6.36,9.12-12.42-5.45-9.1-10.34,2.35-30.73,6.54-13.96,14.46Z"/></g></svg>