<svg width="1157.460449" height="1103.435181" viewBox="0 0 1157.46 1103.44" fill="none" xmlns="http://www.w3.org/2000/svg" xmlns:xlink="http://www.w3.org/1999/xlink">
	<desc>
			Created with Pixso.
	</desc>
	<defs/>
	<g opacity="0.395426">
		<rect id="Groupe 163" width="1157.460449" height="1103.435303" fill="#FFFFFF" fill-opacity="0"/>
		<mask id="mask1_669" mask-type="alpha" maskUnits="userSpaceOnUse" x="0.000000" y="0.000000" width="1157.460205" height="1103.435181">
			<g style="mix-blend-mode:normal">
				<rect id="Rectangle 80" x="882.100098" width="845.783386" height="932.927429" transform="rotate(71 882.100098 0.000000)" fill="#FFFFFF" fill-opacity="1.000000"/>
				<rect id="Rectangle 80" x="882.100098" width="845.783386" height="932.927429" transform="rotate(71 882.100098 0.000000)" stroke="#000000" stroke-opacity="0" stroke-width="1.000000"/>
			</g>
		</mask>
		<g mask="url(#mask1_669)">
			<g style="mix-blend-mode:normal">
				<path id="Tracé 612" d="M1060.1 564.49C1163.73 667.45 1003.42 793.45 940.57 857.3C918.31 879.91 870.14 902.4 838.78 897.49C838.78 897.49 473.06 799.29 369.69 817.48C326.58 825.06 273.83 848.74 273.83 848.74C178.23 837.74 266.79 777.95 189.26 657.11C152.45 599.74 51.92 439.25 51.92 439.25C31.97 407.15 32.18 366.46 52.46 334.57L71.64 304.4C89.69 276.02 120.97 258.76 154.6 258.83C230.37 258.99 376.16 265.54 536.8 305.62C661.24 336.67 818.67 363.8 946.25 510.21C976.23 544.62 1029.65 534.23 1060.1 564.49Z" fill="#FFFFFF" fill-opacity="1.000000" fill-rule="nonzero"/>
				<path id="Tracé 612" d="M940.57 857.3C918.31 879.91 870.14 902.4 838.78 897.49C838.78 897.49 473.06 799.29 369.69 817.48C326.58 825.06 273.83 848.74 273.83 848.74C178.23 837.74 266.79 777.95 189.26 657.11C152.45 599.74 51.92 439.25 51.92 439.25C31.97 407.15 32.18 366.46 52.46 334.57L71.64 304.4C89.69 276.02 120.97 258.76 154.6 258.83C230.37 258.99 376.16 265.54 536.8 305.62C661.24 336.67 818.67 363.8 946.25 510.21C976.23 544.62 1029.65 534.23 1060.1 564.49C1163.73 667.45 1003.42 793.45 940.57 857.3Z" stroke="#754C24" stroke-opacity="0" stroke-width="1.250000" stroke-linejoin="round"/>
			</g>
		</g>
	</g>
</svg>
