<svg width="1937.657227" height="1485.393066" viewBox="0 0 1937.66 1485.39" fill="none" xmlns="http://www.w3.org/2000/svg" xmlns:xlink="http://www.w3.org/1999/xlink">
	<desc>
			Created with Pixso.
	</desc>
	<defs/>
	<rect id="album-bg" width="1932.515869" height="1481.708862" transform="translate(2.195312 0.694336)" fill="#FFFFFF" fill-opacity="0"/>
	<g opacity="0.277230">
		<g opacity="0.455481" style="mix-blend-mode:normal">
			<path id="Tracé 355" d="" fill="#FFFFFF" fill-opacity="0" fill-rule="nonzero"/>
			<path id="Tracé 355" d="M25.66 1049.66C109.28 959.87 361.65 888.17 425.31 696.63C488.97 505.08 509.9 504.91 603.88 378.04C697.87 251.17 667.54 231.76 939.43 165.19C1211.32 98.62 1221.18 92.22 1221.18 92.22" stroke="#707070" stroke-opacity="1.000000" stroke-width="6.000000" stroke-dasharray="6 20"/>
		</g>
		<g opacity="0.455481" style="mix-blend-mode:normal">
			<path id="Tracé 356" d="" fill="#FFFFFF" fill-opacity="0" fill-rule="nonzero"/>
			<path id="Tracé 356" d="M2.19 958.12C85.81 868.34 338.18 796.64 401.84 605.1C465.5 413.55 396.55 531.8 568.32 326.98C740.09 122.16 645.49 170.58 917.38 104.01C1189.28 37.44 1197.71 0.69 1197.71 0.69" stroke="#707070" stroke-opacity="1.000000" stroke-width="6.000000" stroke-dasharray="6 20"/>
		</g>
		<g opacity="0.455481" style="mix-blend-mode:normal">
			<path id="Tracé 357" d="" fill="#FFFFFF" fill-opacity="0" fill-rule="nonzero"/>
			<path id="Tracé 357" d="M1433.97 47.03C1433.97 47.03 1408.26 90.37 1249.52 157.48C1090.78 224.59 1010.39 198.62 860.53 263.36C710.68 328.11 669.58 389.75 579.81 579.62C490.05 769.5 622.3 810.45 536.02 976.9C449.74 1143.36 254.71 1051.9 80.7 1135.63" stroke="#707070" stroke-opacity="1.000000" stroke-width="3.000000"/>
		</g>
		<g opacity="0.455481" style="mix-blend-mode:normal">
			<path id="Tracé 358" d="" fill="#FFFFFF" fill-opacity="0" fill-rule="nonzero"/>
			<path id="Tracé 358" d="M17.46 1103.11C214.15 989.42 308.91 1061.1 398.44 966.16C486.26 873.02 401.53 795.25 492.79 657C494.04 655.47 642.04 386.32 643.45 384.8C731.59 255.36 764.04 257.03 904.89 213.22C1045.75 169.41 1265.93 147.06 1331.65 89.12" stroke="#707070" stroke-opacity="1.000000" stroke-width="3.000000"/>
		</g>
		<g opacity="0.455481" style="mix-blend-mode:normal">
			<path id="Tracé 359" d="" fill="#FFFFFF" fill-opacity="0" fill-rule="nonzero"/>
			<path id="Tracé 359" d="M81.09 1333.02C185.08 1298.6 212.26 1273.72 389.32 1248.81C566.38 1223.92 1127.17 1473.55 1349.14 1301.13C1571.12 1128.71 1625.31 1011.71 1607.88 793.84C1590.46 575.98 1493.88 683.09 1531.83 583.91C1569.79 484.72 1467.76 549.2 1557.63 395.97C1647.5 242.75 1322.11 317.43 1360.35 224.38C1398.59 131.32 1588.83 21.89 1588.83 21.89" stroke="#707070" stroke-opacity="1.000000" stroke-width="3.000000"/>
		</g>
		<g opacity="0.455481" style="mix-blend-mode:normal">
			<path id="Tracé 360" d="" fill="#FFFFFF" fill-opacity="0" fill-rule="nonzero"/>
			<path id="Tracé 360" d="M112.68 1377.58C401.47 1254.93 542.96 1269.73 764.68 1343.38C986.41 1417.02 1288.74 1467.06 1451.72 1289.11C1614.7 1111.17 1631.15 1008.56 1648.65 893.5C1666.15 778.44 1653.99 705.05 1580.79 627.06C1520.32 562.65 1600.51 403.75 1607.82 324.81C1609.33 308.48 1607.63 295.46 1600.7 287.64C1560.85 242.67 1544.98 259.54 1544.98 259.54C1544.98 259.54 1352.85 268.55 1451.72 189.83C1550.59 111.11 1629.34 68.22 1629.34 68.22" stroke="#707070" stroke-opacity="1.000000" stroke-width="6.000000" stroke-dasharray="6 20"/>
		</g>
		<g opacity="0.455481" style="mix-blend-mode:normal">
			<path id="Tracé 361" d="" fill="#FFFFFF" fill-opacity="0" fill-rule="nonzero"/>
			<path id="Tracé 361" d="M112.68 1449.39C401.47 1326.74 542.96 1341.53 764.68 1415.18C986.41 1488.83 1288.74 1538.87 1451.72 1360.92C1614.7 1182.97 1915.63 1154.3 1933.13 1039.25C1950.64 924.19 1818.34 867.65 1745.13 789.66C1684.67 725.25 1622.04 620.14 1629.34 541.2C1630.63 527.32 1688.74 339.76 1704.01 256.01C1719.29 172.26 1514.7 238.14 1537.95 204.13C1561.19 170.12 1702.83 112.15 1766.3 87.11" stroke="#707070" stroke-opacity="1.000000" stroke-width="6.000000" stroke-dasharray="6 20"/>
		</g>
		<g style="mix-blend-mode:normal"/>
		<g style="mix-blend-mode:normal"/>
		<g style="mix-blend-mode:normal"/>
		<g style="mix-blend-mode:normal"/>
	</g>
	<g opacity="0.300718">
		<mask id="mask1_87" mask-type="alpha" maskUnits="userSpaceOnUse" x="616.575684" y="255.574707" width="1180.982910" height="1108.391113">
			<g style="mix-blend-mode:normal">
				<rect id="Rectangle 26" x="616.575684" y="255.574707" width="1180.982788" height="1108.390869" fill="#C4C4C4" fill-opacity="1.000000"/>
			</g>
		</mask>
		<g mask="url(#mask1_87)">
			<g style="mix-blend-mode:normal">
				<path id="Tracé 265" d="M1419.79 1222.67L1418.72 1223.62C1354.66 1291.37 1302.5 1323.52 1212.26 1350.82C1205.26 1353.03 1167 1363.97 1110.89 1363.97C1075.12 1363.97 1040.05 1359.42 1006.58 1350.46C952.05 1335.89 886.7 1295.43 794.52 1219.26C752.55 1184.79 710.88 1134.13 680.11 1080.47C645.34 1019.53 625.29 931.16 627.19 879.76C637.37 604.07 698.7 460.72 842.86 366.56C911.23 321.82 999.5 303.06 1084.07 303.06C1177.91 303.06 1257.64 333.16 1332.37 375.82C1354.24 388.25 1397.16 410.66 1437.88 463.41C1458.92 490.83 1475.01 515.62 1484.44 541.3C1488.16 551.28 1482.53 561.22 1472.16 559.78C1454.65 557.33 1424.66 556.81 1409.94 565.57C1393.49 575.39 1383.36 586.31 1363.97 612.24C1354.42 624.9 1352.66 626.76 1352.07 627.35C1338.46 641.81 1323.19 644.68 1301.43 644.68C1295.25 644.68 1288 644.44 1278.56 644.03C1270.15 643.6 1260.12 643.18 1249.16 643.18C1214.27 643.18 1166.65 647.43 1107.6 680.29C1098.46 685.43 1087.31 685.25 1078.42 679.99C1071.76 675.99 1064.15 670.91 1060.03 668.22C1040.05 654.9 1002.74 643.42 985.82 643.07L981.7 642.95C979.98 642.89 978.04 642.83 975.86 642.83C942.27 642.83 907.19 663.05 882.32 686.17C850.02 716.28 813.32 779.42 805.68 900.97C801.89 961.3 853.3 1042.72 954.58 1065.9C991.61 1074.38 1079.43 1090.31 1096.3 1090.31C1119.68 1090.31 1128.1 1108.04 1139.4 1123.98C1151.64 1141.27 1176.06 1153.47 1194.13 1152.72C1243.06 1150.68 1262.39 1143.93 1317.81 1010.32C1334.15 970.92 1345.25 929.38 1336.6 910.68C1319.83 874.42 1283.62 831.57 1213.62 899.55C1195.55 917.09 1162.47 937.6 1096.88 940.65C1051.94 942.74 1025.92 933.91 1012.37 927.21C995.39 918.73 984.08 908.67 980.01 893.68C974.63 873.87 980.11 858.98 991.83 844.49C1030.1 797.2 1181.72 771.8 1275.37 771.8C1287.63 771.8 1319.6 773.27 1329.77 772.43C1379.2 768.38 1416.82 753.92 1456.78 734.68C1456.78 734.68 1519.46 698.76 1539.35 708.8C1554.94 716.67 1562.5 729.83 1568.16 739.92C1576.07 754.02 1579.5 773.51 1581.87 792.5C1599.9 937.2 1495.46 1154.62 1419.79 1222.67Z" fill="#FFFFFF" fill-opacity="1.000000" fill-rule="nonzero"/>
			</g>
		</g>
		<g mask="url(#mask1_87)">
			<g style="mix-blend-mode:normal">
				<path id="Tracé 266" d="M1718.76 1087.18C1709.15 1085.09 1718.45 1077.97 1698.33 1073.56C1678.27 1069.07 1659.66 1064.47 1661.84 1048.82C1663.83 1034.59 1676.82 1021.09 1686.31 1016.86C1690.48 1015.02 1702.26 1013.17 1710.12 1016.24C1723.47 1021.52 1733.2 1034.1 1739.66 1057.6C1746.06 1081.1 1728.37 1089.32 1718.76 1087.18Z" fill="#FFFFFF" fill-opacity="1.000000" fill-rule="nonzero"/>
			</g>
		</g>
		<g mask="url(#mask1_87)">
			<g style="mix-blend-mode:normal">
				<path id="Tracé 267" d="M1765.77 934.44C1754.22 929.96 1767.1 922.91 1742.93 913.52C1718.82 904.19 1696.64 894.86 1702.26 875.9C1707.34 858.6 1725.95 844.3 1738.52 840.93C1744.08 839.39 1759 839.33 1768.18 844.67C1783.77 853.75 1793.56 871.3 1797.18 901.74C1800.81 932.11 1777.25 938.92 1765.77 934.44Z" fill="#FFFFFF" fill-opacity="1.000000" fill-rule="nonzero"/>
			</g>
		</g>
	</g>
</svg>
