<svg width="1180.982910" height="1108.390625" viewBox="0 0 1180.98 1108.39" fill="none" xmlns="http://www.w3.org/2000/svg" xmlns:xlink="http://www.w3.org/1999/xlink">
	<desc>
			Created with Pixso.
	</desc>
	<defs/>
	<g opacity="0.300718">
		<mask id="mask1_87" mask-type="alpha" maskUnits="userSpaceOnUse" x="0.000000" y="0.000000" width="1180.982910" height="1108.390625">
			<g style="mix-blend-mode:normal">
				<rect id="Rectangle 26" width="1180.982788" height="1108.390869" fill="#C4C4C4" fill-opacity="1.000000"/>
			</g>
		</mask>
		<g mask="url(#mask1_87)">
			<g style="mix-blend-mode:normal">
				<path id="Tracé 265" d="M803.21 967.09L802.14 968.04C738.08 1035.8 685.92 1067.93 595.68 1095.25C588.68 1097.46 550.42 1108.39 494.31 1108.39C458.54 1108.39 423.47 1103.85 390 1094.88C335.48 1080.31 270.12 1039.86 177.94 963.68C135.97 929.21 94.3 878.55 63.54 824.89C28.76 763.95 8.71 675.58 10.61 624.18C20.8 348.5 82.13 205.15 226.29 110.99C294.66 66.24 382.93 47.49 467.5 47.49C561.33 47.49 641.06 77.59 715.79 120.25C737.66 132.67 780.58 155.08 821.3 207.84C842.34 235.26 858.43 260.04 867.86 285.73C871.58 295.71 865.95 305.64 855.58 304.21C838.07 301.76 808.08 301.23 793.36 310C776.91 319.81 766.78 330.73 747.39 356.66C737.84 369.33 736.08 371.18 735.49 371.78C721.88 386.24 706.61 389.11 684.86 389.11C678.67 389.11 671.42 388.87 661.99 388.45C653.57 388.03 643.54 387.61 632.58 387.61C597.69 387.61 550.07 391.86 491.02 424.72C481.88 429.85 470.74 429.67 461.84 424.42C455.18 420.41 447.57 415.33 443.45 412.65C423.47 399.32 386.16 387.85 369.24 387.49L365.12 387.37C363.41 387.32 361.46 387.25 359.29 387.25C325.69 387.25 290.61 407.47 265.74 430.59C233.44 460.71 196.74 523.84 189.1 645.39C185.31 705.73 236.73 787.14 338 810.32C375.03 818.8 462.86 834.73 479.72 834.73C503.11 834.73 511.52 852.46 522.82 868.4C535.06 885.7 559.49 897.89 577.55 897.14C626.49 895.1 645.81 888.35 701.23 754.74C717.57 715.35 728.67 673.81 720.02 655.11C703.25 618.85 667.04 575.99 597.04 643.98C578.97 661.52 545.89 682.03 480.3 685.08C435.37 687.16 409.34 678.33 395.79 671.64C378.82 663.16 367.5 653.09 363.43 638.11C358.06 618.3 363.53 603.4 375.26 588.92C413.52 541.63 565.14 516.23 658.79 516.23C671.05 516.23 703.02 517.69 713.19 516.86C762.62 512.81 800.24 498.35 840.2 479.11C840.2 479.11 902.88 443.19 922.77 453.22C938.36 461.1 945.92 474.26 951.58 484.34C959.49 498.45 962.92 517.93 965.29 536.92C983.32 681.63 878.88 899.04 803.21 967.09Z" fill="#FFFFFF" fill-opacity="1.000000" fill-rule="nonzero"/>
			</g>
		</g>
		<g mask="url(#mask1_87)">
			<g style="mix-blend-mode:normal">
				<path id="Tracé 266" d="M1102.18 831.6C1092.56 829.51 1101.87 822.39 1081.75 817.98C1061.68 813.5 1043.07 808.89 1045.26 793.25C1047.26 779.01 1060.25 765.51 1069.73 761.28C1073.9 759.44 1085.68 757.6 1093.54 760.66C1106.89 765.94 1116.62 778.52 1123.09 802.02C1129.49 825.52 1111.79 833.75 1102.18 831.6Z" fill="#FFFFFF" fill-opacity="1.000000" fill-rule="nonzero"/>
			</g>
		</g>
		<g mask="url(#mask1_87)">
			<g style="mix-blend-mode:normal">
				<path id="Tracé 267" d="M1149.18 678.87C1137.65 674.39 1150.52 667.33 1126.35 657.94C1102.24 648.62 1080.06 639.29 1085.68 620.33C1090.76 603.02 1109.37 588.73 1121.93 585.35C1127.5 583.82 1142.42 583.76 1151.61 589.09C1167.18 598.18 1176.99 615.73 1180.61 646.16C1184.23 676.54 1160.67 683.35 1149.18 678.87Z" fill="#FFFFFF" fill-opacity="1.000000" fill-rule="nonzero"/>
			</g>
		</g>
	</g>
</svg>
