<?xml version="1.0" encoding="UTF-8"?><svg id="Calque_2" xmlns="http://www.w3.org/2000/svg" viewBox="0 0 1957.92 2607.68"><defs><style>.cls-1{stroke-dasharray:11.83 11.83;}.cls-1,.cls-2,.cls-3,.cls-4,.cls-5,.cls-6,.cls-7,.cls-8,.cls-9,.cls-10,.cls-11,.cls-12,.cls-13,.cls-14,.cls-15,.cls-16{fill:none;stroke-miterlimit:10;}.cls-1,.cls-2,.cls-3,.cls-4,.cls-5,.cls-6,.cls-7,.cls-8,.cls-10,.cls-11,.cls-12,.cls-13,.cls-14,.cls-15,.cls-17,.cls-18,.cls-19,.cls-16{stroke:#754c24;}.cls-2{stroke-dasharray:12.03 12.03;}.cls-3{stroke-dasharray:12.04 12.04;}.cls-4{stroke-dasharray:11.64 11.64;}.cls-5{stroke-dasharray:11.72 11.72;}.cls-6{stroke-dasharray:12.2 12.2;}.cls-8{stroke-dasharray:12;}.cls-9{stroke:gray;}.cls-10{stroke-dasharray:11.97 11.97;}.cls-11{stroke-dasharray:11.96 11.96;}.cls-12{stroke-dasharray:11.94 11.94;}.cls-13{stroke-dasharray:11.94 11.94;}.cls-14{stroke-dasharray:11.89 11.89;}.cls-15{stroke-dasharray:11.9 11.9;}.cls-17{font-size:15.98px;}.cls-17,.cls-18,.cls-19{font-family:OxygenMono-Regular, 'Oxygen Mono';}.cls-18{font-size:16.03px;}.cls-19{font-size:15.7px;}.cls-16{stroke-dasharray:14.13 14.13;}</style></defs><g id="illustrations"><path class="cls-7" d="M1422.78,1144.38c21.75-26.53,48.97-54.72,77.56-72.87,47.15-29.92,103.42-39.56,157.83-50.4,54.41-10.84,110.63-24.51,153.68-60.35,39.37-32.79,64.05-89.47,49.45-138.08-3.74-12.46-4.19-25.7-1.2-38.37,9.89-41.93,35.64-72.41,79.17-83.99"/><path class="cls-7" d="M19.52,1314.87c85.4-92.33,213.71-132.7,337.71-134.36,124-1.66,245.75,31.35,364.9,66.68s238.79,73.46,362.48,82.51c70.82,5.18,145.77-.39,205.9-39.15,46.99-30.29,75.91-72.03,110.55-117.36"/><text class="cls-17" transform="translate(1407.88 1173.81) rotate(-52.56)"><tspan x="0" y="0">1</tspan></text><text class="cls-17" transform="translate(1413.29 1166.73) rotate(-52.23)"><tspan x="0" y="0">0</tspan></text><text class="cls-17" transform="translate(1419.13 1159.19) rotate(-51.72)"><tspan x="0" y="0">0</tspan></text><path class="cls-7" d="M1708.55,139.05c.91-1.77,1.83-3.54,2.77-5.32"/><path class="cls-5" d="M1716.8,123.37c20.8-38.63,46.28-79.31,76.92-110.09"/><path class="cls-7" d="M1797.9,9.17c1.45-1.39,2.91-2.76,4.38-4.1"/><path class="cls-7" d="M1383.97,1117.95c1.43-1.37,2.88-2.75,4.35-4.13"/><path class="cls-3" d="M1397.2,1105.69c52.52-47.16,126.66-99.13,146.18-155.54,14.53-41.99-18.19-94.85-7.93-137.93,8.52-35.76,50.06-50.33,59.17-84.76,10.49-39.7-8.27-87.53-9.09-122.77-2.46-106.16,109.09-53.45,75.48-210.49-6.16-28.79,2.27-93.05,10.53-135.46,4.46-22.89,10.85-45.13,18.46-67"/><path class="cls-7" d="M1692.01,186.07c.67-1.88,1.36-3.76,2.05-5.64"/><path class="cls-7" d="M20.93,1235.87c1.55-1.27,3.11-2.53,4.66-3.78"/><path class="cls-10" d="M34.98,1224.67c171.27-132.85,353.89-140.26,575.3-91.52,140.95,31.04,288.06,122.73,431.55,139.06,130.39,14.84,185.81-3.38,309.07-119.58"/><path class="cls-7" d="M1355.24,1148.51c1.44-1.37,2.89-2.74,4.35-4.14"/><text class="cls-19" transform="translate(1371.04 1140.57) rotate(-47.22) scale(1.05 1)"><tspan x="0" y="0">5</tspan></text><text class="cls-19" transform="translate(1377.74 1133.33) rotate(-47.65) scale(1.05 1)"><tspan x="0" y="0">0</tspan></text><text class="cls-18" transform="translate(1702.86 170.94) rotate(-65.35) scale(1.02 1)"><tspan x="0" y="0">5</tspan></text><text class="cls-18" transform="translate(1706.87 162.2) rotate(-64.09) scale(1.02 1)"><tspan x="0" y="0">0</tspan></text><path class="cls-7" d="M37.85,1402.03c1.38-1.45,2.76-2.9,4.16-4.33"/><path class="cls-11" d="M50.45,1389.24c82.89-80.84,191.91-126,300.26-138.27,144.11-16.3,288.7,18.86,428.88,61.38,140.19,42.52,279.74,92.85,423.95,107.8,69.89,7.24,145.02,4.51,203.31-41.44,94.94-74.83,120.26-243.91,225.23-297.06,55.26-27.98,79.19-19.01,136.82,1.29,45.68,16.1,125.16,8.21,177.02,12.57"/><path class="cls-7" d="M1951.9,1096.09c2.04.22,4.02.46,5.95.73"/><path class="cls-7" d="M1598.98,1509.71c1.33-1.47,2.67-2.95,4.04-4.43"/><path class="cls-15" d="M1611.15,1496.57c22.41-23.59,48.98-48.28,74.8-65.06,70.54-45.85,156.11-56.91,241.37-60.09"/><path class="cls-7" d="M1933.27,1371.22c2-.07,4-.13,6-.19"/><path class="cls-7" d="M19.27,1667.15c1.59-1.22,3.19-2.41,4.8-3.59"/><path class="cls-12" d="M33.86,1656.72c61.75-41.23,140.13-58.64,215.26-55.57,99.66,4.06,195.18,39.79,286.33,80.23,91.16,40.43,180.63,86.23,276.84,112.49,252.2,68.84,539.64-13.01,717.57-204.32,13.24-14.24,25.97-29.07,38.67-43.94"/><path class="cls-7" d="M1572.41,1541.06c1.3-1.52,2.6-3.04,3.9-4.56"/><text class="cls-17" transform="translate(1583.05 1537.56) rotate(-49.34)"><tspan x="0" y="0">2</tspan></text><text class="cls-17" transform="translate(1588.96 1530.67) rotate(-49.1)"><tspan x="0" y="0">0</tspan></text><text class="cls-17" transform="translate(1595.22 1523.44) rotate(-48.74)"><tspan x="0" y="0">0</tspan></text><path class="cls-7" d="M1717.2,1653.49c27.91-40.06,62.66-78.95,105.14-102.15,31.51-17.21,75.5-25.01,116.92-21.28"/><path class="cls-7" d="M424.33,1983.86c67.83,0,121.62,20.21,173.6,50.62,63.42,37.1,114.8,91.47,174.61,134.13,59.82,42.67,134.93,74.11,206.02,55.46,88.58-23.25,139.88-113.44,212.96-168.56,108.35-81.71,263.09-84.35,366.3-172.42,54.36-46.39,88.3-111.54,124.2-173.31,5.22-8.98,8.48-14.58,13.99-23.51"/><path class="cls-7" d="M20.93,2333.4c10.81-128.51,91.29-249.05,205.91-308.44,50.15-25.98,100.21-39.63,156.64-41.59"/><text class="cls-17" transform="translate(1701.67 1688.14) rotate(-58.15)"><tspan x="0" y="0">4</tspan></text><text class="cls-17" transform="translate(1706.75 1679.96) rotate(-57.47)"><tspan x="0" y="0">0</tspan></text><text class="cls-17" transform="translate(1711.86 1671.96) rotate(-56.7)"><tspan x="0" y="0">0</tspan></text><text class="cls-17" transform="translate(390.57 1988.87) rotate(-1.15)"><tspan x="0" y="0">4</tspan></text><text class="cls-17" transform="translate(400.09 1988.67) rotate(.23)"><tspan x="0" y="0">0</tspan></text><text class="cls-17" transform="translate(409.52 1988.71) rotate(1.6)"><tspan x="0" y="0">0</tspan></text><text class="cls-17" transform="translate(418.98 1988.97) rotate(2.97)"><tspan x="0" y="0"> </tspan></text><text class="cls-17" transform="translate(428.42 1989.46) rotate(4.34)"><tspan x="0" y="0"> </tspan></text><text class="cls-17" transform="translate(437.87 1990.17) rotate(5.72)"><tspan x="0" y="0"> </tspan></text><text class="cls-17" transform="translate(447.28 1991.11) rotate(7.09)"><tspan x="0" y="0"> </tspan></text><text class="cls-17" transform="translate(456.68 1992.28) rotate(8.48)"><tspan x="0" y="0"> </tspan></text><text class="cls-17" transform="translate(466.03 1993.67) rotate(9.86)"><tspan x="0" y="0"> </tspan></text><text class="cls-17" transform="translate(475.34 1995.29) rotate(11.25)"><tspan x="0" y="0"> </tspan></text><text class="cls-17" transform="translate(484.62 1997.14) rotate(12.65)"><tspan x="0" y="0"> </tspan></text><text class="cls-17" transform="translate(493.86 1999.21) rotate(14.06)"><tspan x="0" y="0"> </tspan></text><text class="cls-17" transform="translate(503.02 2001.5) rotate(15.48)"><tspan x="0" y="0"> </tspan></text><text class="cls-17" transform="translate(512.14 2004.02) rotate(16.9)"><tspan x="0" y="0"> </tspan></text><text class="cls-17" transform="translate(521.19 2006.77) rotate(18.34)"><tspan x="0" y="0"> </tspan></text><text class="cls-17" transform="translate(530.16 2009.74) rotate(19.78)"><tspan x="0" y="0"> </tspan></text><text class="cls-17" transform="translate(539.06 2012.94) rotate(21.24)"><tspan x="0" y="0"> </tspan></text><text class="cls-17" transform="translate(547.87 2016.36) rotate(22.71)"><tspan x="0" y="0"> </tspan></text><text class="cls-17" transform="translate(556.59 2020.01) rotate(24.19)"><tspan x="0" y="0"> </tspan></text><text class="cls-17" transform="translate(565.21 2023.88) rotate(25.68)"><tspan x="0" y="0"> </tspan></text><text class="cls-17" transform="translate(573.73 2027.98) rotate(27.19)"><tspan x="0" y="0"> </tspan></text><text class="cls-17" transform="translate(582.13 2032.29) rotate(28.71)"><tspan x="0" y="0"> </tspan></text><text class="cls-17" transform="translate(590.43 2036.89) rotate(29.71)"><tspan x="0" y="0"> </tspan></text><text class="cls-17" transform="translate(598.58 2041.59) rotate(31.64)"><tspan x="0" y="0"> </tspan></text><text class="cls-17" transform="translate(606.66 2046.56) rotate(32.92)"><tspan x="0" y="0"> </tspan></text><text class="cls-17" transform="translate(614.62 2051.72) rotate(34.1)"><tspan x="0" y="0"> </tspan></text><text class="cls-17" transform="translate(622.46 2057.03) rotate(35.17)"><tspan x="0" y="0"> </tspan></text><text class="cls-17" transform="translate(630.23 2062.5) rotate(36.14)"><tspan x="0" y="0"> </tspan></text><text class="cls-17" transform="translate(637.92 2068.12) rotate(37)"><tspan x="0" y="0"> </tspan></text><text class="cls-17" transform="translate(645.51 2073.84) rotate(37.75)"><tspan x="0" y="0"> </tspan></text><text class="cls-17" transform="translate(653.07 2079.69) rotate(38.4)"><tspan x="0" y="0"> </tspan></text><text class="cls-17" transform="translate(660.55 2085.62) rotate(38.94)"><tspan x="0" y="0"> </tspan></text><text class="cls-17" transform="translate(667.96 2091.62) rotate(39.37)"><tspan x="0" y="0"> </tspan></text><text class="cls-17" transform="translate(675.37 2097.7) rotate(39.7)"><tspan x="0" y="0"> </tspan></text><text class="cls-17" transform="translate(682.73 2103.81) rotate(39.93)"><tspan x="0" y="0"> </tspan></text><text class="cls-17" transform="translate(690.08 2109.96) rotate(40.05)"><tspan x="0" y="0"> </tspan></text><text class="cls-17" transform="translate(697.42 2116.14) rotate(40.06)"><tspan x="0" y="0"> </tspan></text><text class="cls-17" transform="translate(704.79 2122.34) rotate(39.98)"><tspan x="0" y="0"> </tspan></text><text class="cls-17" transform="translate(712.16 2128.52) rotate(39.78)"><tspan x="0" y="0"> </tspan></text><text class="cls-17" transform="translate(719.56 2134.68) rotate(39.49)"><tspan x="0" y="0"> </tspan></text><text class="cls-17" transform="translate(726.99 2140.81) rotate(39.09)"><tspan x="0" y="0"> </tspan></text><text class="cls-17" transform="translate(734.5 2146.9) rotate(38.58)"><tspan x="0" y="0"> </tspan></text><text class="cls-17" transform="translate(742.04 2152.92) rotate(37.97)"><tspan x="0" y="0"> </tspan></text><text class="cls-17" transform="translate(749.67 2158.88) rotate(37.25)"><tspan x="0" y="0"> </tspan></text><text class="cls-17" transform="translate(757.38 2164.74) rotate(36.43)"><tspan x="0" y="0"> </tspan></text><text class="cls-17" transform="translate(765.16 2170.46) rotate(35.72)"><tspan x="0" y="0"> </tspan></text><text class="cls-17" transform="translate(773.09 2176.14) rotate(34.27)"><tspan x="0" y="0"> </tspan></text><text class="cls-17" transform="translate(781.14 2181.63) rotate(32.98)"><tspan x="0" y="0"> </tspan></text><text class="cls-17" transform="translate(789.3 2186.92) rotate(31.65)"><tspan x="0" y="0"> </tspan></text><text class="cls-17" transform="translate(797.59 2192.03) rotate(30.27)"><tspan x="0" y="0"> </tspan></text><text class="cls-17" transform="translate(806.01 2196.94) rotate(28.83)"><tspan x="0" y="0"> </tspan></text><text class="cls-17" transform="translate(814.57 2201.65) rotate(27.31)"><tspan x="0" y="0"> </tspan></text><text class="cls-17" transform="translate(823.24 2206.13) rotate(25.72)"><tspan x="0" y="0"> </tspan></text><text class="cls-17" transform="translate(832.04 2210.37) rotate(24.06)"><tspan x="0" y="0"> </tspan></text><text class="cls-17" transform="translate(840.96 2214.35) rotate(22.3)"><tspan x="0" y="0"> </tspan></text><text class="cls-17" transform="translate(850.01 2218.06) rotate(20.44)"><tspan x="0" y="0"> </tspan></text><text class="cls-17" transform="translate(859.2 2221.48) rotate(18.47)"><tspan x="0" y="0"> </tspan></text><text class="cls-17" transform="translate(868.53 2224.59) rotate(16.38)"><tspan x="0" y="0"> </tspan></text><text class="cls-17" transform="translate(877.94 2227.36) rotate(14.18)"><tspan x="0" y="0"> </tspan></text><text class="cls-17" transform="translate(887.47 2229.76) rotate(11.85)"><tspan x="0" y="0"> </tspan></text><text class="cls-17" transform="translate(897.12 2231.78) rotate(9.38)"><tspan x="0" y="0"> </tspan></text><text class="cls-17" transform="translate(906.87 2233.39) rotate(6.76)"><tspan x="0" y="0"> </tspan></text><text class="cls-17" transform="translate(916.67 2234.55) rotate(4.02)"><tspan x="0" y="0"> </tspan></text><text class="cls-17" transform="translate(926.54 2235.23) rotate(1.14)"><tspan x="0" y="0"> </tspan></text><text class="cls-17" transform="translate(936.46 2235.43) rotate(-1.87)"><tspan x="0" y="0"> </tspan></text><text class="cls-17" transform="translate(946.37 2235.09) rotate(-4.99)"><tspan x="0" y="0"> </tspan></text><text class="cls-17" transform="translate(956.26 2234.22) rotate(-8.21)"><tspan x="0" y="0"> </tspan></text><text class="cls-17" transform="translate(966.09 2232.79) rotate(-11.51)"><tspan x="0" y="0"> </tspan></text><text class="cls-17" transform="translate(975.93 2230.84) rotate(-15.63)"><tspan x="0" y="0"> </tspan></text><text class="cls-17" transform="translate(985.42 2228.25) rotate(-18.07)"><tspan x="0" y="0"> </tspan></text><text class="cls-17" transform="translate(994.86 2225.16) rotate(-21.21)"><tspan x="0" y="0"> </tspan></text><text class="cls-17" transform="translate(1004.08 2221.57) rotate(-24.22)"><tspan x="0" y="0"> </tspan></text><text class="cls-17" transform="translate(1013.1 2217.5) rotate(-27.08)"><tspan x="0" y="0"> </tspan></text><text class="cls-17" transform="translate(1021.9 2212.99) rotate(-29.77)"><tspan x="0" y="0"> </tspan></text><text class="cls-17" transform="translate(1030.45 2208.09) rotate(-32.24)"><tspan x="0" y="0"> </tspan></text><text class="cls-17" transform="translate(1038.75 2202.85) rotate(-34.49)"><tspan x="0" y="0"> </tspan></text><text class="cls-17" transform="translate(1046.82 2197.29) rotate(-36.53)"><tspan x="0" y="0"> </tspan></text><text class="cls-17" transform="translate(1054.69 2191.46) rotate(-38.35)"><tspan x="0" y="0"> </tspan></text><text class="cls-17" transform="translate(1062.34 2185.4) rotate(-39.96)"><tspan x="0" y="0"> </tspan></text><text class="cls-17" transform="translate(1069.81 2179.13) rotate(-41.36)"><tspan x="0" y="0"> </tspan></text><text class="cls-17" transform="translate(1077.1 2172.71) rotate(-42.55)"><tspan x="0" y="0"> </tspan></text><text class="cls-17" transform="translate(1084.26 2166.13) rotate(-43.56)"><tspan x="0" y="0"> </tspan></text><text class="cls-17" transform="translate(1091.27 2159.46) rotate(-44.37)"><tspan x="0" y="0"> </tspan></text><text class="cls-17" transform="translate(1098.18 2152.7) rotate(-45.01)"><tspan x="0" y="0"> </tspan></text><text class="cls-17" transform="translate(1105 2145.87) rotate(-45.48)"><tspan x="0" y="0"> </tspan></text><text class="cls-17" transform="translate(1111.74 2139.01) rotate(-45.77)"><tspan x="0" y="0"> </tspan></text><text class="cls-17" transform="translate(1118.46 2132.11) rotate(-45.9)"><tspan x="0" y="0"> </tspan></text><text class="cls-17" transform="translate(1125.12 2125.22) rotate(-45.87)"><tspan x="0" y="0"> </tspan></text><text class="cls-17" transform="translate(1131.79 2118.35) rotate(-45.68)"><tspan x="0" y="0"> </tspan></text><text class="cls-17" transform="translate(1138.46 2111.51) rotate(-45.32)"><tspan x="0" y="0"> </tspan></text><text class="cls-17" transform="translate(1145.18 2104.71) rotate(-44.8)"><tspan x="0" y="0"> </tspan></text><text class="cls-17" transform="translate(1151.94 2098) rotate(-44.11)"><tspan x="0" y="0"> </tspan></text><text class="cls-17" transform="translate(1158.78 2091.37) rotate(-43.25)"><tspan x="0" y="0"> </tspan></text><text class="cls-17" transform="translate(1165.68 2084.88) rotate(-42.21)"><tspan x="0" y="0"> </tspan></text><text class="cls-17" transform="translate(1172.71 2078.5) rotate(-40.99)"><tspan x="0" y="0"> </tspan></text><text class="cls-17" transform="translate(1179.83 2072.3) rotate(-39.59)"><tspan x="0" y="0"> </tspan></text><text class="cls-17" transform="translate(1187.11 2066.27) rotate(-37.99)"><tspan x="0" y="0"> </tspan></text><text class="cls-17" transform="translate(1194.53 2060.47) rotate(-36.22)"><tspan x="0" y="0"> </tspan></text><text class="cls-17" transform="translate(1202.13 2054.91) rotate(-34.48)"><tspan x="0" y="0"> </tspan></text><text class="cls-17" transform="translate(1209.91 2049.56) rotate(-32.81)"><tspan x="0" y="0"> </tspan></text><text class="cls-17" transform="translate(1217.85 2044.44) rotate(-31.23)"><tspan x="0" y="0"> </tspan></text><text class="cls-17" transform="translate(1225.91 2039.55) rotate(-29.74)"><tspan x="0" y="0"> </tspan></text><text class="cls-17" transform="translate(1234.15 2034.85) rotate(-28.34)"><tspan x="0" y="0"> </tspan></text><text class="cls-17" transform="translate(1242.47 2030.36) rotate(-27.04)"><tspan x="0" y="0"> </tspan></text><text class="cls-17" transform="translate(1250.91 2026.05) rotate(-25.84)"><tspan x="0" y="0"> </tspan></text><text class="cls-17" transform="translate(1259.46 2021.91) rotate(-24.73)"><tspan x="0" y="0"> </tspan></text><text class="cls-17" transform="translate(1268.07 2017.94) rotate(-23.72)"><tspan x="0" y="0"> </tspan></text><text class="cls-17" transform="translate(1276.77 2014.12) rotate(-22.8)"><tspan x="0" y="0"> </tspan></text><text class="cls-17" transform="translate(1285.56 2010.43) rotate(-21.97)"><tspan x="0" y="0"> </tspan></text><text class="cls-17" transform="translate(1294.38 2006.87) rotate(-21.24)"><tspan x="0" y="0"> </tspan></text><text class="cls-17" transform="translate(1303.27 2003.42) rotate(-20.59)"><tspan x="0" y="0"> </tspan></text><path class="cls-7" d="M1665.29,1591.55c32.88-39.01,77.12-81.66,124.08-100.7,47.92-19.42,102.15-17.28,149.9,1.55"/><path class="cls-7" d="M19.27,2166.8c25.68-45.7,54.29-89.54,87.48-130.28,89.77-110.21,219.17-196.57,361.33-201.46,139.48-4.8,268.8,67.1,404.67,98.95,258.37,60.58,547.36-37.24,715.6-242.21,19.02-23.18,36.81-46.49,55.39-70.73"/><text class="cls-17" transform="translate(1650.55 1620.62) rotate(-52.25)"><tspan x="0" y="0">3</tspan></text><text class="cls-17" transform="translate(1656.37 1613.1) rotate(-51.82)"><tspan x="0" y="0">0</tspan></text><text class="cls-17" transform="translate(1662.27 1605.6) rotate(-51.29)"><tspan x="0" y="0">0</tspan></text><path class="cls-7" d="M424.09,2035.18c1.99.23,3.97.48,5.95.75"/><path class="cls-2" d="M441.92,2037.75c71.54,12.27,140.46,47.47,198.68,92.09,86.64,66.41,155.4,152.75,231.5,230.98,76.1,78.22,164.05,150.9,269.79,178.17,162.26,41.86,329.92-29.97,481.82-100.65,96.81-45.04,199.66-91.01,303.68-108.17"/><path class="cls-7" d="M1933.33,2329.23c1.98-.3,3.95-.6,5.93-.88"/><path class="cls-7" d="M19.27,2370.28c.74-1.86,1.49-3.71,2.24-5.56"/><path class="cls-1" d="M25.99,2353.77c22.57-54.49,48.38-107.42,82.27-155.57,54.84-77.89,134.2-143.14,227.96-160.46,9.47-1.75,18.97-2.99,28.47-3.75"/><path class="cls-7" d="M370.59,2033.57c2-.12,4-.22,5.99-.3"/><text class="cls-17" transform="translate(386.16 2038.84) rotate(.57)"><tspan x="0" y="0">3</tspan></text><text class="cls-17" transform="translate(395.51 2038.93) rotate(2.37)"><tspan x="0" y="0">0</tspan></text><text class="cls-17" transform="translate(404.9 2039.31) rotate(4.13)"><tspan x="0" y="0">0</tspan></text><path class="cls-9" d="M1862.11,11.21c-71.83,111.7-123.58,236.27-151.85,365.99-8.45,38.76-13.45,83.63,11.93,114.17,39.44,47.46,124.03,28.08,166.57,72.79,16.47,17.3,28.34,44.65,50.51,48.74"/><path class="cls-7" d="M1935.36,11.21s-1.19,1.88-3.13,5.12"/><path class="cls-6" d="M1926.16,26.91c-5.96,10.77-13.53,25.63-18.56,39.89-39.5,76.9-74.47,156.13-104.65,237.13-8.23,22.1-16.23,45.51-12.45,68.79,3.78,23.28,23.59,45.71,47.12,43.9,21.5-1.65,37.07-22.15,42.88-42.89,5.82-20.73,4.86-42.79,9.37-63.84,5.55-25.9,20.14-49.37,39.97-66.93"/><path class="cls-7" d="M1934.51,239.01c1.56-1.26,3.14-2.48,4.75-3.66"/><path class="cls-7" d="M618.47,209.17c1.12-1.68,2.22-3.35,3.32-4.99"/><path class="cls-4" d="M628.31,194.51c69.06-101.65,109.23-132.78,174.47-176.71"/><path class="cls-7" d="M807.6,14.55c1.64-1.1,3.31-2.22,4.98-3.34"/><path class="cls-7" d="M593.52,248.77c-.98,1.75-1.95,3.49-2.91,5.25"/><path class="cls-13" d="M584.96,264.54c-70.92,134.96-93.51,289.87-65.67,440.24,8.49,45.86,21.72,91.26,22.4,137.89s-13.51,96.42-50.04,125.46c-40.71,32.35-97.42,31.57-149.22,36.5-105.01,9.96-206.46,50.97-290.18,114.95-8.16,6.23-16.15,12.68-23.95,19.34"/><path class="cls-7" d="M23.77,1142.82c-1.51,1.31-3.01,2.64-4.5,3.97"/><text class="cls-17" transform="translate(606.73 240.01) rotate(-60.04)"><tspan x="0" y="0">5</tspan></text><text class="cls-17" transform="translate(611.47 231.79) rotate(-59.21)"><tspan x="0" y="0">0</tspan></text><path class="cls-7" d="M1613.04,76.87c1.22-1.59,2.43-3.18,3.65-4.76"/><path class="cls-16" d="M1625.28,60.88c10.02-13.1,20.04-26.19,30.06-39.29"/><path class="cls-7" d="M1659.64,15.98c1.22-1.59,2.43-3.18,3.65-4.77"/><path class="cls-7" d="M1288.06,11.21c1.83.81,3.66,1.62,5.48,2.46"/><path class="cls-14" d="M1304.29,18.76c45.05,22.05,86.34,51.76,121.35,87.65,13.73,14.09,26.65,29.22,42.64,40.68,15.99,11.46,35.93,19.08,55.31,15.65,25.99-4.59,44.44-27.07,60.47-48.01.67-.88,1.35-1.76,2.02-2.64"/><path class="cls-7" d="M1589.71,107.36c1.22-1.59,2.43-3.18,3.65-4.76"/><text class="cls-17" transform="translate(1600.68 102.59) rotate(-52.58)"><tspan x="0" y="0">5</tspan></text><text class="cls-17" transform="translate(1606.48 95.01) rotate(-52.58)"><tspan x="0" y="0">0</tspan></text><path class="cls-7" d="M1661.01,112.28c19.37-41.03,45.36-71.58,70.32-101.85"/><path class="cls-7" d="M1132.35,11.21c49.16,11.43,97.8,28.79,142.95,47.87,50.02,21.14,259.61,104.49,281.23,315.22,2.89,28.21,52.11,69.71,58.26,54.29,10.37-25.96-9.59-86.67-9.86-133.04-.32-55.43,18.75-97.45,32.36-131.67,2.15-5.4,6.62-15.66,9.08-21.16"/><text class="cls-17" transform="translate(1652.6 143.15) rotate(-64.29)"><tspan x="0" y="0">1</tspan></text><text class="cls-17" transform="translate(1656.44 135.17) rotate(-63.25)"><tspan x="0" y="0">0</tspan></text><text class="cls-17" transform="translate(1660.69 126.73) rotate(-62.19)"><tspan x="0" y="0">0</tspan></text><path class="cls-7" d="M571.72,186.28c1.63-2.43,18.9-28.1,24.97-36.53,34.11-47.42,71.5-92.48,107.46-138.53"/><path class="cls-7" d="M19.27,997.09c18.04-8.11,36.06-14.68,51.47-19.77,48.79-16.1,100.77-19.15,151.55-26.99,50.79-7.84,163.3-19.5,202.48-52.7,63.38-53.71,78.76-145.6,73.51-228.45-5.24-82.85-26.72-165.09-19.76-247.81,6.27-74.47,35.27-141.93,73.8-205.23"/><text class="cls-17" transform="translate(559.03 216.3) rotate(-58.09)"><tspan x="0" y="0">1</tspan></text><text class="cls-17" transform="translate(563.73 208.75) rotate(-57.5)"><tspan x="0" y="0">0</tspan></text><text class="cls-17" transform="translate(568.84 200.73) rotate(-56.9)"><tspan x="0" y="0">0</tspan></text><path class="cls-7" d="M475.05,120.75c4.35-6.99,15.24-24.46,19.59-31.39,16.34-26.05,32.68-52.1,49.01-78.14"/><path class="cls-7" d="M19.27,968.58c32.14-12.72,68.6-21.6,102.12-32.3,66.39-21.21,141.62-27.13,193.49-73.62,54.33-48.71,67.18-129.17,61.66-201.87-5.53-72.71-25.88-144.27-24.16-217.17,2.57-108.36,49.96-200.09,106.69-293.94"/><text class="cls-17" transform="translate(463.67 150.63) rotate(-58.9)"><tspan x="0" y="0">2</tspan></text><text class="cls-17" transform="translate(468.36 142.84) rotate(-58.67)"><tspan x="0" y="0">0</tspan></text><text class="cls-17" transform="translate(473.34 134.67) rotate(-58.45)"><tspan x="0" y="0">0</tspan></text><path class="cls-7" d="M529.32,157.28c35.58-50.35,75.93-98.3,115.52-146.07"/><path class="cls-7" d="M19.27,990.6c5.89-3.58,12.1-7.09,18.73-10.47,79.42-40.59,272.62-36.33,358.29-147.79,106.94-139.14,19.52-222.1,19.52-363.35,0-108.16,39.19-199.19,93.78-282.71"/><text class="cls-17" transform="translate(515.37 188.02) rotate(-56.41)"><tspan x="0" y="0">1</tspan></text><text class="cls-17" transform="translate(520.46 180.36) rotate(-55.84)"><tspan x="0" y="0">5</tspan></text><text class="cls-17" transform="translate(525.81 172.48) rotate(-55.29)"><tspan x="0" y="0">0</tspan></text><path class="cls-8" d="M548.96,1037.93c-31.04-1.33-65.7,3.58-58.24,18.5,7.95,15.89,52.87,25.5,87.34,31.62,108.36,19.24,215.91,53.39,303.03,96.2,30.2,14.84,63.43,32.3,100.48,35.91,36.43,3.55,60.3-9.18,61.15-25.03.85-15.86-15.96-33.86-34.49-50.87-23.33-21.42-49.74-44.89-82.36-64.97-31.99-19.7-55.55-21.2-93.94-19.45-92.49,4.2-186.62-17.78-282.97-21.9Z"/><path class="cls-7" d="M1939.27,1166.53c-84.27-11.49-169.37-16.94-254.42-16.31-32.86.25-67.88,2.11-94.59,21.22-39.87,28.54-46.86,83.58-66.68,128.4-20.22,45.71-56.96,83.92-101.88,105.95-16.68,8.18-34.5,14.25-49.93,24.55-15.45,10.31-28.69,26.14-29.88,44.65-1.27,19.77,12.11,38.64,29.82,47.58,17.71,8.94,38.83,9.13,58.13,4.52,86.19-20.54,127.76-121.23,206.14-162.51,58.17-30.63,127.77-24.41,193.51-25.66,36.74-.7,75.98-5.51,109.77-19.2"/><path class="cls-7" d="M291.26,2607.33c2.63-36.06,24.81-71.14,58.25-85.79,25.72-11.25,54.74-11.06,82.5-15.31,27.75-4.23,57.36-15.13,70.75-39.77,10.53-19.36,8.45-43.94-1.82-63.46-10.27-19.5-27.8-34.39-46.93-45.36-24.2-13.87-51.14-22.09-76.68-33.28-25.55-11.19-50.64-26.25-65.84-49.61-15.21-23.36-17.87-56.62-.05-78.03,19.37-23.3,54.18-25.2,84.35-22.18,55.52,5.55,109.99,21.48,159.73,46.73,163.66,83.05,259.01,253.7,387.01,386.05"/><path class="cls-7" d="M506.86,2607.33c-12-21.28-15.8-46.58-5.06-68.1,9.51-19.05,28.23-31.7,40.84-48.86,26.9-36.57,19.6-93.72-15.63-122.37-14.59-11.86-32.74-19-46.42-31.89-13.7-12.88-21.7-35.47-10.15-50.3,8.21-10.54,23.64-13.17,36.58-9.77,12.93,3.39,23.94,11.67,34.47,19.9,114.12,89.13,215.63,194.29,300.68,311.38"/></g></svg>