<svg width="142.576782" height="48.056641" viewBox="0 0 142.577 48.0566" fill="none" xmlns="http://www.w3.org/2000/svg" xmlns:xlink="http://www.w3.org/1999/xlink">
	<desc>
			Created with Pixso.
	</desc>
	<defs/>
	<rect id="Option_2" width="142.576752" height="48.056686" fill="#FFFFFF" fill-opacity="0"/>
	<g style="mix-blend-mode:normal">
		<path id="Tracé 371" d="M90.27 15.04C91.75 14.7 91.35 15.46 92.06 15.3C92.77 15.14 93.7 14.04 92.54 12.69C91.38 11.34 90.35 10.81 89.29 10.89C88.67 10.93 87.93 11.42 87.71 11.67C87.2 12.25 86.75 13.55 87.06 14.55C87.39 15.65 88.78 15.37 90.27 15.04Z" fill="#754C24" fill-opacity="1.000000" fill-rule="nonzero"/>
		<path id="Tracé 371" d="M92.06 15.3C92.77 15.14 93.7 14.04 92.54 12.69C91.38 11.34 90.35 10.81 89.29 10.89C88.67 10.93 87.93 11.42 87.71 11.67C87.2 12.25 86.75 13.55 87.06 14.55C87.39 15.65 88.78 15.37 90.27 15.04C91.75 14.7 91.35 15.46 92.06 15.3Z" stroke="#707070" stroke-opacity="0" stroke-width="1.000000"/>
	</g>
	<g style="mix-blend-mode:normal">
		<path id="Tracé 372" d="M78.67 15.37C80.49 14.78 80.07 15.78 80.94 15.5C81.81 15.23 82.86 13.75 81.27 12.19C79.67 10.62 78.3 10.08 76.99 10.29C76.21 10.41 75.35 11.1 75.1 11.45C74.53 12.22 74.11 13.89 74.6 15.11C75.14 16.45 76.85 15.96 78.67 15.37Z" fill="#754C24" fill-opacity="1.000000" fill-rule="nonzero"/>
		<path id="Tracé 372" d="M80.94 15.5C81.81 15.23 82.86 13.75 81.27 12.19C79.67 10.62 78.3 10.08 76.99 10.29C76.21 10.41 75.35 11.1 75.1 11.45C74.53 12.22 74.11 13.89 74.6 15.11C75.14 16.45 76.85 15.96 78.67 15.37C80.49 14.78 80.07 15.78 80.94 15.5Z" stroke="#707070" stroke-opacity="0" stroke-width="1.000000"/>
	</g>
	<g style="mix-blend-mode:normal">
		<path id="Tracé 373" d="M10.54 24.35C10.92 23.35 11.4 22.41 11.97 21.52C12.55 20.64 13.22 19.87 13.98 19.21C14.75 18.55 15.62 18.03 16.59 17.64C17.56 17.26 18.62 17.06 19.78 17.06C20.87 17.06 21.87 17.23 22.78 17.56C23.69 17.89 24.51 18.36 25.23 18.96C25.96 19.56 26.57 20.27 27.09 21.11C27.61 21.94 28.03 22.87 28.33 23.87L32.31 22.2C31.72 20.67 30.92 19.33 29.9 18.19C28.89 17.05 27.73 16.1 26.43 15.35C25.13 14.6 23.72 14.04 22.21 13.67C20.7 13.3 19.15 13.11 17.57 13.11C15.99 13.11 14.35 13.31 12.84 13.72C11.33 14.12 9.92 14.69 8.62 15.44C7.32 16.18 6.14 17.08 5.08 18.13C4.01 19.19 3.11 20.36 2.35 21.66C1.6 22.95 1.02 24.35 0.61 25.86C0.2 27.37 0 28.95 0 30.59C0 32.23 0.2 33.81 0.61 35.32C1.02 36.83 1.6 38.23 2.35 39.52C3.1 40.81 4.01 41.98 5.08 43.03C6.14 44.08 7.32 44.98 8.62 45.73C9.92 46.47 11.33 47.04 12.84 47.45C14.35 47.85 15.93 48.05 17.57 48.05C19.43 48.05 21.26 47.78 23.05 47.25C24.84 46.71 26.47 45.88 27.96 44.75L29.59 47.38L32.26 47.38L32.26 30.76L23.03 30.76L23.03 41.03C23.03 42.18 22.75 42.98 22.17 43.44C21.6 43.89 20.8 44.12 19.78 44.12C17.9 44.12 16.31 43.73 14.99 42.93C13.67 42.13 12.6 41.09 11.77 39.8C10.94 38.51 10.34 37.06 9.96 35.45C9.58 33.84 9.39 32.22 9.39 30.59C9.39 29.57 9.49 28.52 9.68 27.45C9.88 26.38 10.16 25.35 10.54 24.35Z" fill="#754C24" fill-opacity="1.000000" fill-rule="nonzero"/>
		<path id="Tracé 373" d="M11.97 21.52C12.55 20.64 13.22 19.87 13.98 19.21C14.75 18.55 15.62 18.03 16.59 17.64C17.56 17.26 18.62 17.06 19.78 17.06C20.87 17.06 21.87 17.23 22.78 17.56C23.69 17.89 24.51 18.36 25.23 18.96C25.96 19.56 26.57 20.27 27.09 21.11C27.61 21.94 28.03 22.87 28.33 23.87L32.31 22.2C31.72 20.67 30.92 19.33 29.9 18.19C28.89 17.05 27.73 16.1 26.43 15.35C25.13 14.6 23.72 14.04 22.21 13.67C20.7 13.3 19.15 13.11 17.57 13.11C15.99 13.11 14.35 13.31 12.84 13.72C11.33 14.12 9.92 14.69 8.62 15.44C7.32 16.18 6.14 17.08 5.08 18.13C4.01 19.19 3.11 20.36 2.35 21.66C1.6 22.95 1.02 24.35 0.61 25.86C0.2 27.37 0 28.95 0 30.59C0 32.23 0.2 33.81 0.61 35.32C1.02 36.83 1.6 38.23 2.35 39.52C3.1 40.81 4.01 41.98 5.08 43.03C6.14 44.08 7.32 44.98 8.62 45.73C9.92 46.47 11.33 47.04 12.84 47.45C14.35 47.85 15.93 48.05 17.57 48.05C19.43 48.05 21.26 47.78 23.05 47.25C24.84 46.71 26.47 45.88 27.96 44.75L29.59 47.38L32.26 47.38L32.26 30.76L23.03 30.76L23.03 41.03C23.03 42.18 22.75 42.98 22.17 43.44C21.6 43.89 20.8 44.12 19.78 44.12C17.9 44.12 16.31 43.73 14.99 42.93C13.67 42.13 12.6 41.09 11.77 39.8C10.94 38.51 10.34 37.06 9.96 35.45C9.58 33.84 9.39 32.22 9.39 30.59C9.39 29.57 9.49 28.52 9.68 27.45C9.88 26.38 10.16 25.35 10.54 24.35C10.92 23.35 11.4 22.41 11.97 21.52Z" stroke="#707070" stroke-opacity="0" stroke-width="1.000000"/>
	</g>
	<g style="mix-blend-mode:normal">
		<path id="Tracé 374" d="M58.54 26.36C58.19 25.38 57.73 24.49 57.13 23.7C56.53 22.9 55.84 22.22 55.06 21.65C54.27 21.08 53.41 20.64 52.48 20.34C51.54 20.03 50.55 19.87 49.52 19.87C47.47 19.87 45.64 20.24 44.03 20.96C42.42 21.69 41.05 22.69 39.94 23.95C38.82 25.21 37.97 26.7 37.38 28.4C36.79 30.11 36.5 31.94 36.5 33.89C36.5 35.84 36.79 37.67 37.38 39.38C37.97 41.08 38.82 42.56 39.94 43.83C41.05 45.09 42.42 46.09 44.03 46.81C45.64 47.54 47.47 47.91 49.52 47.91C51.08 47.91 52.52 47.6 53.83 46.99C55.14 46.38 56.26 45.43 57.19 44.16L57.19 47.37L65.04 47.37L65.04 20.52L62.02 20.52L58.54 26.36ZM57 35.95C56.91 36.7 56.76 37.46 56.56 38.21C56.36 38.98 56.09 39.71 55.77 40.42C55.44 41.14 55.05 41.77 54.57 42.33C54.1 42.89 53.55 43.33 52.92 43.67C52.3 44 51.58 44.17 50.77 44.17C49.89 44.17 49.12 44.01 48.47 43.69C47.82 43.37 47.27 42.94 46.8 42.41C46.33 41.88 45.95 41.26 45.65 40.56C45.35 39.86 45.11 39.14 44.94 38.38C44.77 37.62 44.65 36.85 44.58 36.07C44.51 35.3 44.47 34.57 44.47 33.89C44.47 33.21 44.51 32.48 44.58 31.72C44.65 30.95 44.77 30.18 44.94 29.43C45.11 28.67 45.35 27.94 45.65 27.24C45.95 26.54 46.33 25.93 46.8 25.39C47.27 24.86 47.82 24.43 48.47 24.11C49.12 23.8 49.89 23.64 50.77 23.64C51.65 23.64 52.43 23.79 53.1 24.1C53.76 24.41 54.33 24.84 54.8 25.37C55.28 25.9 55.66 26.52 55.97 27.21C56.27 27.9 56.51 28.62 56.68 29.38C56.85 30.14 56.97 30.91 57.04 31.68C57.11 32.46 57.14 33.19 57.14 33.89C57.14 34.51 57.09 35.19 57 35.95Z" fill="#754C24" fill-opacity="1.000000" fill-rule="nonzero"/>
		<path id="Tracé 374" d="M57.13 23.7C56.53 22.9 55.84 22.22 55.06 21.65C54.27 21.08 53.41 20.64 52.48 20.34C51.54 20.03 50.55 19.87 49.52 19.87C47.47 19.87 45.64 20.24 44.03 20.96C42.42 21.69 41.05 22.69 39.94 23.95C38.82 25.21 37.97 26.7 37.38 28.4C36.79 30.11 36.5 31.94 36.5 33.89C36.5 35.84 36.79 37.67 37.38 39.38C37.97 41.08 38.82 42.56 39.94 43.83C41.05 45.09 42.42 46.09 44.03 46.81C45.64 47.54 47.47 47.91 49.52 47.91C51.08 47.91 52.52 47.6 53.83 46.99C55.14 46.38 56.26 45.43 57.19 44.16L57.19 47.37L65.04 47.37L65.04 20.52L62.02 20.52L58.54 26.36C58.19 25.38 57.73 24.49 57.13 23.7ZM56.56 38.21C56.36 38.98 56.09 39.71 55.77 40.42C55.44 41.14 55.05 41.77 54.57 42.33C54.1 42.89 53.55 43.33 52.92 43.67C52.3 44 51.58 44.17 50.77 44.17C49.89 44.17 49.12 44.01 48.47 43.69C47.82 43.37 47.27 42.94 46.8 42.41C46.33 41.88 45.95 41.26 45.65 40.56C45.35 39.86 45.11 39.14 44.94 38.38C44.77 37.62 44.65 36.85 44.58 36.07C44.51 35.3 44.47 34.57 44.47 33.89C44.47 33.21 44.51 32.48 44.58 31.72C44.65 30.95 44.77 30.18 44.94 29.43C45.11 28.67 45.35 27.94 45.65 27.24C45.95 26.54 46.33 25.93 46.8 25.39C47.27 24.86 47.82 24.43 48.47 24.11C49.12 23.8 49.89 23.64 50.77 23.64C51.65 23.64 52.43 23.79 53.1 24.1C53.76 24.41 54.33 24.84 54.8 25.37C55.28 25.9 55.66 26.52 55.97 27.21C56.27 27.9 56.51 28.62 56.68 29.38C56.85 30.14 56.97 30.91 57.04 31.68C57.11 32.46 57.14 33.19 57.14 33.89C57.14 34.51 57.09 35.19 57 35.95C56.91 36.7 56.76 37.46 56.56 38.21Z" stroke="#707070" stroke-opacity="0" stroke-width="1.000000"/>
	</g>
	<g style="mix-blend-mode:normal">
		<path id="Tracé 375" d="M95.33 23.7C94.68 22.99 93.93 22.4 93.06 21.92C92.19 21.44 91.27 21.05 90.29 20.74C89.31 20.44 88.31 20.22 87.27 20.08C86.23 19.94 85.22 19.87 84.23 19.87C82.18 19.87 80.29 20.22 78.55 20.9C76.82 21.59 75.32 22.56 74.07 23.8C72.81 25.04 71.83 26.52 71.12 28.24C70.4 29.96 70.05 31.85 70.05 33.89C70.05 35.93 70.4 37.82 71.12 39.54C71.83 41.26 72.81 42.74 74.07 43.98C75.32 45.22 76.82 46.18 78.55 46.87C80.29 47.56 82.18 47.91 84.23 47.91C85.47 47.91 86.72 47.77 87.98 47.49C89.24 47.21 90.44 46.78 91.56 46.2C92.68 45.62 93.69 44.88 94.58 43.99C95.48 43.1 96.18 42.04 96.69 40.82L93.29 39.56C93 40.32 92.62 41.01 92.14 41.63C91.67 42.26 91.12 42.79 90.5 43.24C89.88 43.69 89.2 44.04 88.45 44.28C87.71 44.53 86.93 44.66 86.11 44.66C84.87 44.66 83.8 44.46 82.89 44.05C81.98 43.65 81.22 43.1 80.6 42.41C79.98 41.72 79.48 40.92 79.11 39.99C78.74 39.07 78.47 38.1 78.3 37.08C79.4 37.43 80.51 37.69 81.65 37.85C82.78 38.01 83.92 38.1 85.09 38.1C86 38.1 86.94 38.04 87.91 37.91C88.88 37.79 89.82 37.58 90.73 37.3C91.65 37.01 92.51 36.64 93.31 36.19C94.12 35.74 94.83 35.19 95.44 34.54C96.05 33.89 96.54 33.13 96.89 32.27C97.25 31.41 97.43 30.43 97.43 29.33C97.43 28.14 97.24 27.08 96.86 26.15C96.48 25.22 95.97 24.4 95.33 23.7ZM90.5 32.24C90.13 33 89.62 33.61 88.98 34.07C88.34 34.52 87.58 34.85 86.7 35.04C85.82 35.24 84.87 35.33 83.85 35.33C82.83 35.33 81.91 35.27 80.94 35.15C79.98 35.03 79.02 34.85 78.06 34.64C78.05 34.51 78.04 34.39 78.04 34.27L78.04 33.89C78.04 33.18 78.09 32.42 78.2 31.62C78.31 30.81 78.49 30.01 78.74 29.22C78.98 28.43 79.3 27.67 79.68 26.94C80.06 26.21 80.51 25.58 81.05 25.02C81.59 24.47 82.21 24.04 82.91 23.71C83.61 23.39 84.41 23.22 85.29 23.22C86.24 23.22 87.07 23.37 87.78 23.68C88.49 23.98 89.09 24.4 89.58 24.94C90.07 25.48 90.44 26.13 90.69 26.89C90.93 27.65 91.06 28.49 91.06 29.41C91.06 30.54 90.87 31.48 90.5 32.24Z" fill="#754C24" fill-opacity="1.000000" fill-rule="nonzero"/>
		<path id="Tracé 375" d="M93.06 21.92C92.19 21.44 91.27 21.05 90.29 20.74C89.31 20.44 88.31 20.22 87.27 20.08C86.23 19.94 85.22 19.87 84.23 19.87C82.18 19.87 80.29 20.22 78.55 20.9C76.82 21.59 75.32 22.56 74.07 23.8C72.81 25.04 71.83 26.52 71.12 28.24C70.4 29.96 70.05 31.85 70.05 33.89C70.05 35.93 70.4 37.82 71.12 39.54C71.83 41.26 72.81 42.74 74.07 43.98C75.32 45.22 76.82 46.18 78.55 46.87C80.29 47.56 82.18 47.91 84.23 47.91C85.47 47.91 86.72 47.77 87.98 47.49C89.24 47.21 90.44 46.78 91.56 46.2C92.68 45.62 93.69 44.88 94.58 43.99C95.48 43.1 96.18 42.04 96.69 40.82L93.29 39.56C93 40.32 92.62 41.01 92.14 41.63C91.67 42.26 91.12 42.79 90.5 43.24C89.88 43.69 89.2 44.04 88.45 44.28C87.71 44.53 86.93 44.66 86.11 44.66C84.87 44.66 83.8 44.46 82.89 44.05C81.98 43.65 81.22 43.1 80.6 42.41C79.98 41.72 79.48 40.92 79.11 39.99C78.74 39.07 78.47 38.1 78.3 37.08C79.4 37.43 80.51 37.69 81.65 37.85C82.78 38.01 83.92 38.1 85.09 38.1C86 38.1 86.94 38.04 87.91 37.91C88.88 37.79 89.82 37.58 90.73 37.3C91.65 37.01 92.51 36.64 93.31 36.19C94.12 35.74 94.83 35.19 95.44 34.54C96.05 33.89 96.54 33.13 96.89 32.27C97.25 31.41 97.43 30.43 97.43 29.33C97.43 28.14 97.24 27.08 96.86 26.15C96.48 25.22 95.97 24.4 95.33 23.7C94.68 22.99 93.93 22.4 93.06 21.92ZM88.98 34.07C88.34 34.52 87.58 34.85 86.7 35.04C85.82 35.24 84.87 35.33 83.85 35.33C82.83 35.33 81.91 35.27 80.94 35.15C79.98 35.03 79.02 34.85 78.06 34.64C78.05 34.51 78.04 34.39 78.04 34.27L78.04 33.89C78.04 33.18 78.09 32.42 78.2 31.62C78.31 30.81 78.49 30.01 78.74 29.22C78.98 28.43 79.3 27.67 79.68 26.94C80.06 26.21 80.51 25.58 81.05 25.02C81.59 24.47 82.21 24.04 82.91 23.71C83.61 23.39 84.41 23.22 85.29 23.22C86.24 23.22 87.07 23.37 87.78 23.68C88.49 23.98 89.09 24.4 89.58 24.94C90.07 25.48 90.44 26.13 90.69 26.89C90.93 27.65 91.06 28.49 91.06 29.41C91.06 30.54 90.87 31.48 90.5 32.24C90.13 33 89.62 33.61 88.98 34.07Z" stroke="#707070" stroke-opacity="0" stroke-width="1.000000"/>
	</g>
	<g style="mix-blend-mode:normal">
		<path id="Tracé 376" d="M102.33 0L102.33 47.37L110.19 47.37L110.19 8.16L105.36 0L102.33 0Z" fill="#754C24" fill-opacity="1.000000" fill-rule="nonzero"/>
		<path id="Tracé 376" d="M102.33 47.37L110.19 47.37L110.19 8.16L105.36 0L102.33 0L102.33 47.37Z" stroke="#707070" stroke-opacity="0" stroke-width="1.000000"/>
	</g>
	<g style="mix-blend-mode:normal">
		<path id="Tracé 377" d="M130.23 38.1C131.14 38.1 132.09 38.04 133.05 37.91C134.02 37.79 134.97 37.58 135.88 37.3C136.79 37.01 137.65 36.64 138.46 36.19C139.27 35.74 139.97 35.19 140.58 34.54C141.2 33.89 141.68 33.13 142.04 32.27C142.39 31.41 142.57 30.43 142.57 29.33C142.57 28.14 142.38 27.08 142 26.15C141.62 25.22 141.11 24.4 140.47 23.7C139.83 22.99 139.07 22.4 138.2 21.92C137.33 21.44 136.41 21.05 135.44 20.74C134.46 20.44 133.45 20.22 132.41 20.08C131.38 19.94 130.36 19.87 129.37 19.87C127.32 19.87 125.43 20.22 123.7 20.9C121.96 21.59 120.47 22.56 119.21 23.8C117.96 25.04 116.97 26.52 116.26 28.24C115.55 29.96 115.19 31.85 115.19 33.89C115.19 35.93 115.55 37.82 116.26 39.54C116.97 41.26 117.96 42.74 119.21 43.98C120.47 45.22 121.96 46.18 123.7 46.87C125.43 47.56 127.32 47.91 129.37 47.91C130.61 47.91 131.86 47.77 133.12 47.49C134.39 47.21 135.58 46.78 136.71 46.2C137.83 45.62 138.84 44.88 139.73 43.99C140.62 43.1 141.32 42.04 141.83 40.82L138.44 39.56C138.14 40.32 137.76 41.01 137.29 41.63C136.81 42.26 136.27 42.79 135.64 43.24C135.02 43.69 134.34 44.04 133.6 44.28C132.85 44.53 132.07 44.66 131.25 44.66C130.01 44.66 128.94 44.46 128.03 44.05C127.13 43.65 126.36 43.1 125.74 42.41C125.12 41.72 124.63 40.92 124.25 39.99C123.88 39.07 123.61 38.1 123.44 37.08C124.54 37.43 125.66 37.69 126.79 37.85C127.92 38.01 129.07 38.1 130.23 38.1ZM123.21 34.63C123.19 34.51 123.19 34.39 123.19 34.26L123.19 33.89C123.19 33.18 123.24 32.42 123.35 31.61C123.46 30.81 123.63 30.01 123.88 29.22C124.13 28.43 124.45 27.67 124.83 26.94C125.21 26.21 125.66 25.57 126.2 25.02C126.73 24.47 127.35 24.03 128.06 23.71C128.76 23.38 129.56 23.22 130.44 23.22C131.38 23.22 132.21 23.37 132.93 23.67C133.64 23.98 134.24 24.4 134.73 24.94C135.22 25.48 135.59 26.13 135.83 26.89C136.08 27.65 136.21 28.49 136.21 29.4C136.21 30.53 136.02 31.48 135.65 32.24C135.28 33 134.77 33.61 134.13 34.07C133.48 34.52 132.72 34.85 131.85 35.04C130.97 35.24 130.02 35.33 129 35.33C127.98 35.33 127.06 35.27 126.09 35.15C125.13 35.03 124.17 34.85 123.21 34.63Z" fill="#754C24" fill-opacity="1.000000" fill-rule="nonzero"/>
		<path id="Tracé 377" d="M133.05 37.91C134.02 37.79 134.97 37.58 135.88 37.3C136.79 37.01 137.65 36.64 138.46 36.19C139.27 35.74 139.97 35.19 140.58 34.54C141.2 33.89 141.68 33.13 142.04 32.27C142.39 31.41 142.57 30.43 142.57 29.33C142.57 28.14 142.38 27.08 142 26.15C141.62 25.22 141.11 24.4 140.47 23.7C139.83 22.99 139.07 22.4 138.2 21.92C137.33 21.44 136.41 21.05 135.44 20.74C134.46 20.44 133.45 20.22 132.41 20.08C131.38 19.94 130.36 19.87 129.37 19.87C127.32 19.87 125.43 20.22 123.7 20.9C121.96 21.59 120.47 22.56 119.21 23.8C117.96 25.04 116.97 26.52 116.26 28.24C115.55 29.96 115.19 31.85 115.19 33.89C115.19 35.93 115.55 37.82 116.26 39.54C116.97 41.26 117.96 42.74 119.21 43.98C120.47 45.22 121.96 46.18 123.7 46.87C125.43 47.56 127.32 47.91 129.37 47.91C130.61 47.91 131.86 47.77 133.12 47.49C134.39 47.21 135.58 46.78 136.71 46.2C137.83 45.62 138.84 44.88 139.73 43.99C140.62 43.1 141.32 42.04 141.83 40.82L138.44 39.56C138.14 40.32 137.76 41.01 137.29 41.63C136.81 42.26 136.27 42.79 135.64 43.24C135.02 43.69 134.34 44.04 133.6 44.28C132.85 44.53 132.07 44.66 131.25 44.66C130.01 44.66 128.94 44.46 128.03 44.05C127.13 43.65 126.36 43.1 125.74 42.41C125.12 41.72 124.63 40.92 124.25 39.99C123.88 39.07 123.61 38.1 123.44 37.08C124.54 37.43 125.66 37.69 126.79 37.85C127.92 38.01 129.07 38.1 130.23 38.1C131.14 38.1 132.09 38.04 133.05 37.91ZM123.19 34.26L123.19 33.89C123.19 33.18 123.24 32.42 123.35 31.61C123.46 30.81 123.63 30.01 123.88 29.22C124.13 28.43 124.45 27.67 124.83 26.94C125.21 26.21 125.66 25.57 126.2 25.02C126.73 24.47 127.35 24.03 128.06 23.71C128.76 23.38 129.56 23.22 130.44 23.22C131.38 23.22 132.21 23.37 132.93 23.67C133.64 23.98 134.24 24.4 134.73 24.94C135.22 25.48 135.59 26.13 135.83 26.89C136.08 27.65 136.21 28.49 136.21 29.4C136.21 30.53 136.02 31.48 135.65 32.24C135.28 33 134.77 33.61 134.13 34.07C133.48 34.52 132.72 34.85 131.85 35.04C130.97 35.24 130.02 35.33 129 35.33C127.98 35.33 127.06 35.27 126.09 35.15C125.13 35.03 124.17 34.85 123.21 34.63C123.19 34.51 123.19 34.39 123.19 34.26Z" stroke="#707070" stroke-opacity="0" stroke-width="1.000000"/>
	</g>
</svg>
